<svg width="225" height="65" viewBox="0 0 225 65" fill="none" xmlns="http://www.w3.org/2000/svg">
<g clip-path="url(#clip0_0_3)">
<path d="M17.053 62.356C9.283 59.912 -2.237 48.456 0.463001 37.443C0.463001 37.443 12.77 61.211 27.396 60.125C27.396 60.125 24.788 61.525 23.796 62.26C23.1297 62.9043 22.2437 63.2717 21.317 63.288C19.8589 63.1792 18.4235 62.8655 17.053 62.356ZM21.736 48.874C-3.527 31.46 5.336 22.554 5.336 22.554C32.917 50.323 38.236 44.29 38.236 44.29C37.386 49.056 33.403 51.133 29.182 51.133C26.5309 51.1333 23.9392 50.3471 21.735 48.874H21.736ZM25.389 27.133C20.253 22.764 13.475 15.452 14.455 12.177L14.246 12.2C17.0589 11.3559 19.9511 10.8033 22.877 10.551C23.832 13.762 26.819 18.084 30.761 21.818C33.3843 24.288 36.4862 26.1939 39.875 27.418C39.3195 29.4415 38.555 31.4017 37.594 33.267C37.594 33.255 37.6 33.242 37.604 33.229C37.2141 33.375 36.8004 33.4473 36.384 33.442C33.531 33.443 29.412 30.559 25.388 27.133H25.389ZM28.542 13.851C28.542 13.851 32.525 13.685 29.453 10.681C28.063 9.789 26.393 7.673 27.486 2.758C27.626 2.127 28.101 0 28.101 0C28.101 0 31.969 4.575 31.84 6.955C31.7208 8.40938 31.4411 9.84611 31.006 11.239C33.292 12.632 35.817 14.576 32.339 14.687C31.904 14.701 31.514 14.707 31.165 14.707C27.14 14.708 28.541 13.852 28.541 13.852L28.542 13.851Z" fill="#F5F5F5"/>
<path fill-rule="evenodd" clip-rule="evenodd" d="M21.8 35.977C28.5 37.777 36.547 39.214 40.137 36.162C40.137 36.183 40.137 36.199 40.144 36.219C40.5027 33.2128 40.4833 30.1734 40.086 27.172C34.8572 27.917 29.5299 27.542 24.457 26.072C17.523 24.209 11.8 20.995 8.667 17.583C6.79877 19.7308 5.23356 22.1244 4.015 24.697C4.057 24.643 3.922 25.085 3.966 25.028C5.466 29.229 14.264 33.955 21.8 35.977ZM37.95 19.491C36.8951 17.0428 35.3461 14.8388 33.4 13.017C33.457 13.792 30.6 13.447 27.155 12.269C24.282 11.288 22.232 10.155 21.722 9.455C19.0465 9.90511 16.5027 10.9382 14.271 12.481C18.0505 14.996 22.2256 16.8582 26.622 17.99C30.3127 19.0007 34.1235 19.5056 37.95 19.491ZM0.918002 33.819C0.276288 36.7147 -0.0317186 39.6743 1.76369e-06 42.64C3.06 50.18 9.553 52.871 16.774 54.805C22.981 56.469 29.153 57.244 34.354 52.826C36.078 51.36 37.501 47.362 38.277 44.505C28.923 49.544 25.609 48.263 18.601 46.427C10.872 44.403 3.01 39.116 0.918002 33.819ZM2.736 55.119C4.959 59.719 8.449 63.053 12.9 64.244C17.538 65.488 20.911 65.677 27.1 60.42C23.064 60.977 18.58 61.752 14.566 60.677C10.3238 59.5433 6.31778 57.6622 2.736 55.122V55.119Z" fill="white"/>
<path d="M93.874 29.072C93.2847 28.2626 93.0012 27.2706 93.074 26.272C93.0603 25.577 93.2003 24.8876 93.484 24.253C93.7327 23.6963 94.1405 23.2256 94.656 22.9C95.1176 22.635 95.6328 22.477 96.1636 22.4375C96.6944 22.398 97.2273 22.4782 97.723 22.672C98.065 22.8215 98.3643 23.0538 98.594 23.348C98.8303 23.6739 99.0023 24.0418 99.101 24.432C99.2356 24.9886 99.3028 25.5594 99.301 26.132H94.45V26.272C94.438 26.7817 94.5055 27.2901 94.65 27.779C94.7682 28.1619 95.0019 28.499 95.319 28.744C95.6746 28.9909 96.1015 29.1139 96.534 29.094C96.9258 29.1013 97.3142 29.0211 97.671 28.859C98.0522 28.6658 98.3943 28.4037 98.68 28.086L99.143 28.586C98.8694 28.8831 98.5681 29.1533 98.243 29.393C97.9671 29.5895 97.6639 29.7445 97.343 29.853C96.9936 29.966 96.6282 30.022 96.261 30.019C95.8176 30.0502 95.3728 29.9813 94.9597 29.8173C94.5465 29.6534 94.1754 29.3987 93.874 29.072ZM95.048 23.672C94.6938 24.2112 94.5002 24.84 94.49 25.485H97.864C97.8491 25.0254 97.7796 24.5692 97.657 24.126C97.5726 23.8165 97.4036 23.5367 97.169 23.318C96.9302 23.1231 96.6278 23.0234 96.32 23.038C96.0722 23.0313 95.8266 23.0855 95.6048 23.1961C95.383 23.3067 95.1918 23.4701 95.048 23.672ZM88.835 29.903V29.529C88.983 29.4866 89.1274 29.4328 89.267 29.368C89.3535 29.3213 89.4286 29.2561 89.487 29.177C89.558 29.0594 89.6049 28.9289 89.625 28.793C89.6649 28.535 89.6817 28.274 89.675 28.013V25.995C89.6871 25.4716 89.652 24.9481 89.57 24.431C89.5289 24.1216 89.3853 23.835 89.162 23.617C88.9186 23.4277 88.6148 23.3332 88.307 23.351C88.1154 23.3475 87.9252 23.3846 87.749 23.46C87.5402 23.56 87.3471 23.6901 87.176 23.846C86.9804 24.0049 86.8145 24.1972 86.686 24.414C86.5765 24.6029 86.5195 24.8177 86.521 25.036V27.979C86.521 28.328 86.53 28.579 86.547 28.727C86.5582 28.8553 86.592 28.9806 86.647 29.097C86.6993 29.2004 86.7811 29.286 86.882 29.343C87.0359 29.4265 87.2009 29.4878 87.372 29.525V29.899H84.323V29.525C84.4911 29.4851 84.6539 29.4253 84.808 29.347C84.9004 29.2953 84.9784 29.2214 85.035 29.132C85.1001 29.0142 85.1412 28.8847 85.156 28.751C85.1868 28.4932 85.1998 28.2336 85.195 27.974V21.504C85.195 21.004 85.195 20.665 85.183 20.47C85.1788 20.3016 85.1577 20.1341 85.12 19.97C85.0972 19.855 85.0512 19.7458 84.985 19.649C84.9219 19.568 84.8393 19.5044 84.745 19.464C84.5704 19.3964 84.3885 19.3494 84.203 19.324V18.95L86.057 18.872H86.523V23.758L86.553 23.766C86.8465 23.4546 87.1653 23.1679 87.506 22.909C87.7206 22.7576 87.9543 22.6353 88.201 22.545C88.4375 22.4609 88.687 22.4193 88.938 22.422C89.1938 22.4193 89.4487 22.453 89.695 22.522C89.9075 22.5843 90.1056 22.6879 90.278 22.827C90.4473 22.964 90.5868 23.1342 90.688 23.327C90.8025 23.5494 90.8818 23.7883 90.923 24.035C90.9798 24.3776 91.0049 24.7248 90.998 25.072V27.972C90.9879 28.2768 91.0069 28.5819 91.055 28.883C91.0835 29.027 91.1558 29.1586 91.262 29.26C91.4441 29.3872 91.6509 29.4747 91.869 29.517V29.891L88.835 29.903ZM77.415 29.903V29.529C77.5531 29.4983 77.6894 29.4595 77.823 29.413C77.9271 29.3808 78.0246 29.3304 78.111 29.264C78.1882 29.2021 78.2513 29.1243 78.296 29.036C78.3529 28.9167 78.392 28.7897 78.412 28.659C78.4456 28.4273 78.46 28.1931 78.455 27.959V20.072H77.484C77.2816 20.0659 77.0795 20.0895 76.884 20.142C76.7144 20.1945 76.5632 20.294 76.448 20.429C76.2903 20.6117 76.1664 20.8209 76.082 21.047C75.953 21.3783 75.8494 21.719 75.772 22.066H75.023V19.383H83.33V22.066H82.58C82.4944 21.7113 82.3828 21.3633 82.246 21.025C82.163 20.8129 82.045 20.6161 81.897 20.443C81.7883 20.3201 81.6537 20.2228 81.503 20.158C81.2988 20.0918 81.0844 20.0627 80.87 20.072H79.897V27.952C79.8927 28.1947 79.9094 28.4372 79.947 28.677C79.9698 28.8282 80.0218 28.9736 80.1 29.105C80.1697 29.211 80.2673 29.2958 80.382 29.35C80.5597 29.4291 80.7459 29.4875 80.937 29.524V29.898L77.415 29.903Z" fill="white"/>
<path d="M72.302 53.11V52.005C73.045 51.975 73.792 51.961 74.538 51.961C75.8567 51.761 76.5157 51.204 76.515 50.29C76.515 50.26 76.3863 49.802 76.129 48.916C75.8977 48.256 75.7537 47.798 75.697 47.542C74.7585 44.4028 73.0381 41.5533 70.697 39.261C68.4795 36.8864 65.833 34.9524 62.897 33.561L59.954 40.405C57.9773 44.9563 56.9893 47.8037 56.99 48.947C56.9673 49.3915 57.0535 49.8347 57.241 50.2384C57.4285 50.642 57.7117 50.9937 58.066 51.263C58.8233 51.8191 59.7511 52.0933 60.689 52.038V53.109H50.438V52.037C52.536 51.837 54.174 50.591 55.352 48.299C56.2987 45.8403 57.032 43.979 57.552 42.715C57.81 42.0877 59.172 38.9243 61.638 33.225C60.548 32.4337 58.541 32.0367 55.617 32.034C53.3694 32.0196 51.143 32.469 49.077 33.354C50.281 31.376 52.8183 30.3867 56.689 30.386C58.6097 30.3956 60.5198 30.6708 62.365 31.204L67.699 18.705L67.999 18.733L70.667 24.796C71.467 26.802 73.273 31.2177 76.085 38.043C77.7468 42.2747 79.6307 46.4158 81.729 50.449C82.159 51.194 83.264 51.72 85.046 52.038L85.132 53.109L72.302 53.11ZM63.702 31.653C66.0022 32.3601 68.1759 33.4274 70.142 34.815L66.242 25.239L63.702 31.653ZM185.135 50.019C183.607 48.303 182.844 45.7633 182.847 42.4C182.783 40.3784 183.194 38.3701 184.047 36.536C184.754 35.0387 185.903 33.7946 187.34 32.972C188.804 32.1794 190.448 31.7778 192.113 31.806C195.096 31.806 197.357 32.6783 198.894 34.423C200.431 36.1677 201.198 38.6733 201.194 41.94C201.256 43.9627 200.863 45.9735 200.044 47.824C199.358 49.3312 198.215 50.5842 196.777 51.405C195.241 52.2264 193.518 52.6354 191.777 52.592C190.549 52.6742 189.318 52.4865 188.171 52.042C187.023 51.5974 185.987 50.9069 185.135 50.019ZM188.142 35.664C187.129 37.603 186.661 39.7802 186.787 41.964C186.656 44.2654 187.129 46.5611 188.16 48.623C188.534 49.3391 189.1 49.9365 189.795 50.3478C190.49 50.7592 191.286 50.9681 192.094 50.951C192.942 50.9758 193.777 50.7369 194.484 50.267C195.158 49.7897 195.707 49.1568 196.084 48.422C196.521 47.5803 196.822 46.6748 196.976 45.739C197.162 44.6869 197.253 43.6204 197.249 42.552C197.294 40.8151 197.065 39.082 196.568 37.417C196.246 36.2618 195.602 35.2217 194.713 34.417C193.961 33.7881 193.009 33.4477 192.028 33.457C191.24 33.4332 190.461 33.6265 189.775 34.0158C189.09 34.405 188.524 34.9752 188.141 35.664H188.142ZM160.201 50.988C159.2 49.5121 158.732 47.7387 158.876 45.961V34.315H155.767V33.305C156.372 33.222 156.952 33.0088 157.467 32.68C157.888 32.3942 158.237 32.0141 158.485 31.57C158.757 31.0472 158.952 30.4877 159.063 29.909C159.199 29.244 159.347 28.274 159.499 26.998H162.458V32.159H169.267V34.315H162.458V43.671C162.442 44.7563 162.499 45.8414 162.629 46.919C162.691 47.593 162.909 48.2433 163.265 48.819C163.528 49.23 163.893 49.5667 164.323 49.797C164.805 50.0084 165.327 50.1085 165.853 50.09C166.403 50.0929 166.947 49.9734 167.445 49.74C167.98 49.4762 168.474 49.1356 168.91 48.729L169.84 49.838C169.013 50.6844 168.058 51.3954 167.01 51.945C166.151 52.374 165.203 52.5979 164.243 52.599C163.491 52.6566 162.736 52.5414 162.035 52.2622C161.335 51.9829 160.707 51.5471 160.201 50.988ZM137.93 51.838C137.083 51.3067 136.436 50.5104 136.088 49.573C135.626 48.2084 135.42 46.7703 135.481 45.331V37.378C135.504 36.5649 135.459 35.7513 135.344 34.946C135.276 34.5522 135.093 34.1873 134.818 33.897C134.32 33.5257 133.742 33.2764 133.13 33.169V32.164H139.065V42.87C139.043 44.1208 139.106 45.3717 139.254 46.614C139.324 47.2886 139.516 47.9447 139.822 48.55C140.086 48.9954 140.453 49.3704 140.893 49.643C141.477 49.9682 142.141 50.1217 142.808 50.086C143.336 50.0867 143.858 49.9798 144.343 49.772C144.943 49.4892 145.496 49.1166 145.983 48.667C146.515 48.2352 146.957 47.7027 147.283 47.1C147.554 46.5349 147.688 45.9136 147.673 45.287V37.387C147.673 36.587 147.651 35.981 147.61 35.576C147.584 35.2411 147.513 34.9112 147.4 34.595C147.317 34.3778 147.2 34.1752 147.053 33.995C146.892 33.8218 146.7 33.6798 146.487 33.576C146.106 33.4015 145.709 33.2674 145.3 33.176V32.164H151.257V46.57C151.257 47.653 151.279 48.435 151.32 48.912C151.341 49.3054 151.434 49.6917 151.593 50.052C151.739 50.3387 151.966 50.5764 152.245 50.736C152.742 50.9805 153.273 51.1471 153.821 51.23V52.237L149.028 52.452H147.749L147.875 49.031L147.56 48.949C146.606 50.039 145.486 50.9727 144.243 51.716C143.278 52.2749 142.186 52.5772 141.071 52.594C139.974 52.6366 138.887 52.3749 137.93 51.838ZM102.53 50.018C101.003 48.302 100.24 45.7623 100.24 42.399C100.178 40.3775 100.589 38.3695 101.44 36.535C102.149 35.0371 103.301 33.793 104.74 32.971C106.202 32.1791 107.844 31.7775 109.506 31.805C112.491 31.805 114.751 32.6773 116.286 34.422C117.821 36.1667 118.587 38.6723 118.586 41.939C118.647 43.9616 118.254 45.9722 117.436 47.823C116.751 49.3287 115.612 50.5816 114.177 51.405C112.641 52.2263 110.918 52.6352 109.177 52.592C107.948 52.6754 106.715 52.4882 105.565 52.0437C104.416 51.5991 103.378 50.908 102.525 50.019L102.53 50.018ZM105.537 35.663C104.526 37.6027 104.059 39.7795 104.185 41.963C104.054 44.2645 104.527 46.5602 105.558 48.622C105.932 49.3378 106.498 49.9351 107.193 50.3464C107.888 50.7577 108.684 50.9668 109.491 50.95C110.339 50.9741 111.174 50.7352 111.881 50.266C112.556 49.7893 113.105 49.1562 113.481 48.421C113.918 47.5793 114.219 46.6738 114.373 45.738C114.558 44.6858 114.65 43.6193 114.647 42.551C114.693 40.8141 114.463 39.0809 113.966 37.416C113.643 36.2608 112.999 35.2207 112.109 34.416C111.357 33.7864 110.404 33.446 109.423 33.456C108.634 33.4326 107.855 33.6261 107.168 34.0155C106.482 34.4048 105.916 34.975 105.532 35.664L105.537 35.663ZM86.557 52.452L80.902 36.762C80.6467 35.9995 80.3355 35.2568 79.971 34.54C79.7858 34.1912 79.53 33.8847 79.22 33.64C78.8619 33.4069 78.4606 33.2481 78.04 33.173V32.164H86.568V33.169C86.0994 33.2664 85.6432 33.416 85.208 33.615C84.9593 33.7388 84.7512 33.931 84.608 34.169C84.4629 34.4514 84.3939 34.7668 84.408 35.084C84.4103 35.4824 84.4559 35.8794 84.544 36.268C84.6588 36.7554 84.8034 37.2353 84.977 37.705L88.612 48.331L92.85 38.147C93.0808 37.6074 93.2749 37.0528 93.431 36.487C93.5372 36.0892 93.5933 35.6797 93.598 35.268C93.6157 35.0222 93.5835 34.7754 93.5034 34.5424C93.4233 34.3094 93.297 34.095 93.132 33.912C92.6388 33.5124 92.0464 33.2543 91.418 33.165V32.164H99.187V33.169C98.7371 33.2444 98.3106 33.4227 97.941 33.69C97.586 34.0026 97.2905 34.377 97.069 34.795C96.6875 35.4769 96.3411 36.1778 96.031 36.895L89.031 52.456L86.557 52.452ZM216.177 52.237V51.23C216.58 51.1184 216.972 50.9705 217.349 50.788C217.588 50.663 217.793 50.4831 217.949 50.263C218.144 49.9446 218.273 49.5897 218.327 49.22C218.435 48.512 218.48 47.796 218.464 47.08V41.56C218.464 40.581 218.434 39.687 218.38 38.886C218.344 38.2233 218.249 37.5651 218.097 36.919C217.999 36.4963 217.836 36.0915 217.613 35.719C217.242 35.1484 216.69 34.7188 216.046 34.499C215.618 34.3662 215.17 34.3053 214.722 34.319C214.186 34.3158 213.655 34.4276 213.165 34.647C212.571 34.9354 212.024 35.3135 211.545 35.768C211.026 36.2136 210.591 36.7487 210.261 37.348C209.986 37.905 209.849 38.5199 209.861 39.141V47C209.832 47.8436 209.889 48.6879 210.03 49.52C210.112 49.9425 210.339 50.3232 210.671 50.597C211.139 50.9085 211.663 51.1255 212.214 51.236V52.243H204.008V51.23C204.41 51.1187 204.8 50.9708 205.175 50.788C205.409 50.6592 205.609 50.4782 205.761 50.259C205.957 49.9437 206.087 49.5914 206.142 49.224C206.25 48.5029 206.295 47.7739 206.278 47.045V37.821C206.278 36.921 206.264 36.196 206.234 35.643C206.229 35.1869 206.129 34.7368 205.942 34.321C205.777 33.9947 205.507 33.7333 205.175 33.579C204.707 33.3811 204.216 33.2433 203.714 33.169V32.164L208.614 31.949H209.885L209.651 35.367L209.951 35.45C210.721 34.6348 211.557 33.8846 212.451 33.207C213.048 32.7828 213.697 32.4354 214.381 32.173C215.042 31.9257 215.742 31.8013 216.447 31.806C217.13 31.7975 217.812 31.8864 218.47 32.07C219.042 32.2337 219.577 32.509 220.042 32.88C220.504 33.2532 220.885 33.7154 221.165 34.239C221.483 34.8508 221.706 35.5078 221.826 36.187C221.989 37.1384 222.063 38.1029 222.047 39.068V47.005C222.035 47.7087 222.063 48.4125 222.131 49.113C222.16 49.4655 222.26 49.8087 222.424 50.122C222.572 50.3714 222.782 50.5782 223.034 50.722C223.471 50.9524 223.935 51.1251 224.416 51.236V52.243L216.177 52.237ZM171.117 52.237V51.23C171.518 51.1182 171.907 50.9703 172.281 50.788C172.515 50.6592 172.717 50.4782 172.87 50.259C173.066 49.944 173.195 49.5915 173.248 49.224C173.357 48.5031 173.403 47.7739 173.385 47.045V37.821C173.385 36.921 173.37 36.196 173.344 35.643C173.337 35.1869 173.237 34.7371 173.05 34.321C172.886 33.9935 172.615 33.7317 172.282 33.579C171.815 33.3801 171.324 33.2423 170.822 33.169V32.164L175.698 31.949H176.971V47.005C176.942 47.8468 176.998 48.6894 177.138 49.52C177.22 49.9417 177.446 50.322 177.777 50.596C178.245 50.9085 178.769 51.1256 179.321 51.235V52.242L171.117 52.237ZM122.037 52.237V51.23C122.552 51.1238 123.045 50.9318 123.496 50.662C123.754 50.4859 123.958 50.2414 124.085 49.956C124.224 49.5982 124.308 49.2217 124.336 48.839C124.392 48.2267 124.417 47.6119 124.411 46.997V29.359C124.411 28.011 124.399 27.073 124.379 26.537C124.368 26.0796 124.312 25.6245 124.212 25.178C124.145 24.8646 124.016 24.5678 123.833 24.305C123.661 24.0856 123.437 23.9119 123.182 23.799C122.704 23.6167 122.207 23.4889 121.701 23.418V22.418L126.745 22.205H127.996V47.005C127.967 47.8452 128.023 48.6861 128.163 49.515C128.244 49.9367 128.471 50.3163 128.804 50.587C129.271 50.8998 129.796 51.117 130.347 51.226V52.233L122.037 52.237Z" fill="white"/>
</g>
<defs>
<clipPath id="clip0_0_3">
<rect width="224.419" height="64.977" fill="white"/>
</clipPath>
</defs>
</svg>
