<svg width="186" height="75" viewBox="0 0 186 75" fill="none" xmlns="http://www.w3.org/2000/svg">
<g clip-path="url(#clip0_0_165)">
<path d="M119.605 56.44H111.528C108.125 56.44 106.411 55.692 105.164 54.063C103.834 52.326 103.834 49.683 103.834 47.1752V0.65564H114.219V48.667C114.219 52.4673 114.645 55.1871 119.607 56.2717V56.44H119.605Z" fill="white"/>
<path d="M98.6005 56.4326H85.6061L76.0545 36.5253C70.8414 39.3594 67.866 45.9252 62.5801 50.2595C59.8852 52.4682 56.7332 54.4379 52.8041 55.7698C51.0255 56.3723 48.0044 57.1515 46.8658 57.2658C46.3921 57.3136 46.0575 57.2928 45.9869 57.1224C45.9329 56.9894 46.0638 56.8876 46.5707 56.6445C47.1484 56.3661 49.5337 55.3771 51.0297 54.3361C52.8955 53.0354 53.9656 51.6287 54.0487 50.5421C53.5355 48.7323 49.8807 44.718 53.6186 37.3502C54.9608 34.7073 56.1202 32.804 56.9514 30.8924C57.9071 28.6962 58.5824 25.6024 58.811 23.3023C58.8234 23.1672 58.8484 23.1756 58.9211 23.2483C60.7412 25.0892 67.7995 32.3552 66.7793 39.5776C69.1251 38.6758 73.1955 35.9394 75.0717 34.4787C77.0518 32.937 78.3442 31.3288 80.4407 31.2935C82.319 31.2623 82.4811 32.1599 83.9771 32.3573C84.3469 32.4071 84.8955 32.3344 85.1801 32.1952C85.2944 32.1391 85.2674 32.0144 85.0929 31.9729C83.0525 31.4908 82.5642 29.8286 79.9254 29.8286C77.5588 29.8286 75.6764 32.0082 74.3112 32.9017L67.6374 18.995C64.8469 13.1793 65.6988 8.95311 71.8241 0.637817L98.5985 56.4367L98.6005 56.4326Z" fill="white"/>
<path d="M140.521 56.44H132.444C129.041 56.44 127.327 55.692 126.08 54.063C124.75 52.326 124.75 49.683 124.75 47.1752V0.65564H135.135V48.667C135.135 52.4673 135.561 55.1871 140.523 56.2717V56.44H140.521Z" fill="white"/>
<path d="M8.80092 71.7618H4.01371L3.09948 73.9705H0.653931L5.24999 63.6585H7.6062L12.2168 73.9705H9.71307L8.79885 71.7618H8.80092ZM8.04877 69.95L6.41355 66.0022L4.77833 69.95H8.04877Z" fill="white"/>
<path d="M15.2611 73.4624C14.4113 73.0053 13.7443 72.3716 13.2581 71.5613C12.7719 70.7509 12.5288 69.8346 12.5288 68.8144C12.5288 67.7943 12.7719 66.8779 13.2581 66.0676C13.7443 65.2573 14.4113 64.6236 15.2611 64.1664C16.1109 63.7093 17.0667 63.4808 18.1264 63.4808C19.0198 63.4808 19.8281 63.6387 20.5491 63.9524C21.2701 64.2662 21.8768 64.7191 22.3692 65.3071L20.8379 66.7221C20.1397 65.9159 19.2754 65.5149 18.2448 65.5149C17.6069 65.5149 17.0376 65.6541 16.5369 65.9346C16.0361 66.2151 15.6455 66.6058 15.365 67.1065C15.0845 67.6073 14.9453 68.1766 14.9453 68.8144C14.9453 69.4523 15.0845 70.0216 15.365 70.5224C15.6455 71.0231 16.0361 71.4138 16.5369 71.6943C17.0376 71.9748 17.6069 72.114 18.2448 72.114C19.2754 72.114 20.1397 71.7067 20.8379 70.8922L22.3692 72.3072C21.8788 72.9056 21.2701 73.3627 20.5428 73.6765C19.8156 73.9902 19.0053 74.1481 18.1118 74.1481C17.0605 74.1481 16.1109 73.9196 15.2611 73.4624Z" fill="white"/>
<path d="M25.8646 73.4624C25.0148 73.0053 24.3478 72.3716 23.8616 71.5613C23.3754 70.7509 23.1323 69.8346 23.1323 68.8144C23.1323 67.7943 23.3754 66.8779 23.8616 66.0676C24.3478 65.2573 25.0148 64.6236 25.8646 64.1664C26.7144 63.7093 27.6702 63.4808 28.7299 63.4808C29.6233 63.4808 30.4316 63.6387 31.1526 63.9524C31.8736 64.2662 32.4803 64.7191 32.9727 65.3071L31.4414 66.7221C30.7432 65.9159 29.8789 65.5149 28.8483 65.5149C28.2104 65.5149 27.6411 65.6541 27.1404 65.9346C26.6396 66.2151 26.249 66.6058 25.9685 67.1065C25.688 67.6073 25.5488 68.1766 25.5488 68.8144C25.5488 69.4523 25.688 70.0216 25.9685 70.5224C26.249 71.0231 26.6396 71.4138 27.1404 71.6943C27.6411 71.9748 28.2104 72.114 28.8483 72.114C29.8789 72.114 30.7432 71.7067 31.4414 70.8922L32.9727 72.3072C32.4824 72.9056 31.8736 73.3627 31.1463 73.6765C30.4191 73.9902 29.6088 74.1481 28.7153 74.1481C27.664 74.1481 26.7144 73.9196 25.8646 73.4624Z" fill="white"/>
<path d="M36.4878 73.455C35.6276 72.9937 34.9565 72.3579 34.4703 71.5476C33.9841 70.7372 33.741 69.8271 33.741 68.8153C33.741 67.8034 33.9841 66.8933 34.4703 66.083C34.9565 65.2726 35.6297 64.6368 36.4878 64.1756C37.3459 63.7143 38.3121 63.4837 39.3822 63.4837C40.4522 63.4837 41.4142 63.7143 42.2703 64.1756C43.1242 64.6368 43.7974 65.2726 44.2878 66.083C44.7782 66.8933 45.0233 67.8034 45.0233 68.8153C45.0233 69.8271 44.7782 70.7372 44.2878 71.5476C43.7974 72.3579 43.1242 72.9937 42.2703 73.455C41.4163 73.9162 40.4522 74.1469 39.3822 74.1469C38.3121 74.1469 37.3459 73.9162 36.4878 73.455ZM41.0319 71.6951C41.5223 71.4146 41.9087 71.024 42.1892 70.5232C42.4697 70.0225 42.6089 69.4531 42.6089 68.8153C42.6089 68.1774 42.4697 67.6081 42.1892 67.1073C41.9087 66.6066 41.5243 66.216 41.0319 65.9355C40.5416 65.655 39.9909 65.5157 39.3822 65.5157C38.7734 65.5157 38.2227 65.655 37.7324 65.9355C37.242 66.216 36.8556 66.6066 36.5751 67.1073C36.2946 67.6081 36.1554 68.1774 36.1554 68.8153C36.1554 69.4531 36.2946 70.0225 36.5751 70.5232C36.8556 71.024 37.24 71.4146 37.7324 71.6951C38.2248 71.9756 38.7734 72.1148 39.3822 72.1148C39.9909 72.1148 40.5416 71.9756 41.0319 71.6951Z" fill="white"/>
<path d="M53.4213 73.9705L51.4328 71.097H49.2387V73.9705H46.8513V63.6585H51.3144C52.2286 63.6585 53.0203 63.8102 53.6935 64.1156C54.3667 64.421 54.884 64.8511 55.2476 65.4121C55.6113 65.9711 55.792 66.6339 55.792 67.4006C55.792 68.1673 55.6071 68.828 55.2393 69.3828C54.8716 69.9375 54.348 70.3614 53.6706 70.6565L55.9832 73.9705H53.4192H53.4213ZM52.8166 66.0666C52.4426 65.757 51.8983 65.6033 51.1814 65.6033H49.2366V69.1979H51.1814C51.8983 69.1979 52.4426 69.0399 52.8166 68.7262C53.1886 68.4125 53.3756 67.9699 53.3756 67.4006C53.3756 66.8313 53.1886 66.3762 52.8166 66.0666Z" fill="white"/>
<path d="M61.2185 69.7859C60.9318 69.4991 60.7885 69.1438 60.7885 68.722C60.7885 68.3002 60.9318 67.9449 61.2185 67.6624C61.5053 67.3798 61.8523 67.2385 62.2595 67.2385C62.6668 67.2385 63.0138 67.3798 63.3005 67.6624C63.5872 67.9449 63.7306 68.2982 63.7306 68.722C63.7306 69.1459 63.5872 69.5012 63.3005 69.7859C63.0138 70.0726 62.6668 70.216 62.2595 70.216C61.8523 70.216 61.5053 70.0726 61.2185 69.7859Z" fill="white"/>
<path d="M69.2849 63.6587H71.6723V72.0259H76.8439V73.9707H69.287V63.6587H69.2849Z" fill="white"/>
<path d="M78.2131 63.6587H80.6005V73.9707H78.2131V63.6587Z" fill="white"/>
<path d="M92.9296 63.6587L88.4665 73.9707H86.1103L81.6617 63.6587H84.2403L87.3777 71.0244L90.5588 63.6587H92.9316H92.9296Z" fill="white"/>
<path d="M101.798 72.0567V73.9724H93.8126V63.6604H101.606V65.5761H96.1855V67.816H100.973V69.6714H96.1855V72.0588H101.798V72.0567Z" fill="white"/>
<path d="M107.925 63.6587H110.312V72.0259H115.484V73.9707H107.927V63.6587H107.925Z" fill="white"/>
<path d="M116.854 63.6587H119.242V73.9707H116.854V63.6587Z" fill="white"/>
<path d="M131.096 73.9707L131.082 67.7831L128.046 72.8799H126.97L123.948 67.9161V73.9707H121.709V63.6587H123.683L127.543 70.0666L131.343 63.6587H133.303L133.332 73.9707H131.092H131.096Z" fill="white"/>
<path d="M135.812 63.6587H138.199V73.9707H135.812V63.6587Z" fill="white"/>
<path d="M142.81 65.6035H139.51V63.6587H148.497V65.6035H145.197V73.9707H142.81V65.6035Z" fill="white"/>
<path d="M149.808 63.6587H152.195V72.0259H157.367V73.9707H149.81V63.6587H149.808Z" fill="white"/>
<path d="M166.719 72.0567V73.9724H158.734V63.6604H166.528V65.5761H161.107V67.816H165.894V69.6714H161.107V72.0588H166.719V72.0567Z" fill="white"/>
<path d="M169.67 73.8165C168.91 73.5963 168.297 73.3074 167.835 72.9542L168.646 71.1569C169.088 71.4811 169.614 71.7408 170.223 71.9382C170.832 72.1356 171.44 72.2332 172.049 72.2332C172.727 72.2332 173.227 72.1335 173.551 71.9319C173.876 71.7304 174.038 71.4624 174.038 71.1299C174.038 70.8847 173.942 70.6811 173.751 70.5191C173.56 70.357 173.315 70.2261 173.015 70.1284C172.716 70.0308 172.311 69.9227 171.8 69.8043C171.014 69.6173 170.37 69.4303 169.87 69.2454C169.369 69.0584 168.939 68.7592 168.581 68.3457C168.222 67.9322 168.043 67.3837 168.043 66.6959C168.043 66.0975 168.205 65.5531 168.529 65.069C168.854 64.5849 169.342 64.1984 169.994 63.9117C170.647 63.627 171.445 63.4837 172.388 63.4837C173.047 63.4837 173.689 63.5626 174.318 63.7185C174.946 63.8764 175.496 64.1008 175.968 64.3958L175.232 66.2077C174.281 65.6674 173.327 65.3973 172.375 65.3973C171.708 65.3973 171.214 65.5054 170.896 65.7215C170.576 65.9375 170.418 66.2222 170.418 66.5754C170.418 66.9286 170.603 67.1925 170.971 67.3629C171.339 67.5354 171.902 67.7037 172.658 67.872C173.443 68.059 174.088 68.246 174.588 68.4309C175.089 68.6179 175.519 68.9129 175.876 69.3139C176.234 69.717 176.415 70.2614 176.415 70.9492C176.415 71.5392 176.25 72.0753 175.92 72.5615C175.592 73.0477 175.097 73.4342 174.439 73.7188C173.78 74.0035 172.98 74.1469 172.037 74.1469C171.222 74.1469 170.433 74.0367 169.672 73.8165H169.67Z" fill="white"/>
<path d="M179.101 73.8165C178.34 73.5963 177.727 73.3074 177.266 72.9542L178.076 71.1569C178.519 71.4811 179.044 71.7408 179.653 71.9382C180.262 72.1356 180.871 72.2332 181.48 72.2332C182.157 72.2332 182.658 72.1335 182.982 71.9319C183.306 71.7304 183.468 71.4624 183.468 71.1299C183.468 70.8847 183.372 70.6811 183.181 70.5191C182.99 70.357 182.745 70.2261 182.446 70.1284C182.147 70.0308 181.741 69.9227 181.23 69.8043C180.445 69.6173 179.801 69.4303 179.3 69.2454C178.799 69.0584 178.369 68.7592 178.012 68.3457C177.652 67.9322 177.474 67.3837 177.474 66.6959C177.474 66.0975 177.636 65.5531 177.96 65.069C178.284 64.5849 178.772 64.1984 179.425 63.9117C180.077 63.627 180.875 63.4837 181.818 63.4837C182.477 63.4837 183.119 63.5626 183.749 63.7185C184.376 63.8764 184.927 64.1008 185.398 64.3958L184.663 66.2077C183.711 65.6674 182.757 65.3973 181.806 65.3973C181.139 65.3973 180.644 65.5054 180.326 65.7215C180.006 65.9375 179.849 66.2222 179.849 66.5754C179.849 66.9286 180.033 67.1925 180.401 67.3629C180.769 67.5354 181.332 67.7037 182.088 67.872C182.874 68.059 183.518 68.246 184.019 68.4309C184.519 68.6179 184.95 68.9129 185.307 69.3139C185.664 69.717 185.845 70.2614 185.845 70.9492C185.845 71.5392 185.681 72.0753 185.351 72.5615C185.022 73.0477 184.528 73.4342 183.869 73.7188C183.21 74.0035 182.41 74.1469 181.467 74.1469C180.653 74.1469 179.863 74.0367 179.103 73.8165H179.101Z" fill="white"/>
</g>
<defs>
<clipPath id="clip0_0_165">
<rect width="185.187" height="73.5141" fill="white" transform="translate(0.654175 0.632812)"/>
</clipPath>
</defs>
</svg>
