<?xml version="1.0" encoding="UTF-8"?>
<svg xmlns="http://www.w3.org/2000/svg" width="77" height="32" viewBox="0 0 77 32" fill="none">
  <g clip-path="url(#clip0_1_2)">
    <g clip-path="url(#clip1_1_2)">
      <path d="M61.403 19.729C56.711 19.729 55.856 16.982 55.856 16.301H59.254C59.254 16.701 59.789 17.18 60.24 17.375C60.6147 17.5204 61.0156 17.5858 61.417 17.567H61.411C62.368 17.567 63.153 17.332 63.153 16.769C63.153 16.083 62.349 15.931 61.463 15.803C59.05 15.45 55.669 15.04 55.669 12.305C55.669 9.754 58.418 8.45601 61.336 8.45601C66.008 8.45601 67.246 11.079 67.246 11.838H63.793C63.7726 11.6454 63.7037 11.4612 63.5928 11.3024C63.482 11.1436 63.3327 11.0155 63.159 10.93L63.152 10.927C62.732 10.7109 62.2673 10.5962 61.795 10.592H61.793C60.503 10.592 59.777 10.864 59.777 11.463C59.777 11.952 60.431 12.195 61.371 12.358C63.824 12.785 67.59 12.933 67.59 15.957C67.59 17.493 66.277 19.727 61.404 19.727L61.403 19.729ZM55.639 10.054L54.316 11.512H53.766L54.372 9.922H53.16V7.802H55.639V10.054ZM47.949 8.71101H52.34V19.424H47.949V8.71101ZM42.223 19.445H38.386L32.657 8.731H37.827L41.115 15.243L41.205 15.439L41.287 15.243L44.361 8.731H47.465L42.223 19.445ZM33.98 14.994H25.094C25.105 15.3352 25.185 15.6706 25.3291 15.98C25.4733 16.2894 25.6785 16.5665 25.9326 16.7945C26.1866 17.0225 26.4842 17.1967 26.8074 17.3066C27.1306 17.4165 27.4726 17.4598 27.813 17.434L27.804 17.435C28.2591 17.4579 28.7127 17.3659 29.1229 17.1673C29.533 16.9688 29.8866 16.6702 30.151 16.299L30.157 16.291H33.7C32.542 18.988 30.295 19.754 27.233 19.754C23.25 19.754 20.434 17.569 20.434 14.107C20.434 10.41 23.208 8.459 27.233 8.459C31.736 8.459 33.994 11.416 33.994 14.262C34.0056 14.5131 33.9999 14.7647 33.977 15.015L33.98 14.994ZM20.359 19.428H10.232V8.74H14.785V16.52H20.359V19.428ZM72.236 5.00493e-06C72.268 0.067005 72.304 0.132005 72.334 0.201005C72.602 0.808005 72.758 1.51701 72.758 2.26201V2.307V2.30501V2.359C72.758 3.113 72.602 3.83 72.321 4.48L72.334 4.445C72.0632 5.079 71.6751 5.65612 71.19 6.146C70.7188 6.61955 70.1597 6.9966 69.544 7.256L69.51 7.269C68.8718 7.53566 68.1867 7.672 67.495 7.67H67.46H67.462H67.433C66.703 7.67 66.007 7.523 65.374 7.256L65.409 7.269C64.7761 7.00886 64.2003 6.62736 63.714 6.146C63.2342 5.66688 62.8488 5.1017 62.578 4.48L62.565 4.445C62.2825 3.78597 62.1378 3.07606 62.14 2.359V2.30201V2.30501V2.26201C62.14 1.51701 62.296 0.809005 62.578 0.168005L62.565 0.201005C62.595 0.132005 62.631 0.067005 62.664 5.00493e-06H0.00100708L7.41001 32C22.965 21.864 37.914 31.605 38.516 31.976H38.518L38.522 31.973H38.53L38.534 31.975L38.537 31.976C39.137 31.604 54.088 21.864 69.642 32L77.05 5.00493e-06H72.236ZM27.148 10.699H27.131C26.5878 10.699 26.0669 10.9148 25.6829 11.2989C25.2988 11.6829 25.083 12.2038 25.083 12.747L25.085 12.847V12.842H29.386C29.4048 12.5465 29.3586 12.2504 29.2507 11.9747C29.1428 11.6989 28.9758 11.4502 28.7614 11.2459C28.547 11.0416 28.2905 10.8868 28.0099 10.7923C27.7292 10.6978 27.4313 10.666 27.137 10.699L27.146 10.698L27.148 10.699ZM64.35 5.581C64.7461 5.99718 65.2227 6.32845 65.7508 6.55469C66.2789 6.78092 66.8475 6.89739 67.422 6.897H67.464H67.462H67.499C68.104 6.897 68.679 6.768 69.198 6.536L69.172 6.547C69.6895 6.31914 70.1571 5.99157 70.548 5.583L70.55 5.581C70.935 5.174 71.245 4.692 71.457 4.16L71.468 4.13C71.678 3.603 71.8 2.99101 71.8 2.35201V2.303V2.30501V2.26901C71.8007 1.65779 71.6839 1.05214 71.456 0.485005L71.467 0.517005C71.3919 0.331662 71.3051 0.151297 71.207 -0.022995L71.219 5.00493e-06H69.717C69.864 0.266005 69.95 0.584005 69.95 0.922005L69.949 0.992005V0.989005C69.9692 1.2168 69.9378 1.44621 69.8571 1.66019C69.7764 1.87418 69.6486 2.06723 69.483 2.225L69.482 2.22601C69.167 2.48601 68.768 2.656 68.332 2.691H68.325L70.09 5.452H69.059L67.38 2.76301H66.363V5.452H65.404V5.00493e-06H63.681C63.601 0.140005 63.518 0.310005 63.445 0.485005L63.433 0.516005C63.2117 1.07282 63.099 1.66684 63.101 2.26601V2.30501V2.303V2.35101C63.101 2.99001 63.223 3.601 63.445 4.161L63.433 4.128C63.655 4.691 63.965 5.173 64.352 5.582L64.35 5.581ZM67.979 1.95401C68.168 1.94301 68.343 1.90001 68.504 1.82901L68.494 1.833C68.6407 1.7691 68.7652 1.66335 68.852 1.52901L68.854 1.52601C68.94 1.37601 68.99 1.19701 68.99 1.00601L68.988 0.944005V0.947005L68.989 0.904005C68.989 0.741597 68.9466 0.582003 68.866 0.441005L68.868 0.446005C68.7917 0.326628 68.686 0.228842 68.561 0.162005L68.557 0.160005C68.4222 0.0905874 68.2764 0.0452395 68.126 0.026005L68.119 0.025005C68.049 0.0145953 67.9786 0.00659057 67.908 0.00100501H66.362V1.976H67.364C67.5807 1.976 67.7853 1.96901 67.978 1.95501L67.979 1.95401Z" fill="white"></path>
    </g>
  </g>
  <defs>
    <clipPath id="clip0_1_2">
      <rect width="77" height="32" fill="white"></rect>
    </clipPath>
    <clipPath id="clip1_1_2">
      <rect width="77" height="32" fill="white"></rect>
    </clipPath>
  </defs>
</svg>
