<svg width="165" height="91" viewBox="0 0 165 91" fill="none" xmlns="http://www.w3.org/2000/svg">
<path d="M0.799988 16.5H5.79999L10.6 34.9H10.7L16.4 16.5H20.9L26.5 34.9H26.6L31.6 16.5H36.2L28.8 42H24.5L18.6 22.6H18.5L12.6 42H8.29999L0.799988 16.5Z" fill="white"/>
<path d="M68 16.5H76.9C78.1 16.5 79.3 16.6 80.5 16.8C81.7 17 82.7 17.4 83.5 18C84.4 18.6 85.1 19.3 85.6 20.2C86.1 21.1 86.4 22.3 86.4 23.8C86.4 25.7 85.9 27.2 84.9 28.5C83.9 29.8 82.4 30.5 80.5 30.8L87.3 42.1H81.8L75.9 31.3H72.6V42.1H68V16.5ZM76.1 27.3C76.7 27.3 77.4 27.3 78 27.2C78.6 27.1 79.2 27 79.8 26.8C80.3 26.6 80.8 26.2 81.1 25.8C81.4 25.3 81.6 24.7 81.6 23.8C81.6 23.1 81.4 22.5 81.1 22C80.8 21.5 80.4 21.2 79.9 21C79.4 20.8 78.8 20.6 78.2 20.5C77.6 20.4 77 20.4 76.4 20.4H72.5V27.3H76.1V27.3Z" fill="white"/>
<path d="M90.6 16.5H95.1V37.9H106V42H90.6V16.5Z" fill="white"/>
<path d="M108.9 16.5H119C120.7 16.5 122.3 16.8 123.9 17.3C125.5 17.8 126.8 18.6 128 19.7C129.2 20.8 130.2 22.1 130.9 23.7C131.6 25.3 132 27.2 132 29.3C132 31.5 131.6 33.4 130.8 35C130 36.6 128.9 37.9 127.6 39C126.3 40 124.8 40.8 123.2 41.3C121.6 41.8 120 42.1 118.5 42.1H109V16.5H108.9ZM116.8 37.9C118.2 37.9 119.6 37.7 120.8 37.4C122.1 37.1 123.2 36.6 124.1 35.9C125 35.2 125.8 34.3 126.3 33.2C126.8 32.1 127.1 30.8 127.1 29.2C127.1 27.7 126.9 26.3 126.4 25.2C125.9 24.1 125.3 23.2 124.4 22.5C123.5 21.8 122.5 21.3 121.4 21C120.2 20.7 119 20.5 117.6 20.5H113.5V37.8H116.8V37.9Z" fill="white"/>
<path d="M46.8 50.5H56.8C57.8 50.5 58.7 50.6 59.6 50.8C60.5 51 61.4 51.4 62.1 51.9C62.8 52.4 63.4 53.1 63.9 53.9C64.4 54.7 64.6 55.7 64.6 56.9C64.6 58.3 64.2 59.5 63.4 60.5C62.6 61.4 61.5 62.1 60.2 62.5V62.6C61 62.7 61.7 62.9 62.4 63.3C63.1 63.6 63.7 64.1 64.2 64.6C64.7 65.1 65.1 65.8 65.3 66.5C65.6 67.2 65.7 68 65.7 68.8C65.7 70.2 65.4 71.4 64.9 72.3C64.3 73.2 63.6 74 62.7 74.5C61.8 75 60.8 75.5 59.6 75.7C58.4 75.9 57.2 76 56 76H46.8V50.5ZM51.3 60.9H55.4C56.9 60.9 58.1 60.6 58.8 60C59.6 59.4 59.9 58.6 59.9 57.7C59.9 56.6 59.5 55.8 58.7 55.2C57.9 54.7 56.7 54.4 54.9 54.4H51.1V60.9H51.3ZM51.3 72.1H55.5C56.1 72.1 56.7 72.1 57.4 72C58.1 71.9 58.7 71.8 59.2 71.5C59.8 71.2 60.2 70.9 60.6 70.4C61 69.9 61.1 69.2 61.1 68.4C61.1 67.1 60.7 66.1 59.8 65.6C58.9 65.1 57.6 64.8 55.7 64.8H51.3V72.1Z" fill="white"/>
<path d="M69.9 50.5H86.8V54.6H74.4V60.9H86.1V65H74.4V71.9H87.4V76H69.9V50.5Z" fill="white"/>
<path d="M104.3 56C103.8 55.3 103.2 54.8 102.4 54.5C101.6 54.2 100.7 54 99.9 54C99.4 54 98.9 54.1 98.4 54.2C97.9 54.3 97.5 54.5 97.1 54.8C96.7 55.1 96.4 55.4 96.1 55.8C95.9 56.2 95.7 56.7 95.7 57.3C95.7 58.2 96 58.8 96.6 59.3C97.2 59.8 97.9 60.2 98.8 60.5C99.7 60.8 100.7 61.2 101.7 61.5C102.8 61.8 103.7 62.2 104.6 62.8C105.5 63.4 106.2 64.1 106.8 65C107.4 65.9 107.7 67.1 107.7 68.6C107.7 70 107.4 71.2 106.9 72.2C106.4 73.2 105.7 74.1 104.9 74.7C104 75.4 103.1 75.9 101.9 76.2C100.8 76.5 99.6 76.7 98.3 76.7C96.7 76.7 95.2 76.4 93.7 75.9C92.2 75.4 91 74.5 89.9 73.2L93.3 69.9C93.9 70.7 94.6 71.4 95.5 71.9C96.4 72.4 97.4 72.6 98.4 72.6C98.9 72.6 99.5 72.5 100 72.4C100.5 72.3 101 72 101.4 71.8C101.8 71.5 102.2 71.1 102.4 70.7C102.7 70.3 102.8 69.7 102.8 69.2C102.8 68.3 102.5 67.5 101.9 67C101.3 66.5 100.6 66.1 99.7 65.7C98.8 65.4 97.8 65 96.8 64.7C95.7 64.4 94.8 64 93.9 63.4C93 62.9 92.3 62.1 91.7 61.2C91.1 60.3 90.8 59.1 90.8 57.6C90.8 56.3 91.1 55.1 91.6 54.2C92.1 53.2 92.8 52.4 93.7 51.8C94.6 51.2 95.6 50.7 96.7 50.4C97.8 50.1 99 49.9 100.2 49.9C101.5 49.9 102.9 50.1 104.1 50.5C105.4 50.9 106.5 51.6 107.5 52.5L104.3 56Z" fill="white"/>
<path d="M112 50.5H116.5V76H112V50.5Z" fill="white"/>
<path d="M127.1 54.6H119.3V50.5H139.5V54.6H131.7V76H127.2V54.6H127.1Z" fill="white"/>
<path d="M150.2 65.1L140.6 50.5H146.3L152.6 60.7L158.9 50.5H164.3L154.7 65.1V76H150.2V65.1V65.1Z" fill="white"/>
<path d="M39.8 54.4L37 58.8C37.1 59 37.2 59.3 37.3 59.5C37.7 60.6 37.9 61.8 37.9 63.1C37.9 64.5 37.7 65.7 37.3 66.9C36.9 68.1 36.3 69.1 35.5 69.9C34.7 70.7 33.8 71.4 32.7 71.9C31.6 72.4 30.4 72.6 29.1 72.6C28.8 72.6 28.6 72.6 28.3 72.6L26 76.4C27 76.6 28 76.7 29.1 76.7C31.1 76.7 32.9 76.3 34.6 75.7C36.3 75 37.7 74.1 38.9 72.9C40.1 71.7 41 70.3 41.7 68.7C42.4 67.1 42.7 65.2 42.7 63.3C42.7 61.3 42.4 59.4 41.7 57.7C41.2 56.5 40.6 55.4 39.8 54.4Z" fill="white"/>
<path d="M18.4 71.9L21.2 67.4C21.1 67.2 21.1 67.1 21 66.9C20.6 65.7 20.4 64.5 20.4 63.1C20.4 61.8 20.6 60.6 21 59.5C21.4 58.4 22 57.4 22.8 56.6C23.6 55.8 24.5 55.1 25.6 54.7C26.7 54.2 27.9 54 29.2 54C29.4 54 29.5 54 29.7 54L32.2 50.1C31.3 49.9 30.3 49.9 29.2 49.9C27.2 49.9 25.4 50.2 23.8 50.9C22.2 51.6 20.7 52.4 19.5 53.6C18.3 54.8 17.4 56.2 16.7 57.9C16 59.6 15.7 61.4 15.7 63.5C15.7 65.5 16 67.3 16.7 68.9C17.1 70 17.7 71 18.4 71.9Z" fill="white"/>
<path d="M61.2 20.4L58.5 24.8C58.6 25 58.7 25.3 58.8 25.5C59.2 26.6 59.4 27.8 59.4 29.1C59.4 30.5 59.2 31.7 58.8 32.9C58.4 34.1 57.8 35.1 57 35.9C56.2 36.7 55.3 37.4 54.2 37.9C53.1 38.4 51.9 38.6 50.6 38.6C50.3 38.6 50.1 38.6 49.8 38.6L47.4 42.5C48.4 42.7 49.4 42.8 50.5 42.8C52.5 42.8 54.3 42.4 56 41.7C57.7 41 59.1 40.1 60.3 38.9C61.5 37.7 62.4 36.3 63.1 34.7C63.8 33.1 64.1 31.2 64.1 29.2C64.1 27.2 63.7 25.3 63.1 23.7C62.6 22.4 61.9 21.3 61.2 20.4Z" fill="white"/>
<path d="M39.9 37.9L42.7 33.4C42.6 33.2 42.6 33.1 42.5 32.9C42.1 31.7 41.9 30.5 41.8 29.1C41.8 27.8 42 26.6 42.4 25.5C42.8 24.4 43.4 23.4 44.2 22.6C45 21.8 45.9 21.1 46.9 20.6C48 20.1 49.2 19.9 50.5 19.9C50.7 19.9 50.8 19.9 51 19.9L53.4 16C52.5 15.8 51.5 15.8 50.4 15.8C48.4 15.8 46.6 16.1 45 16.8C43.4 17.4 41.9 18.4 40.8 19.5C39.6 20.7 38.7 22.1 38 23.8C37.3 25.5 37 27.3 37 29.4C37 31.4 37.4 33.2 38 34.8C38.5 36 39.1 37 39.9 37.9Z" fill="white"/>
<path d="M64.9 2L55.7 16.7L53.4 20.4L48.5 28.3L53.6 28.2L57 22.7L59.5 18.8L69.9 2H64.9Z" fill="white"/>
<path d="M14.4 90.6L23.7 75.7L26.1 72L52.3 30.3H47.2L22.6 69.5L20.1 73.5L9.29999 90.6H14.4Z" fill="white"/>
</svg>
