<svg width="351" height="39" viewBox="0 0 351 39" fill="none" xmlns="http://www.w3.org/2000/svg">
<g clip-path="url(#clip0_3_2)">
<g clip-path="url(#clip1_3_2)">
<path d="M20.6 37.7L14.6 25.6L9.5 25.5V37.6H0V0.899994H18.4C26.6 0.899994 31.2 6.29999 31.2 13.2C31.2 19.5 27.9 23.2 24.1 24.7L31.3 37.7H20.6ZM21.7 13.2C21.7 10.7 19.6 9.09999 17.1 9.09999H9.6V17.4H17.1C19.9 17.4 21.7 15.8 21.7 13.2V13.2Z" fill="white"/>
<path d="M61.6 37.7L59.2 30.5L45.8 30.4L43.5 37.6H32.7L46.6 0.799988H58.5L72.4 37.6L61.6 37.7V37.7ZM52.5 10.2L48.4 22.3H56.6L52.5 10.2V10.2Z" fill="white"/>
<path d="M108.1 37.7V0.899994H117.6V37.7H108.1Z" fill="white"/>
<path d="M148.2 37.7L132.6 16.4V37.7H123.1V0.899994H132.9L147.8 21.2V0.899994H157.3V37.7H148.2V37.7Z" fill="white"/>
<path d="M161.2 19.2C161 7.50001 170.3 0.100006 180.9 0.100006C187.7 0.100006 192.1 2.50001 195.6 6.30001L189.3 12.2C186.5 9.20001 184.9 8.70001 181.3 8.60001C175.9 8.40001 171 13.2 171 19C171 25 175.4 29.6 181.2 29.6C184.2 29.6 186 28.8 187.7 27.5V24.7H182.2V16.3H197.2V29.9C192.9 35.7 187.4 38 181.2 38.1C171.9 38.2 161.4 32 161.2 19.2V19.2Z" fill="white"/>
<path d="M214.9 37.7V0.899994H233.3C241.6 0.899994 246.1 6.69999 246.1 13.4C246.1 20 241.6 25.6 233.3 25.6H224.4V37.7H214.9ZM236.5 13.3C236.5 10.8 234.6 9.09999 232.1 9.09999H224.4V17.5H232.1C234.6 17.5 236.5 15.8 236.5 13.3V13.3Z" fill="white"/>
<path d="M330.3 37.7V9.09999H320V0.799988H350.1V9.09999H339.8V37.6L330.3 37.7Z" fill="white"/>
<path d="M267.6 0.200012C257.1 0.200012 248.6 8.70001 248.6 19.2C248.6 29.7 257.1 38.2 267.6 38.2C278.1 38.2 286.6 29.7 286.6 19.2C286.6 8.70001 278.1 0.200012 267.6 0.200012V0.200012ZM267.6 29.3C265 29.3 262.7 28.4 260.9 26.8C258.8 24.9 257.4 22.2 257.4 19.2C257.4 13.8 261.7 9.30001 267 9.10001H267.5C268.1 9.10001 268.6 9.10001 269.2 9.20001C269.5 9.30001 269.9 9.30001 270.2 9.40001C270.6 9.50001 270.9 9.60001 271.3 9.80001C271.4 9.80001 271.4 9.80001 271.5 9.90001C275.1 11.4 277.7 15 277.7 19.3C277.8 24.8 273.2 29.3 267.6 29.3V29.3Z" fill="white"/>
<path d="M104.8 31.9C102.9 30.1 98.6 26 98.6 26C96.8 28.2 94 29.7 90.5 29.7C84.5 29.7 80.2 24.3 80.2 19C80.2 12.4 85.8 8.09999 91.1 8.49999C94.7 8.79999 96.8 10.2 98.5 12.1C98.5 12.1 104.7 6.19999 104.8 6.09999C103.4 4.69999 99.4 -7.34505e-06 90.7 -7.34505e-06C79.1 -0.100007 70.4 7.79999 70.4 18.8C70.4 30.2 79.4 38.1 90.4 38.1C98.4 38.1 102.4 34.5 104.8 31.9V31.9Z" fill="white"/>
<path d="M287.7 31.9L294 26C297.1 28.8 300.7 30 304.8 30C308.1 30 309.9 28.8 309.9 27C309.9 22 289 26.1 289 12C289 5.80001 294.3 0.100006 303.7 0.100006C311.4 0.100006 316.2 3.80001 316.8 4.10001L310.4 10.1C308 8.90001 305.4 8.30001 302.7 8.30001C299.9 8.30001 298.8 9.40001 298.8 11C298.8 15.6 319.6 11.9 319.6 25.9C319.6 33.3 313.8 38.1 304.2 38.1C296.9 38.1 291.7 35.5 287.7 31.9V31.9Z" fill="white"/>
</g>
</g>
<defs>
<clipPath id="clip0_3_2">
<rect width="350.1" height="38.2" fill="white"/>
</clipPath>
<clipPath id="clip1_3_2">
<rect width="350.1" height="38.2" fill="white"/>
</clipPath>
</defs>
</svg>
