<?xml version="1.0" encoding="UTF-8"?>
<svg xmlns="http://www.w3.org/2000/svg" width="184" height="30" viewBox="0 0 184 30" fill="none">
  <path d="M54.8397 6.31514C54.4723 5.90056 53.8531 5.50725 53.1079 5.50725C50.7149 5.50725 49.9277 7.6758 49.9277 9.7168C49.9277 11.6196 50.7464 13.5011 53.0029 13.5011C53.6222 13.5011 54.3464 13.1397 54.5773 12.7464V13.4055C54.5773 14.5854 54.4828 15.1488 52.9714 15.1488C52.2472 15.1488 51.3971 14.8831 50.6519 14.4898L50.1586 15.9036C51.1347 16.3926 52.0583 16.6902 53.0764 16.6902C53.8636 16.6902 54.9761 16.5626 55.6898 15.9355C56.4455 15.3083 56.477 14.1921 56.477 13.1078L56.4875 5.48598L54.9866 5.73048C54.9866 5.70922 54.8711 6.14506 54.8397 6.31514ZM54.5773 10.3015C54.5773 10.6629 54.5458 11.0243 54.4093 11.322C54.2414 11.6834 53.916 11.9172 53.4962 11.9172C52.2892 11.9172 52.1528 11.0668 52.1528 9.45104C52.1528 8.00534 52.4152 7.15492 53.4647 7.15492C53.9895 7.15492 54.3778 7.42068 54.5773 7.64391V10.3015Z" fill="white"></path>
  <path d="M47.4297 24.9286L47.4402 22.3029C47.4402 21.495 47.4087 21.2505 47.3038 20.921C47.0099 20.0706 46.1283 19.571 44.8163 19.571C44.0921 19.571 43.4414 19.6985 42.6857 20.0281C42.2659 20.2088 41.8566 20.4427 41.4682 20.6765L42.2134 22.0159C43.137 21.4313 43.8612 21.1974 44.512 21.1974C45.2676 21.1974 45.4461 21.5376 45.4461 22.388V22.6856H44.9738C42.5178 22.6856 41.2793 23.536 41.2793 25.3432C41.2793 26.7464 42.035 27.618 43.4834 27.7562H44.302C44.7638 27.7031 45.1522 27.5542 45.4671 27.3523C45.635 27.2566 45.7924 27.0865 45.9603 26.9164C46.1283 27.246 46.4431 27.5542 46.8 27.7562L47.0414 27.8732L47.1464 27.7562L48.1854 26.6294C47.5032 26.1085 47.4297 25.7259 47.4297 24.9286ZM44.3335 26.3105C43.8087 26.3105 43.4519 25.8853 43.4519 25.29C43.4519 24.3652 43.9137 24.025 45.3201 24.025H45.4356V25.8322C45.1312 26.1617 44.7219 26.3105 44.3335 26.3105Z" fill="white"></path>
  <path d="M10.3067 2.87096H2.1516V11.0668L6.25539 15.202L14.421 7.0061L10.3067 2.87096Z" fill="white"></path>
  <path d="M2.1516 19.3371V27.5436H10.3067L14.421 23.4085L6.25539 15.202L2.1516 19.3371Z" fill="white"></path>
  <path d="M18.5248 27.5436H26.6379V19.2733L22.5866 15.202L14.421 23.4085L18.5248 27.5436Z" fill="white"></path>
  <path d="M14.421 7.0061L22.5866 15.202L26.6379 11.1306V2.87096H18.5248L14.421 7.0061Z" fill="white"></path>
  <path d="M69.8064 12.0129C69.4496 12.1086 69.2816 12.183 69.0927 12.183C68.4 12.183 68.2111 11.9172 68.2111 10.9286V7.04862H69.4811L70.0058 5.63481H68.2111V3.49814L66.2169 3.82767V5.63481H65.4297V7.04862H66.2169V11.2582C66.2169 11.981 66.2169 12.1086 66.3429 12.4488C66.5738 13.1397 67.3924 13.5968 68.4 13.5968C68.9248 13.5968 69.4811 13.4693 70.0688 13.2354L69.8064 12.0129Z" fill="white"></path>
  <path d="M32.6939 7.89903L35.8531 13.3948H38.519L34.898 7.73958L38.1621 2.87096H35.6746L32.6939 7.6758V2.87096H30.5738V13.3948H32.6939V7.89903Z" fill="white"></path>
  <path d="M42.4863 7.20807C43.0426 7.20807 43.2 7.5695 43.2 8.4518V13.3842H45.1627V7.73958C45.1627 7.23996 45.1312 6.92106 45.0367 6.62341C44.8058 5.96434 44.0187 5.50724 43.1685 5.50724C42.7067 5.50724 42.1924 5.60291 41.7936 5.83678C41.4682 6.00686 41.1429 6.26198 40.912 6.55963L40.786 5.5285L39.0857 5.80489V13.3948H41.1114V8.82386C41.1114 8.26046 41.2793 7.86714 41.5417 7.61202C41.8356 7.34626 42.1609 7.20807 42.4863 7.20807Z" fill="white"></path>
  <path d="M46.695 13.3948H48.7312V5.47535L46.695 5.79426V13.3948Z" fill="white"></path>
  <path d="M62.1866 5.44346C61.305 5.44346 60.5493 5.773 59.993 6.38955C59.993 6.29387 60.0245 5.82615 60.0245 5.60291V2.67961L57.9673 3.01978V13.4055H60.0245V9.1215C60.0245 8.39865 60.119 7.98407 60.3499 7.70769C60.6542 7.34626 61.1685 7.14429 61.6303 7.14429C62.2181 7.14429 62.4175 7.47383 62.4175 8.19668V13.3948H64.3802V7.97344C64.3802 7.2187 64.3487 6.98484 64.1808 6.55963C63.9499 5.86867 63.1732 5.44346 62.1866 5.44346Z" fill="white"></path>
  <path d="M47.7236 2.24377C47.0309 2.24377 46.4746 2.80717 46.4746 3.50877C46.4746 4.21036 47.0309 4.77376 47.7236 4.77376C48.4163 4.77376 48.9726 4.21036 48.9726 3.50877C48.9726 2.8178 48.4163 2.24377 47.7236 2.24377Z" fill="white"></path>
  <path d="M30.5528 27.4905H32.6099V22.8238H35.2968V21.123H32.6099V18.6568H35.9475L36.2099 16.9772H30.5528V27.4905Z" fill="white"></path>
  <path d="M38.3405 20.7509L38.1411 19.6985L36.5038 19.9643V27.4905H38.5294V22.6856C38.5294 22.2923 38.5924 21.9628 38.8233 21.7076C39.0227 21.495 39.3481 21.3462 39.7154 21.3462C39.9464 21.3462 40.2087 21.41 40.4082 21.5057L40.9224 19.6985C40.5971 19.571 40.4606 19.5391 40.1668 19.5391C39.4111 19.5391 38.6659 20.23 38.3405 20.7509Z" fill="white"></path>
  <path d="M56.7289 17.1792V27.4905H58.7545V23.0896V16.8497L56.7289 17.1792Z" fill="white"></path>
  <path d="M63.2047 19.7304H60.7487L58.7545 23.0896L61.3889 27.4905H63.7609L60.7172 22.9939L63.2047 19.7304Z" fill="white"></path>
  <path d="M53.2023 19.6029C52.7405 19.6029 52.2157 19.6985 51.8274 19.9324C51.502 20.1025 51.1767 20.3576 50.9458 20.6553L50.8198 19.6241L49.1195 19.9005V27.4905H51.1452V22.9195C51.1452 22.3561 51.3131 21.9628 51.5755 21.697C51.8694 21.4313 52.1948 21.3037 52.5201 21.3037C53.0764 21.3037 53.2443 21.6651 53.2443 22.5581V27.4905H55.207V21.8352C55.207 21.3462 55.1755 21.0167 55.0811 20.719C54.8397 20.0706 54.0525 19.6029 53.2023 19.6029Z" fill="white"></path>
  <g clip-path="url(#clip0_1_27)">
    <path d="M128.967 20.4374H121.21V16.7069H129.151C130.149 16.7992 130.897 17.6026 130.897 18.5536C130.906 19.5878 130.056 20.4374 128.967 20.4374ZM121.22 8.23948H129.447C130.343 8.37799 131.054 9.13516 131.054 10.0401C131.054 10.945 130.343 11.7853 129.401 11.8868H121.312L121.22 8.23948ZM132.753 14.1491C135.735 13.2073 136.252 10.8434 136.252 8.90431C136.252 5.92178 134.073 3.37325 127.6 3.37325H115.495V25.5898H127.554C134.082 25.5898 136.492 22.3765 136.492 19.2092C136.483 15.3772 132.753 14.1491 132.753 14.1491L132.753 14.1491Z" fill="white"></path>
    <path d="M163.575 3.41942H184V8.23947H169.254V11.8314H182.541V16.6977H169.254V20.5759H184V25.6822H163.575V3.41942Z" fill="white"></path>
    <path d="M154.784 10.3171C154.692 11.0281 153.935 11.8314 152.938 11.8314H144.95V8.28565H152.938C153.88 8.28565 154.637 8.95049 154.784 9.84617V10.3171ZM151.663 3.41942H139.327V25.6914H144.997V16.7069H151.239C153.039 16.7531 154.406 18.1289 154.406 19.8741V25.6914H159.983V18.5075C159.983 15.2018 156.622 14.2045 156.622 14.2045C156.622 14.2045 160.075 13.2073 160.075 9.29211C160.029 4.40743 155.726 3.41942 151.663 3.41942Z" fill="white"></path>
    <path d="M111.81 20.2896C111.718 20.2896 104.054 20.4281 101.413 20.1973C97.1562 19.8187 95.6419 16.79 95.6419 14.3338C95.6419 11.2589 97.8211 8.98741 101.219 8.56266C102.826 8.37798 111.672 8.47032 111.764 8.47032H111.949V3.41942H101.736C100.6 3.46559 98.7537 3.6041 96.87 4.3151C95.1248 5.11845 93.5089 6.34654 92.3269 7.8609C90.8588 9.8 90.0554 12.0715 90.0554 14.4815C90.0554 15.2387 90.1016 15.9959 90.2401 16.7069C90.9511 20.068 93.2688 22.8566 96.5745 24.3617C97.7102 24.8327 99.4093 25.4052 102.909 25.5898L104.802 25.636H111.986V20.2896L111.81 20.2896Z" fill="white"></path>
  </g>
  <line x1="81.5" y1="2" x2="81.5" y2="27" stroke="white"></line>
  <defs>
    <clipPath id="clip0_1_27">
      <rect width="94" height="25" fill="white" transform="translate(90 2)"></rect>
    </clipPath>
  </defs>
</svg>
