<svg width="155" height="26" viewBox="0 0 155 26" fill="none" xmlns="http://www.w3.org/2000/svg">
<g clip-path="url(#clip0_4_2)">
<path d="M0 22.2395V24.9751L0.0629896 25.0291H2.79854L0 22.2395Z" fill="white"/>
<path d="M0 14.9958V17.7314L7.29779 25.0293H10.0333L0 14.9958Z" fill="white"/>
<path d="M0 7.76123V10.4968L14.5326 25.0295H17.2681L0 7.76123Z" fill="white"/>
<path d="M0.0012207 3.26155L21.7776 25.0291H24.4772L0.0012207 0.552979V3.26155Z" fill="white"/>
<path d="M24.3769 0.985107L14.6675 10.6946L15.1714 11.2075L24.3769 2.00195V0.985107Z" fill="white"/>
<path d="M24.3768 6.68167V5.54785L16.917 13.0077L17.4749 13.5836L24.3768 6.68167Z" fill="white"/>
<path d="M24.3773 11.3599V10.2261L19.2212 15.3823L19.7791 15.9492L24.3773 11.3599Z" fill="white"/>
<path d="M24.3769 16.0398V14.906L21.5244 17.7496L22.0823 18.3255L24.3769 16.0398Z" fill="white"/>
<path d="M24.3773 19.5854L23.8284 20.1254L24.3773 20.6833V19.5854Z" fill="white"/>
<path d="M44.768 14.0515L41.5555 5.54785H37.9651V20.7734H41.3215V13.2956L43.5622 19.4417H45.9738L48.2144 13.2956V20.7734H51.5708V5.54785H47.9804L44.768 14.0515Z" fill="white"/>
<path d="M65.5548 5.37619C64.3053 5.3525 63.0691 5.63683 61.9554 6.20406C59.6788 7.35588 58.356 9.95647 58.356 13.16C58.3199 14.6652 58.6765 16.1539 59.3908 17.4793C59.9916 18.5828 60.893 19.4932 61.9905 20.1048C63.0879 20.7165 64.3364 21.0042 65.5908 20.9347C66.8377 20.9624 68.0727 20.6876 69.1902 20.1339C71.4668 18.9371 72.7896 16.3275 72.7896 13.16C72.8305 11.6564 72.4801 10.1681 71.7728 8.84065C71.1754 7.72971 70.2723 6.81308 69.1704 6.19914C68.0685 5.58521 66.8139 5.29963 65.5548 5.37619ZM65.5548 17.7852C65.0494 17.7983 64.547 17.703 64.0814 17.5059C63.6158 17.3088 63.1977 17.0144 62.8553 16.6424C62.0583 15.6608 61.6657 14.4121 61.7574 13.151C61.6649 11.8969 62.0471 10.6539 62.8283 9.66852C63.1721 9.29766 63.5902 9.00341 64.0553 8.80495C64.5205 8.60649 65.0222 8.50827 65.5278 8.5167C66.0344 8.50184 66.5381 8.59714 67.0042 8.79601C67.4702 8.99487 67.8876 9.29257 68.2274 9.66852C69.0384 10.6403 69.4416 11.8884 69.3522 13.151C69.4485 14.4114 69.0517 15.6599 68.2454 16.6334C67.9085 17.0106 67.493 17.3092 67.0281 17.5083C66.5632 17.7073 66.0603 17.8018 65.5548 17.7852Z" fill="white"/>
<path d="M82.7502 5.54785H79.3848V20.7734H88.9322V17.6239H82.7502V5.54785Z" fill="white"/>
<path d="M98.9294 5.54785H95.573V20.7734H105.111V17.6239H98.9294V5.54785Z" fill="white"/>
<path d="M115.109 5.54785H111.753V20.7734H115.109V5.54785Z" fill="white"/>
<path d="M125.646 14.2585H130.704V11.1H125.646V8.69735H131.954V5.54785H122.29V20.7734H132.161V17.6239H125.646V14.2585Z" fill="white"/>
<path d="M136.724 11.2885H139.261L142.762 5.5564H138.551L136.724 11.2885Z" fill="white"/>
<path d="M150.806 11.4057C149.465 10.7668 148.808 10.1549 148.808 9.53403C148.806 9.39582 148.834 9.25879 148.888 9.13159C148.942 9.00439 149.022 8.8898 149.122 8.79507C149.223 8.70034 149.342 8.62753 149.472 8.58125C149.603 8.53497 149.741 8.51622 149.879 8.52619C150.563 8.52619 151.148 8.98512 151.607 9.89398L151.769 10.2089L154.468 8.4722L154.342 8.21124C153.975 7.33329 153.346 6.58999 152.541 6.08272C151.735 5.57545 150.793 5.32889 149.843 5.37669C149.271 5.35946 148.701 5.4609 148.17 5.67462C147.638 5.88833 147.157 6.2097 146.756 6.61849C146.362 7.01757 146.052 7.4914 145.843 8.01216C145.634 8.53292 145.532 9.09011 145.542 9.65101C145.488 12.7105 148.241 13.8623 149.672 14.4743C150.572 14.8612 151.643 15.4731 151.643 16.22C151.643 17.3088 151.157 17.7857 150.068 17.7857C148.979 17.7857 148.007 16.8859 147.494 15.0862L147.368 14.6632L144.669 16.391V16.6159C144.911 17.8286 145.562 18.9213 146.513 19.7114C147.487 20.537 148.729 20.9786 150.005 20.9532C153.037 20.9532 154.999 19.0455 154.999 16.094C155.062 13.2774 152.389 12.1076 150.806 11.4057Z" fill="white"/>
</g>
<defs>
<clipPath id="clip0_4_2">
<rect width="155" height="26" fill="white"/>
</clipPath>
</defs>
</svg>
