<svg width="577" height="577" viewBox="0 0 577 577" fill="none" xmlns="http://www.w3.org/2000/svg">
<path d="M187 288.228C187.171 231.839 232.716 186.777 289.319 187.001C345.124 187.225 390.201 233.075 389.999 289.432C389.797 345.076 344.06 390.223 288.117 389.999C231.781 389.775 186.83 344.532 187 288.228ZM256.882 237.199C256.701 237.785 256.339 238.435 256.339 239.085C256.339 260.556 256.084 282.037 256.52 303.498C256.722 313.162 260.985 321.335 269.352 326.812C280.303 333.972 291.721 335.134 303.565 329.156C315.674 323.04 320.575 312.715 320.586 299.587C320.586 280.418 320.586 261.249 320.565 242.09C320.565 240.417 320.331 238.744 320.182 236.837C311.9 237.391 305.223 240.257 299.217 244.924C293.071 249.698 290.254 256.379 288.638 264.2C282.163 245.67 272.276 237.327 256.871 237.21L256.882 237.199ZM327.284 237.167C327.103 238.275 326.742 239.447 326.742 240.609C326.71 260.822 326.699 281.046 326.773 301.26C326.773 303.721 327.156 306.225 327.677 308.634C330.771 322.912 345.474 334.154 358.562 332.278C358.7 331.809 358.987 331.309 358.987 330.818C359.019 309.72 359.487 288.601 358.902 267.514C358.424 250.199 344.326 237.156 327.273 237.167H327.284ZM249.525 237.114C231.472 237.391 218.023 251.041 217.896 269.176C217.779 286.907 217.864 304.627 217.864 322.358C217.864 325.682 217.864 329.018 217.864 332.683C219.756 332.683 221.138 332.843 222.478 332.662C238.33 330.52 249.642 318.362 249.897 302.347C250.216 281.792 250.003 261.227 249.992 240.662C249.992 239.469 249.684 238.286 249.525 237.124V237.114Z" fill="white"/>
</svg>
