<?xml version="1.0" encoding="UTF-8"?>
<svg xmlns="http://www.w3.org/2000/svg" width="97" height="19" viewBox="0 0 97 19" fill="none">
  <g clip-path="url(#clip0_830_522)">
    <path d="M76.6399 4.41085L70.043 18.8053H67.3099L69.7744 13.4283L65.9034 4.41085H68.7083L71.1971 10.451L73.914 4.41085H76.639H76.6399ZM51.5375 9.52185C51.5375 7.86885 50.3583 6.59585 48.9105 6.59585C47.4626 6.59585 46.2834 7.82705 46.2834 9.52185C46.2834 11.1996 47.4626 12.4469 48.9105 12.4469C50.3583 12.4469 51.5375 11.1739 51.5375 9.5209V9.52185ZM43.8835 18.8053V4.41085H46.2591V5.7361C46.9749 4.79845 48.0401 4.2218 49.3092 4.2218C51.9201 4.2218 53.9706 6.4923 53.9706 9.49525C53.9706 12.4982 51.8797 14.7868 49.2518 14.7868C48.0321 14.7868 47.0315 14.2795 46.3328 13.4188V18.7958H43.8835V18.8053ZM62.5434 9.52185C62.5434 7.80045 61.3642 6.59585 59.9164 6.59585C58.4685 6.59585 57.2884 7.82705 57.2884 9.52185C57.2884 11.1996 58.4685 12.4469 59.9164 12.4469C61.3642 12.4469 62.5434 11.2338 62.5434 9.5209V9.52185ZM62.5596 14.6329V13.3067C61.8438 14.2282 60.7786 14.7953 59.5095 14.7953C56.8573 14.7953 54.8481 12.5505 54.8481 9.52185C54.8481 6.5189 56.939 4.23035 59.5661 4.23035C60.8028 4.23035 61.8438 4.807 62.5596 5.7019V4.41085H64.9352V14.6329H62.5596ZM39.5967 5.4093C39.5967 5.4093 40.1984 4.2218 41.6875 4.2218C42.3216 4.2218 42.7294 4.4536 42.7294 4.4536V7.0604C42.7294 7.0604 41.8339 6.47615 41.0121 6.59585C40.1912 6.7165 39.6703 7.50785 39.6703 8.5747V14.6319H37.2139V4.41085H39.5886V5.40835H39.5976L39.5967 5.4093ZM95.0878 3.8342L92.2739 2.13085L89.4178 0.401853C87.5317 -0.742898 85.1723 0.694452 85.1723 3.0001V3.38675C85.1723 3.6024 85.2783 3.8 85.457 3.90355L86.7836 4.70345C86.8673 4.7537 86.962 4.77981 87.0583 4.77916C87.1546 4.77851 87.249 4.75114 87.3321 4.69977C87.4152 4.64841 87.4841 4.57485 87.5319 4.48647C87.5797 4.39809 87.6047 4.29798 87.6045 4.19615V3.27465C87.6045 2.81865 88.0679 2.53555 88.4424 2.7588L91.0453 4.34245L93.64 5.9166C93.7256 5.96803 93.7967 6.0425 93.8461 6.13245C93.8956 6.22239 93.9217 6.32459 93.9217 6.42865C93.9217 6.53271 93.8956 6.63492 93.8461 6.72486C93.7967 6.8148 93.7256 6.88928 93.64 6.9407L91.0453 8.51485L88.4424 10.0976C88.3571 10.149 88.2606 10.1758 88.1624 10.1753C88.0642 10.1749 87.9679 10.1471 87.883 10.0949C87.7981 10.0426 87.7278 9.96775 87.6789 9.87768C87.63 9.78762 87.6043 9.68555 87.6045 9.5817V9.1257C87.6045 6.82005 85.2459 5.37415 83.3589 6.52745L80.5028 8.25645L77.6889 9.9598C75.7938 11.1131 75.7938 14.0125 77.6889 15.1658L80.5037 16.8692L83.3589 18.5982C85.245 19.7429 87.6045 18.3056 87.6045 15.9999V15.6133C87.6056 15.5079 87.5798 15.4042 87.5296 15.3132C87.4795 15.2222 87.407 15.1473 87.3198 15.0965L85.9941 14.2966C85.9103 14.2461 85.8155 14.2198 85.7191 14.2203C85.6227 14.2208 85.5281 14.2482 85.4449 14.2996C85.3616 14.3509 85.2926 14.4246 85.2448 14.5131C85.1969 14.6016 85.1719 14.7019 85.1723 14.8039V15.7254C85.1723 16.1814 84.7088 16.4645 84.3343 16.2412L81.7315 14.6576L79.1367 13.0834C79.0514 13.0318 78.9805 12.9572 78.9313 12.8673C78.882 12.7774 78.856 12.6753 78.856 12.5714C78.856 12.4674 78.882 12.3653 78.9313 12.2754C78.9805 12.1855 79.0514 12.1109 79.1367 12.0593L81.7324 10.4852L84.3343 8.90245C84.4196 8.85103 84.5162 8.8242 84.6144 8.82467C84.7125 8.82514 84.8089 8.85288 84.8937 8.90512C84.9786 8.95736 85.049 9.03226 85.0979 9.12232C85.1468 9.21239 85.1724 9.31445 85.1723 9.4183V9.8743C85.1723 12.18 87.5317 13.6259 89.4187 12.4726L92.2739 10.7436L95.0878 9.03925C96.9829 7.87835 96.9829 4.9875 95.0878 3.8342ZM9.90657 10.8205C9.38655 13.1699 7.47529 14.7868 5.00269 14.7868C2.14657 14.7868 0 12.5163 0 9.5133C0 6.51035 2.17981 4.2218 5.0431 4.2218C7.45912 4.2218 9.34613 5.8387 9.8913 8.1453H7.37739C6.93011 7.2238 6.04364 6.6139 5.06017 6.6139C3.62762 6.6139 2.43219 7.86125 2.43219 9.5133C2.43219 11.1654 3.62762 12.4127 5.05927 12.4127C5.55284 12.4169 6.03681 12.2684 6.45168 11.9855C6.86655 11.7026 7.19423 11.2977 7.39445 10.8205H9.90747H9.90657ZM11.0382 14.6234V0.203302H13.4704V14.6243H11.0382V14.6234ZM17.1304 10.1935C17.301 11.7069 18.3258 12.559 19.6191 12.559C20.6448 12.559 21.4334 12.0508 21.8969 11.2338H24.3865C23.809 13.4017 21.9705 14.7868 19.5545 14.7868C16.6346 14.7868 14.5931 12.6189 14.5931 9.53895C14.5931 6.45905 16.7567 4.23035 19.6111 4.23035C22.4905 4.23035 24.5733 6.47615 24.5733 9.53895C24.5733 9.7622 24.5572 9.98545 24.5168 10.1926H17.1304V10.1935ZM21.9786 8.59275C21.8079 7.2675 20.7831 6.4676 19.5868 6.4676C18.3914 6.4676 17.407 7.24185 17.1546 8.59275H21.9777H21.9786ZM33.2602 14.6234V13.2981C32.5444 14.2196 31.4873 14.7868 30.2101 14.7868C27.5669 14.7868 25.5577 12.541 25.5577 9.5133C25.5577 6.51035 27.6396 4.2218 30.2676 4.2218C31.5034 4.2218 32.5444 4.7899 33.2602 5.6924V4.4023H35.6358V14.6148H33.2602V14.6243V14.6234ZM33.236 9.51235C33.236 7.80045 32.0567 6.5873 30.6089 6.5873C29.1611 6.5873 27.9818 7.809 27.9818 9.5133C27.9818 11.191 29.1611 12.4384 30.6089 12.4384C32.0567 12.4384 33.236 11.2338 33.236 9.51235Z" fill="#717171"></path>
  </g>
  <defs>
    <clipPath id="clip0_830_522">
      <rect width="97" height="19" fill="white"></rect>
    </clipPath>
  </defs>
</svg>
