<?xml version="1.0" encoding="UTF-8"?>
<svg xmlns="http://www.w3.org/2000/svg" width="68" height="34" viewBox="0 0 68 34" fill="none">
  <path d="M28.2392 29.784H27.4946C26.9981 29.784 26.5799 30.1213 26.486 30.6617C26.3921 31.1999 26.6918 31.5394 27.1882 31.5394H27.9351L28.2392 29.784ZM28.6328 27.5262H29.7107L29.2209 30.3312L29.0107 31.5371L28.8497 32.4572L28.8318 32.5577H27.754H26.7924C25.8509 32.5577 25.2203 31.7314 25.4081 30.6595C25.596 29.5875 26.5151 28.7612 27.4543 28.7612H28.4159L28.6328 27.5262Z" fill="#717171"></path>
  <path d="M18.5652 31.5395H19.3099C19.8041 31.5395 20.2223 31.2023 20.3162 30.6619C20.4101 30.1237 20.1104 29.7842 19.614 29.7842H18.8671L18.5652 31.5395ZM17.7937 29.7842L17.9323 28.9847L17.7937 29.7842ZM18.1716 33.7817H17.0938L17.3084 32.5601L17.3263 32.4596L17.3375 32.3926L17.9323 28.9847L17.9525 28.8641L17.9704 28.7636H19.0482H20.0098C20.9513 28.7636 21.5819 29.5899 21.3941 30.6619C21.2084 31.7338 20.2871 32.5601 19.3479 32.5601H18.3863L18.1716 33.7817Z" fill="#717171"></path>
  <path d="M24.431 28.7478L23.3733 30.9475L22.9596 28.7478H21.7744L22.6062 32.1781C22.3714 32.6158 22.1076 32.7743 21.6044 32.7743L21.4277 33.7815C22.4251 33.8329 23.1429 33.3795 23.7423 32.2361L25.5782 28.75H24.431V28.7478Z" fill="#717171"></path>
  <path d="M11.4666 32.56H12.701L11.9541 30.7131C12.5557 30.4317 13.0275 29.8712 13.1349 29.2526C13.3026 28.2968 12.6675 27.5263 11.7126 27.5263H9.40033L8.52148 32.56H9.67092C9.90125 31.2424 10.1293 29.9248 10.3597 28.605H11.5225C11.8378 28.605 12.0481 28.8863 11.9832 29.2526C11.9183 29.6189 11.612 29.9002 11.2967 29.9002H10.382L11.4666 32.56Z" fill="#717171"></path>
  <path d="M15.6828 31.5395H14.9381C14.4417 31.5395 14.142 31.2023 14.2359 30.6619C14.3299 30.1237 14.748 29.7842 15.2422 29.7842H15.9892L15.6828 31.5395ZM15.2042 28.7636C14.2628 28.7636 13.3437 29.5899 13.1581 30.6619C12.9702 31.7338 13.6031 32.5601 14.5423 32.5601H16.5795L16.5974 32.4596L16.7584 31.5395L17.0648 29.7842L17.2258 28.8641L17.2437 28.7636H16.1658H15.2042Z" fill="#717171"></path>
  <path d="M4.9473 31.3009H2.25262L1.45204 32.5604H0.673828L3.97453 27.5222H4.6879L5.96256 32.5604H5.24919L4.9473 31.3009ZM4.80418 30.7247L4.2071 28.2413L2.6216 30.7247H4.80418Z" fill="#717171"></path>
  <path d="M31.8164 30.9545C31.8164 29.666 32.7534 28.7101 34.0638 28.7101C34.7996 28.7101 35.3385 28.9826 35.6359 29.5387L35.0523 29.8625C34.851 29.4962 34.5044 29.3154 34.0146 29.3154C33.1492 29.3154 32.5164 29.9853 32.5164 30.9278C32.5164 31.5977 32.9278 31.9997 33.6613 31.9997C34.1153 31.9997 34.5334 31.8188 34.7996 31.4593L35.305 31.8188C34.9516 32.3079 34.3165 32.6027 33.6322 32.6027C32.5231 32.6027 31.8164 31.9483 31.8164 30.9545Z" fill="#717171"></path>
  <path d="M35.873 30.9545C35.873 29.666 36.81 28.7101 38.1138 28.7101C39.2028 28.7101 39.9005 29.3511 39.9005 30.3516C39.9005 31.6469 38.9702 32.6049 37.6665 32.6049C36.5797 32.6027 35.873 31.9483 35.873 30.9545ZM39.2028 30.3851C39.2028 29.7084 38.7914 29.3131 38.0646 29.3131C37.2081 29.3131 36.573 29.9831 36.573 30.9255C36.573 31.5955 36.9845 31.9975 37.7112 31.9975C38.5767 31.9975 39.2028 31.3297 39.2028 30.3851Z" fill="#717171"></path>
  <path d="M47.2661 29.9697C47.2661 30.1059 47.2438 30.2578 47.2147 30.423L46.7898 32.5602H46.0988L46.5237 30.423C46.5461 30.3002 46.5595 30.193 46.5595 30.0925C46.5595 29.6034 46.2867 29.3288 45.7164 29.3288C45.0165 29.3288 44.5424 29.7173 44.3769 30.5235L43.9654 32.5602H43.2744L43.706 30.423C43.7284 30.3069 43.7418 30.1997 43.7418 30.0992C43.7418 29.6101 43.469 29.3288 42.892 29.3288C42.1854 29.3288 41.718 29.724 41.5525 30.5459L41.15 32.5602H40.459L41.2148 28.7459H41.8768L41.7828 29.2216C42.1295 28.8687 42.5901 28.7101 43.1089 28.7101C43.706 28.7101 44.1399 28.9469 44.3344 29.3868C44.7235 28.9335 45.2557 28.7101 45.8908 28.7101C46.7563 28.7101 47.2661 29.1635 47.2661 29.9697Z" fill="#717171"></path>
  <path d="M52.4332 30.3493C52.4332 31.6602 51.5119 32.6027 50.2707 32.6027C49.6155 32.6027 49.1325 32.357 48.8865 31.9126L48.484 33.956H47.793L48.8306 28.7459H49.4925L49.3986 29.2216C49.7363 28.8977 50.1902 28.7101 50.7471 28.7101C51.7198 28.7101 52.4332 29.3198 52.4332 30.3493ZM51.7355 30.3851C51.7355 29.7084 51.324 29.3131 50.5972 29.3131C49.7318 29.3131 49.1056 29.9831 49.1056 30.9255C49.1056 31.5955 49.5171 31.9975 50.2439 31.9975C51.1004 31.9975 51.7355 31.3297 51.7355 30.3851Z" fill="#717171"></path>
  <path d="M57.3428 28.746L56.587 32.5604H55.925L56.019 32.0936C55.6813 32.4175 55.2184 32.6051 54.6705 32.6051C53.6977 32.6051 52.9844 31.9864 52.9844 30.9569C52.9844 29.646 53.9057 28.7125 55.1468 28.7125C55.802 28.7125 56.2784 28.9492 56.5244 29.3959L56.6541 28.7483H57.3428V28.746ZM56.3119 30.3852C56.3119 29.7085 55.9004 29.3133 55.1737 29.3133C54.3172 29.3133 53.6821 29.9832 53.6821 30.9257C53.6821 31.5956 54.0936 31.9976 54.8203 31.9976C55.6858 31.9976 56.3119 31.3299 56.3119 30.3852Z" fill="#717171"></path>
  <path d="M61.9983 29.9764C61.9983 30.1126 61.9849 30.2645 61.9558 30.423L61.5309 32.5602H60.8399L61.2648 30.423C61.2872 30.3069 61.3006 30.1997 61.3006 30.1059C61.3006 29.6101 61.0121 29.3288 60.415 29.3288C59.6726 29.3288 59.1672 29.724 59.0017 30.5459L58.5992 32.5602H57.9082L58.664 28.7459H59.326L59.2321 29.235C59.5854 28.8754 60.0684 28.7101 60.6163 28.7101C61.4795 28.7101 61.9983 29.1635 61.9983 29.9764Z" fill="#717171"></path>
  <path d="M66.8772 28.7458L64.1669 32.9778C63.6704 33.755 63.2813 34.0007 62.682 34.0007C62.3153 34.0007 61.9262 33.8778 61.7227 33.6634L62.0827 33.152C62.2415 33.3106 62.4584 33.4111 62.7312 33.4111C63.0487 33.4111 63.2791 33.2682 63.5519 32.8416L63.7465 32.5401L62.8251 28.7481H63.5161L64.2519 31.7987L66.175 28.7481H66.8772V28.7458Z" fill="#717171"></path>
  <path d="M66.7763 17.2495C65.9019 18.0825 64.9403 18.4979 63.887 18.4979C62.9724 18.4979 62.2635 18.241 61.7581 17.7252C61.2527 17.2093 61 16.4768 61 15.5232V6.60139H65.2288L65.8236 4.34135H61V-6.10352e-05H59.2423C59.2222 1.46718 58.7414 2.65749 57.7977 3.56865C56.854 4.47981 55.6397 4.95773 54.1504 4.99569V6.60139H56.8607V15.5835C56.8607 16.5951 57.1134 17.4929 57.6211 18.2745C58.1264 19.0584 58.8309 19.6681 59.7343 20.1035C60.6378 20.539 61.6552 20.7579 62.7868 20.7579C63.8579 20.7579 64.8464 20.5636 65.7498 20.1772C66.6533 19.7909 67.4024 19.2304 67.9995 18.4979L66.7763 17.2495Z" fill="#717171"></path>
  <path d="M41.1649 15.4359C41.1649 14.4846 41.5026 13.7164 42.1779 13.1312C42.8533 12.5461 43.8171 12.2536 45.0672 12.2536C45.7023 12.2536 46.3083 12.3429 46.883 12.5216C47.4577 12.7002 48.0637 12.9772 48.6988 13.3546V16.7446C48.0235 17.399 47.3638 17.8791 46.7175 18.1873C46.0712 18.4955 45.4026 18.6473 44.7071 18.6473C43.6158 18.6473 42.7504 18.3459 42.1153 17.7407C41.4825 17.1354 41.1649 16.3672 41.1649 15.4359ZM53.2854 20.2843C52.9678 19.3329 52.8091 17.955 52.8091 16.1506V9.78585C52.8091 8.63574 52.4915 7.61515 51.8564 6.72185C51.2213 5.83079 50.338 5.13179 49.2065 4.62484C48.0749 4.12013 46.7936 3.86554 45.3646 3.86554C43.9155 3.86554 42.5805 4.13353 41.3595 4.66951C40.1385 5.20548 39.1411 5.94915 38.3674 6.90051L39.7673 8.11986C40.3218 7.50572 41.0084 7.03004 41.8224 6.69282C42.6364 6.3556 43.4906 6.18811 44.3829 6.18811C45.6531 6.18811 46.6907 6.54543 47.4957 7.25783C48.3008 7.97246 48.7011 8.88363 48.7011 9.99355V11.4496C47.6679 10.9538 46.7645 10.6077 45.9907 10.4089C45.217 10.2102 44.4433 10.1119 43.6673 10.1119C42.3367 10.1119 41.1694 10.3397 40.1675 10.7953C39.1657 11.2509 38.3964 11.8806 37.8597 12.6846C37.323 13.4886 37.0547 14.4042 37.0547 15.4359C37.0547 16.4677 37.323 17.3833 37.8597 18.1873C38.3964 18.9913 39.1456 19.621 40.1072 20.0766C41.071 20.5322 42.1779 20.76 43.428 20.76C44.4992 20.76 45.4786 20.5813 46.362 20.224C47.2453 19.8667 48.1129 19.2927 48.9672 18.4999C49.0074 19.094 49.0969 19.6903 49.2355 20.2843H53.2854Z" fill="#717171"></path>
  <path d="M27.2868 5.947C28.4183 5.947 29.3665 6.40705 30.1313 7.32938C30.8961 8.25171 31.3679 9.47552 31.5468 11.0031H23.0603C23.2392 9.47775 23.711 8.25171 24.4758 7.32938C25.2361 6.40928 26.1754 5.947 27.2868 5.947ZM35.8628 12.104C35.8628 10.5385 35.4961 9.12937 34.7603 7.88099C34.0246 6.63261 33.0071 5.64998 31.7078 4.93758C30.4064 4.22294 28.9327 3.86786 27.2845 3.86786C25.6364 3.86786 24.1516 4.22964 22.8322 4.95321C21.5106 5.67678 20.4841 6.67727 19.7506 7.95692C19.0171 9.23433 18.6504 10.677 18.6504 12.2827C18.6504 13.9085 19.0462 15.3668 19.8423 16.6554C20.6362 17.944 21.7342 18.9511 23.1341 19.6747C24.534 20.3983 26.0971 20.7601 27.8235 20.7601C29.3531 20.7601 30.7328 20.4519 31.9628 19.8377C33.1927 19.2236 34.1968 18.3415 34.9705 17.1914L33.4812 16.1216C32.9042 16.8943 32.1998 17.4549 31.3679 17.801C30.5338 18.1494 29.6594 18.3214 28.7471 18.3214C27.1593 18.3214 25.8623 17.8792 24.8605 16.9971C23.8586 16.1149 23.2571 14.871 23.058 13.2653H35.7443C35.8248 12.7695 35.8628 12.3832 35.8628 12.104Z" fill="#717171"></path>
  <path d="M0.476321 8.48377L0.478557 20.2842H4.58655V8.4927C4.58655 8.4927 6.18099 5.93788 8.73479 5.94234C10.81 5.94681 12.2457 7.37608 12.2457 9.76788V20.2842H16.3939V9.76788C16.3939 6.42249 13.8401 3.96816 9.6919 3.87213C6.68862 3.7962 4.95553 5.70785 4.35845 6.51182C4.30702 5.78155 4.18402 4.92175 4.04985 4.35004H0C0.317547 5.3014 0.476321 6.67931 0.476321 8.48377Z" fill="#717171"></path>
</svg>
