<?xml version="1.0" encoding="UTF-8"?>
<svg xmlns="http://www.w3.org/2000/svg" width="94" height="25" viewBox="0 0 94 25" fill="none">
  <path d="M66.2275 5.49482C65.9081 5.13895 65.3697 4.80133 64.7219 4.80133C62.6414 4.80133 61.957 6.6628 61.957 8.41477C61.957 10.0481 62.6688 11.6632 64.6306 11.6632C65.169 11.6632 65.7986 11.353 65.9993 11.0153V11.5811C65.9993 12.5939 65.9172 13.0776 64.6032 13.0776C63.9736 13.0776 63.2345 12.8494 62.5866 12.5118L62.1578 13.7254C63.0064 14.1452 63.8094 14.4007 64.6945 14.4007C65.3788 14.4007 66.3461 14.2912 66.9666 13.7528C67.6236 13.2144 67.6509 12.2563 67.6509 11.3256L67.6601 4.78308L66.3552 4.99295C66.3552 4.9747 66.2548 5.34882 66.2275 5.49482ZM65.9993 8.91663C65.9993 9.22688 65.972 9.53712 65.8533 9.79262C65.7073 10.1029 65.4245 10.3036 65.0595 10.3036C64.0101 10.3036 63.8915 9.57362 63.8915 8.18665C63.8915 6.94567 64.1196 6.21568 65.0321 6.21568C65.4883 6.21568 65.826 6.4438 65.9993 6.63542V8.91663Z" fill="#717171"></path>
  <path d="M59.7866 21.4724L59.7957 19.2186C59.7957 18.5251 59.7684 18.3152 59.6771 18.0323C59.4216 17.3023 58.6551 16.8735 57.5145 16.8735C56.8849 16.8735 56.3192 16.983 55.6622 17.2658C55.2972 17.421 54.9413 17.6217 54.6037 17.8225L55.2516 18.9722C56.0546 18.4703 56.6842 18.2696 57.2499 18.2696C57.9069 18.2696 58.062 18.5616 58.062 19.2916V19.5471H57.6514C55.5162 19.5471 54.4395 20.277 54.4395 21.8283C54.4395 23.0327 55.0964 23.781 56.3557 23.8996H57.0674C57.4689 23.854 57.8065 23.7262 58.0803 23.5529C58.2263 23.4707 58.3631 23.3247 58.5091 23.1787C58.6551 23.4616 58.9289 23.7262 59.2391 23.8996L59.449 24L59.5402 23.8996L60.4436 22.9324C59.8505 22.4853 59.7866 22.1568 59.7866 21.4724ZM57.0948 22.6586C56.6385 22.6586 56.3283 22.2936 56.3283 21.7826C56.3283 20.9888 56.7298 20.6968 57.9525 20.6968H58.0529V22.248C57.7883 22.5309 57.4324 22.6586 57.0948 22.6586Z" fill="#717171"></path>
  <path d="M27.5119 2.53839H20.4219V9.57364L23.9897 13.1232L31.0888 6.08795L27.5119 2.53839Z" fill="#717171"></path>
  <path d="M20.4219 16.6727V23.7171H27.5119L31.0888 20.1675L23.9897 13.1232L20.4219 16.6727Z" fill="#717171"></path>
  <path d="M34.6557 23.7171H41.7092V16.618L38.187 13.1232L31.0879 20.1675L34.6557 23.7171Z" fill="#717171"></path>
  <path d="M31.0879 6.08795L38.187 13.1232L41.7092 9.62839V2.53839H34.6557L31.0879 6.08795Z" fill="#717171"></path>
  <path d="M79.2406 10.3857C78.9304 10.4678 78.7844 10.5317 78.6201 10.5317C78.0179 10.5317 77.8536 10.3036 77.8536 9.45498V6.12442H78.9577L79.414 4.91081H77.8536V3.07672L76.1199 3.35959V4.91081H75.4355V6.12442H76.1199V9.73785C76.1199 10.3583 76.1199 10.4678 76.2294 10.7598C76.4301 11.353 77.1419 11.7453 78.0179 11.7453C78.4741 11.7453 78.9577 11.6358 79.4687 11.4351L79.2406 10.3857Z" fill="#717171"></path>
  <path d="M46.976 6.85444L49.7226 11.572H52.0403L48.8922 6.71757L51.7301 2.53839H49.5675L46.976 6.66282V2.53839H45.1328V11.572H46.976V6.85444Z" fill="#717171"></path>
  <path d="M55.4897 6.2613C55.9733 6.2613 56.1101 6.57155 56.1101 7.32891V11.5628H57.8165V6.71755C57.8165 6.28868 57.7891 6.01493 57.707 5.75944C57.5062 5.1937 56.8219 4.80133 56.0828 4.80133C55.6813 4.80133 55.2342 4.88345 54.8874 5.0842C54.6045 5.2302 54.3217 5.44919 54.1209 5.70469L54.0114 4.81958L52.5332 5.05683V11.572H54.2943V7.64828C54.2943 7.16466 54.4403 6.82704 54.6684 6.60805C54.9239 6.37993 55.2068 6.2613 55.4897 6.2613Z" fill="#717171"></path>
  <path d="M59.1484 11.5719H60.9187V4.77393L59.1484 5.04767V11.5719Z" fill="#717171"></path>
  <path d="M72.6155 4.7466C71.849 4.7466 71.192 5.02947 70.7084 5.55871C70.7084 5.47659 70.7357 5.0751 70.7357 4.88348V2.37415L68.9473 2.66614V11.5811H70.7357V7.9038C70.7357 7.28331 70.8179 6.92744 71.0186 6.6902C71.2832 6.37995 71.7303 6.20658 72.1318 6.20658C72.6428 6.20658 72.8162 6.48945 72.8162 7.10994V11.572H74.5225V6.91832C74.5225 6.27045 74.4952 6.06971 74.3492 5.70471C74.1484 5.1116 73.4732 4.7466 72.6155 4.7466Z" fill="#717171"></path>
  <path d="M60.0409 2C59.4387 2 58.9551 2.48362 58.9551 3.08586C58.9551 3.6881 59.4387 4.17171 60.0409 4.17171C60.6432 4.17171 61.1268 3.6881 61.1268 3.08586C61.1268 2.49274 60.6432 2 60.0409 2Z" fill="#717171"></path>
  <path d="M45.1133 23.6715H46.9018V19.6657H49.2377V18.2057H46.9018V16.0888H49.8034L50.0316 14.647H45.1133V23.6715Z" fill="#717171"></path>
  <path d="M51.884 17.8864L51.7106 16.983L50.2871 17.2111V23.6715H52.0482V19.5471C52.0482 19.2095 52.103 18.9266 52.3037 18.7076C52.4771 18.5251 52.7599 18.3974 53.0793 18.3974C53.2801 18.3974 53.5082 18.4521 53.6816 18.5342L54.1287 16.983C53.8458 16.8735 53.7272 16.8461 53.4717 16.8461C52.8147 16.8461 52.1668 17.4392 51.884 17.8864Z" fill="#717171"></path>
  <path d="M67.8711 14.8204V23.6715H69.6322V19.8938V14.5375L67.8711 14.8204Z" fill="#717171"></path>
  <path d="M73.5017 17.0104H71.3665L69.6328 19.8938L71.9232 23.6715H73.9854L71.3392 19.8117L73.5017 17.0104Z" fill="#717171"></path>
  <path d="M64.8054 16.9009C64.4039 16.9009 63.9477 16.983 63.6101 17.1837C63.3272 17.3297 63.0443 17.5487 62.8436 17.8042L62.7341 16.9191L61.2559 17.1564V23.6715H63.017V19.7478C63.017 19.2642 63.163 18.9266 63.3911 18.6985C63.6466 18.4704 63.9294 18.3609 64.2123 18.3609C64.6959 18.3609 64.8419 18.6711 64.8419 19.4376V23.6715H66.5483V18.8171C66.5483 18.3974 66.5209 18.1145 66.4388 17.859C66.2289 17.3024 65.5445 16.9009 64.8054 16.9009Z" fill="#717171"></path>
</svg>
