<svg width="74" height="15" viewBox="0 0 74 15" fill="none" xmlns="http://www.w3.org/2000/svg"><path d="M16.6568 0.639893L10.5506 9.77349L7.63274 0.639893H2.37678L0 14.3599H4.1352L5.44919 6.73549L7.88394 14.3599H11.652L16.7341 6.73549L15.4007 14.3599H19.5359L21.9127 0.639893H16.6568Z" fill="#151515"/><path d="M33.9862 14.3403H38.5079L34.2567 0.639893H29.7351L20.711 14.3403H25.252L26.2569 12.8311H33.5224L33.9862 14.3403ZM32.4403 9.40109H28.479L31.1843 5.30469L32.4403 9.40109Z" fill="#151515"/><path d="M49.5005 6.59829L56.7467 0.639893H51.4715L45.346 5.67709L46.2155 0.639893H42.0803L39.7035 14.3599H43.8387L44.4571 10.7339L46.1189 9.38149L49.4618 14.3599H54.7371L49.5005 6.59829Z" fill="#151515"/><path d="M60.723 10.9299L61.0128 9.20509H71.5035L72.0832 5.77509H61.6119L61.9017 4.06989H73.146L73.745 0.639893L58.3655 0.639893L55.9888 14.3599H71.3489L71.9479 10.9299H60.723Z" fill="#151515"/></svg>