<?xml version="1.0" encoding="UTF-8"?>
<svg xmlns="http://www.w3.org/2000/svg" width="75" height="29" viewBox="0 0 75 29" fill="none">
  <g clip-path="url(#clip0_830_524)">
    <path d="M48.2284 21.8235H44.9716C43.5994 21.8235 42.9083 21.5343 42.4054 20.9044C41.8691 20.2327 41.8691 19.2108 41.8691 18.2411V0.25354H46.0566V18.8179C46.0566 20.2874 46.2284 21.339 48.2292 21.7584V21.8235H48.2284Z" fill="#717171"></path>
    <path d="M39.7588 21.8206H34.5191L30.6676 14.1231C28.5656 15.219 27.3658 17.7578 25.2344 19.4337C24.1478 20.2877 22.8768 21.0493 21.2925 21.5643C20.5753 21.7973 19.3571 22.0986 18.898 22.1428C18.707 22.1613 18.5721 22.1532 18.5436 22.0873C18.5218 22.0359 18.5746 21.9966 18.779 21.9026C19.012 21.7949 19.9738 21.4125 20.577 21.01C21.3293 20.507 21.7608 19.9631 21.7943 19.543C21.5874 18.8432 20.1137 17.291 21.6209 14.4421C22.1621 13.4202 22.6296 12.6842 22.9648 11.9451C23.3501 11.0959 23.6224 9.89961 23.7146 9.01024C23.7196 8.958 23.7297 8.96125 23.759 8.98936C24.4929 9.70118 27.339 12.5107 26.9276 15.3034C27.8735 14.9547 29.5148 13.8966 30.2714 13.3318C31.0698 12.7357 31.5909 12.1138 32.4363 12.1002C33.1937 12.0881 33.259 12.4352 33.8622 12.5115C34.0114 12.5308 34.2326 12.5027 34.3473 12.4488C34.3934 12.4271 34.3825 12.3789 34.3122 12.3629C33.4894 12.1765 33.2925 11.5337 32.2285 11.5337C31.2742 11.5337 30.5152 12.3765 29.9647 12.722L27.2737 7.34475C26.1485 5.09602 26.492 3.46189 28.9618 0.246643L39.758 21.8222L39.7588 21.8206Z" fill="#717171"></path>
    <path d="M56.662 21.8235H53.4052C52.033 21.8235 51.3418 21.5343 50.839 20.9044C50.3027 20.2327 50.3027 19.2108 50.3027 18.2411V0.25354H54.4902V18.8179C54.4902 20.2874 54.662 21.339 56.6628 21.7584V21.8235H56.662Z" fill="#717171"></path>
    <path d="M3.54875 27.7479H1.61842L1.24978 28.6019H0.263672L2.11692 24.6146H3.06701L4.92612 28.6019H3.91655L3.54791 27.7479H3.54875ZM3.24546 27.0473L2.5861 25.5209L1.92674 27.0473H3.24546Z" fill="#717171"></path>
    <path d="M6.15447 28.4055C5.81181 28.2287 5.54286 27.9837 5.34681 27.6704C5.15076 27.357 5.05273 27.0027 5.05273 26.6082C5.05273 26.2138 5.15076 25.8594 5.34681 25.5461C5.54286 25.2328 5.81181 24.9878 6.15447 24.811C6.49713 24.6343 6.88253 24.5459 7.30983 24.5459C7.67007 24.5459 7.996 24.607 8.28673 24.7283C8.57745 24.8496 8.82209 25.0247 9.02064 25.2521L8.40318 25.7992C8.12165 25.4875 7.77314 25.3324 7.35757 25.3324C7.10036 25.3324 6.8708 25.3862 6.6689 25.4947C6.46697 25.6032 6.30947 25.7542 6.19636 25.9478C6.08326 26.1415 6.02713 26.3616 6.02713 26.6082C6.02713 26.8549 6.08326 27.075 6.19636 27.2687C6.30947 27.4623 6.46697 27.6133 6.6689 27.7218C6.8708 27.8302 7.10036 27.8841 7.35757 27.8841C7.77314 27.8841 8.12165 27.7266 8.40318 27.4116L9.02064 27.9588C8.8229 28.1902 8.57745 28.3669 8.28419 28.4882C7.99096 28.6095 7.66423 28.6706 7.30394 28.6706C6.88003 28.6706 6.49713 28.5822 6.15447 28.4055Z" fill="#717171"></path>
    <path d="M10.4299 28.4055C10.0872 28.2287 9.81825 27.9837 9.6222 27.6704C9.42615 27.357 9.32812 27.0027 9.32812 26.6082C9.32812 26.2138 9.42615 25.8594 9.6222 25.5461C9.81825 25.2328 10.0872 24.9878 10.4299 24.811C10.7725 24.6343 11.1579 24.5459 11.5852 24.5459C11.9455 24.5459 12.2714 24.607 12.5621 24.7283C12.8528 24.8496 13.0975 25.0247 13.296 25.2521L12.6786 25.7992C12.397 25.4875 12.0485 25.3324 11.633 25.3324C11.3757 25.3324 11.1462 25.3862 10.9443 25.4947C10.7424 25.6032 10.5849 25.7542 10.4718 25.9478C10.3586 26.1415 10.3025 26.3616 10.3025 26.6082C10.3025 26.8549 10.3586 27.075 10.4718 27.2687C10.5849 27.4623 10.7424 27.6133 10.9443 27.7218C11.1462 27.8302 11.3757 27.8841 11.633 27.8841C12.0485 27.8841 12.397 27.7266 12.6786 27.4116L13.296 27.9588C13.0983 28.1902 12.8528 28.3669 12.5596 28.4882C12.2664 28.6095 11.9396 28.6706 11.5793 28.6706C11.1554 28.6706 10.7725 28.5822 10.4299 28.4055Z" fill="#717171"></path>
    <path d="M14.713 28.4026C14.3662 28.2243 14.0956 27.9784 13.8995 27.6651C13.7035 27.3517 13.6055 26.9998 13.6055 26.6086C13.6055 26.2173 13.7035 25.8654 13.8995 25.5521C14.0956 25.2388 14.367 24.9929 14.713 24.8146C15.0591 24.6362 15.4487 24.5471 15.8801 24.5471C16.3116 24.5471 16.6995 24.6362 17.0447 24.8146C17.389 24.9929 17.6605 25.2388 17.8582 25.5521C18.056 25.8654 18.1548 26.2173 18.1548 26.6086C18.1548 26.9998 18.056 27.3517 17.8582 27.6651C17.6605 27.9784 17.389 28.2243 17.0447 28.4026C16.7003 28.581 16.3116 28.6702 15.8801 28.6702C15.4487 28.6702 15.0591 28.581 14.713 28.4026ZM16.5453 27.7221C16.7431 27.6137 16.8989 27.4626 17.012 27.269C17.1251 27.0754 17.1812 26.8552 17.1812 26.6086C17.1812 26.362 17.1251 26.1418 17.012 25.9482C16.8989 25.7546 16.7439 25.6035 16.5453 25.4951C16.3476 25.3866 16.1256 25.3328 15.8801 25.3328C15.6347 25.3328 15.4126 25.3866 15.2149 25.4951C15.0172 25.6035 14.8614 25.7546 14.7483 25.9482C14.6351 26.1418 14.579 26.362 14.579 26.6086C14.579 26.8552 14.6351 27.0754 14.7483 27.269C14.8614 27.4626 15.0164 27.6137 15.2149 27.7221C15.4135 27.8306 15.6347 27.8844 15.8801 27.8844C16.1256 27.8844 16.3476 27.8306 16.5453 27.7221Z" fill="#717171"></path>
    <path d="M21.5418 28.6019L20.74 27.4908H19.8552V28.6019H18.8926V24.6146H20.6922C21.0608 24.6146 21.3801 24.6733 21.6515 24.7914C21.923 24.9095 22.1316 25.0758 22.2782 25.2927C22.4248 25.5088 22.4977 25.7651 22.4977 26.0616C22.4977 26.358 22.4231 26.6135 22.2748 26.828C22.1266 27.0425 21.9154 27.2064 21.6423 27.3205L22.5748 28.6019H21.5409H21.5418ZM21.2979 25.5458C21.1471 25.426 20.9277 25.3666 20.6386 25.3666H19.8544V26.7565H20.6386C20.9277 26.7565 21.1471 26.6954 21.2979 26.5741C21.4479 26.4528 21.5233 26.2817 21.5233 26.0616C21.5233 25.8414 21.4479 25.6655 21.2979 25.5458Z" fill="#717171"></path>
    <path d="M24.6851 26.9839C24.5695 26.873 24.5117 26.7356 24.5117 26.5725C24.5117 26.4094 24.5695 26.272 24.6851 26.1628C24.8007 26.0535 24.9407 25.9989 25.1049 25.9989C25.2691 25.9989 25.409 26.0535 25.5246 26.1628C25.6402 26.272 25.698 26.4087 25.698 26.5725C25.698 26.7364 25.6402 26.8738 25.5246 26.9839C25.409 27.0948 25.2691 27.1502 25.1049 27.1502C24.9407 27.1502 24.8007 27.0948 24.6851 26.9839Z" fill="#717171"></path>
    <path d="M27.9375 24.6147H28.9002V27.8501H30.9855V28.6021H27.9383V24.6147H27.9375Z" fill="#717171"></path>
    <path d="M31.5371 24.6147H32.4998V28.6021H31.5371V24.6147Z" fill="#717171"></path>
    <path d="M37.4712 24.6147L35.6716 28.6021H34.7215L32.9277 24.6147H33.9675L35.2326 27.4628L36.5153 24.6147H37.4721H37.4712Z" fill="#717171"></path>
    <path d="M41.048 27.8619V28.6027H37.8281V24.6154H40.9706V25.3561H38.7849V26.2222H40.7154V26.9396H38.7849V27.8627H41.048V27.8619Z" fill="#717171"></path>
    <path d="M43.5176 24.6147H44.4801V27.8501H46.5656V28.6021H43.5184V24.6147H43.5176Z" fill="#717171"></path>
    <path d="M47.1191 24.6147H48.082V28.6021H47.1191V24.6147Z" fill="#717171"></path>
    <path d="M52.8612 28.6021L52.8556 26.2095L51.6314 28.1803H51.1975L49.979 26.2609V28.6021H49.0762V24.6147H49.8721L51.4286 27.0925L52.9609 24.6147H53.7512L53.7629 28.6021H52.8596H52.8612Z" fill="#717171"></path>
    <path d="M54.7637 24.6147H55.7262V28.6021H54.7637V24.6147Z" fill="#717171"></path>
    <path d="M57.5846 25.3667H56.2539V24.6147H59.8777V25.3667H58.5471V28.6021H57.5846V25.3667Z" fill="#717171"></path>
    <path d="M60.4062 24.6147H61.3688V27.8501H63.4542V28.6021H60.4071V24.6147H60.4062Z" fill="#717171"></path>
    <path d="M67.2256 27.8619V28.6027H64.0059V24.6154H67.1486V25.3561H64.9627V26.2222H66.893V26.9396H64.9627V27.8627H67.2256V27.8619Z" fill="#717171"></path>
    <path d="M68.4157 28.5424C68.1092 28.4573 67.8621 28.3456 67.6758 28.209L68.0028 27.514C68.181 27.6394 68.3931 27.7398 68.6387 27.8161C68.8842 27.8925 69.1294 27.9302 69.375 27.9302C69.6484 27.9302 69.85 27.8916 69.9806 27.8137C70.1117 27.7358 70.177 27.6322 70.177 27.5036C70.177 27.4088 70.1383 27.3301 70.0613 27.2674C69.9842 27.2047 69.8855 27.1541 69.7645 27.1163C69.6439 27.0786 69.4806 27.0368 69.2746 26.991C68.9576 26.9187 68.698 26.8464 68.4963 26.7749C68.2943 26.7026 68.1209 26.5869 67.9766 26.427C67.8318 26.2671 67.7596 26.0551 67.7596 25.7891C67.7596 25.5577 67.825 25.3472 67.9556 25.16C68.0867 24.9729 68.2834 24.8234 68.5463 24.7126C68.8097 24.6025 69.1314 24.5471 69.5117 24.5471C69.7774 24.5471 70.0363 24.5776 70.2899 24.6378C70.5431 24.6989 70.7649 24.7857 70.9552 24.8997L70.6584 25.6003C70.275 25.3914 69.8903 25.287 69.5064 25.287C69.2375 25.287 69.0383 25.3288 68.9101 25.4123C68.781 25.4959 68.7173 25.6059 68.7173 25.7425C68.7173 25.8791 68.7919 25.9811 68.9403 26.047C69.0887 26.1137 69.3157 26.1788 69.6205 26.2439C69.9371 26.3162 70.1971 26.3885 70.3988 26.46C70.6008 26.5323 70.7742 26.6464 70.9181 26.8014C71.0625 26.9573 71.1355 27.1678 71.1355 27.4337C71.1355 27.6619 71.0689 27.8691 70.9359 28.0571C70.8036 28.2451 70.604 28.3946 70.3387 28.5046C70.073 28.6147 69.7504 28.6702 69.3701 28.6702C69.0415 28.6702 68.7234 28.6276 68.4165 28.5424H68.4157Z" fill="#717171"></path>
    <path d="M72.2184 28.5424C71.9116 28.4573 71.6644 28.3456 71.4785 28.209L71.8051 27.514C71.9838 27.6394 72.1954 27.7398 72.441 27.8161C72.6866 27.8925 72.9321 27.9302 73.1777 27.9302C73.4507 27.9302 73.6527 27.8916 73.7833 27.8137C73.914 27.7358 73.9793 27.6322 73.9793 27.5036C73.9793 27.4088 73.9406 27.3301 73.8636 27.2674C73.7866 27.2047 73.6878 27.1541 73.5672 27.1163C73.4467 27.0786 73.2829 27.0368 73.0769 26.991C72.7604 26.9187 72.5007 26.8464 72.2987 26.7749C72.0967 26.7026 71.9233 26.5869 71.7793 26.427C71.6342 26.2671 71.5624 26.0551 71.5624 25.7891C71.5624 25.5577 71.6277 25.3472 71.7584 25.16C71.889 24.9729 72.0858 24.8234 72.3491 24.7126C72.612 24.6025 72.9338 24.5471 73.314 24.5471C73.5797 24.5471 73.8386 24.5776 74.0926 24.6378C74.3454 24.6989 74.5676 24.7857 74.7575 24.8997L74.4612 25.6003C74.0773 25.3914 73.6926 25.287 73.3092 25.287C73.0402 25.287 72.8406 25.3288 72.7124 25.4123C72.5834 25.4959 72.52 25.6059 72.52 25.7425C72.52 25.8791 72.5942 25.9811 72.7426 26.047C72.891 26.1137 73.118 26.1788 73.4229 26.2439C73.7398 26.3162 73.9995 26.3885 74.2015 26.46C74.4031 26.5323 74.5769 26.6464 74.7209 26.8014C74.8648 26.9573 74.9378 27.1678 74.9378 27.4337C74.9378 27.6619 74.8717 27.8691 74.7386 28.0571C74.6059 28.2451 74.4067 28.3946 74.141 28.5046C73.8753 28.6147 73.5527 28.6702 73.1725 28.6702C72.8442 28.6702 72.5257 28.6276 72.2192 28.5424H72.2184Z" fill="#717171"></path>
  </g>
  <defs>
    <clipPath id="clip0_830_524">
      <rect width="75" height="29" fill="white"></rect>
    </clipPath>
  </defs>
</svg>
