<?xml version="1.0" encoding="UTF-8"?>
<svg xmlns="http://www.w3.org/2000/svg" width="93" height="26" viewBox="0 0 93 26" fill="none">
  <g clip-path="url(#clip0_1049_435)">
    <mask id="mask0_1049_435" style="mask-type:luminance" maskUnits="userSpaceOnUse" x="0" y="0" width="93" height="26">
      <path d="M93 0H0V26H93V0Z" fill="white"></path>
    </mask>
    <g mask="url(#mask0_1049_435)">
      <path d="M56.5036 8.90125C55.6678 8.23274 54.5932 7.85492 53.3993 7.85492C50.504 7.85492 48.1758 10.2092 48.1758 13.261C48.1758 14.6562 48.7131 15.9642 49.5488 16.8942C50.504 17.9696 51.9965 18.6382 53.5486 18.6382C54.6231 18.6382 55.6379 18.3184 56.5036 17.5918L57.4587 18.4347H59.2496V8.05834H57.4587L56.5036 8.90125ZM53.8769 15.9351C52.3546 15.9351 51.1009 14.7143 51.1009 13.232C51.1009 11.7497 52.3546 10.5289 53.8769 10.5289C55.3991 10.5289 56.6528 11.7497 56.6528 13.232C56.6528 14.7143 55.3991 15.9351 53.8769 15.9351Z" fill="#717171"></path>
      <path d="M67.0987 7.85492C65.9042 7.85492 64.8299 8.23274 63.994 8.90125L63.0392 8.05834H61.248V23.5502H64.1135V17.7081C64.9793 18.3475 65.9042 18.6382 66.9791 18.6382C68.5607 18.6382 70.0831 17.9406 71.0087 16.8942C71.844 15.9642 72.3519 14.6853 72.3519 13.261C72.322 10.2092 69.9935 7.85492 67.0987 7.85492ZM66.7999 15.9351C65.2775 15.9351 64.0238 14.7143 64.0238 13.232C64.0238 11.7497 65.2775 10.5289 66.7999 10.5289C68.3223 10.5289 69.5759 11.7497 69.5759 13.232C69.5759 14.7434 68.3223 15.9351 66.7999 15.9351Z" fill="#717171"></path>
      <path d="M79.2769 7.85519C76.0533 7.88428 73.6657 10.3257 73.6956 13.3196C73.7255 16.3132 76.1729 18.6676 79.3963 18.6385C82.6199 18.6095 85.0081 16.1679 84.9782 13.1742C84.9484 10.1804 82.501 7.82615 79.2769 7.85519ZM79.3665 15.9354C77.8446 15.9645 76.5905 14.7727 76.5612 13.2614C76.5314 11.779 77.755 10.5583 79.3067 10.5292C80.8292 10.5002 82.0827 11.6918 82.1126 13.2033C82.1424 14.7146 80.9188 15.9354 79.3665 15.9354Z" fill="#717171"></path>
      <path d="M44.087 8.05896L41.729 11.7211L39.3411 8.05896H35.7891L39.162 13.2326L35.7891 18.4353H39.3411L41.729 14.773L44.087 18.4353H47.6389L44.2959 13.2326L47.6389 8.05896H44.087Z" fill="#717171"></path>
      <path d="M9.72458 13.0043L7.76172 14.9156L11.603 18.6562L13.5659 16.7448L9.72458 13.0043Z" fill="#717171"></path>
      <path d="M25.5503 1.34474C24.4757 0.298385 23.0729 -0.224792 21.67 -0.224792C20.2671 -0.224792 18.8642 0.298385 17.7897 1.34474L13.581 5.44296L9.37243 1.34474C8.29786 0.298385 6.89499 -0.224792 5.49212 -0.224792C4.08924 -0.224792 2.68636 0.298385 1.61182 1.34474C-0.537273 3.43745 -0.537273 6.80904 1.61182 8.9017L5.82045 13L7.79047 11.0816L3.55197 7.01252C3.04455 6.51839 2.74606 5.84988 2.74606 5.12324C2.74606 4.42567 3.0147 3.75718 3.55197 3.234C4.05939 2.73988 4.74591 2.44922 5.49212 2.44922C6.20848 2.44922 6.89499 2.71082 7.43226 3.234L13.6109 9.2505L19.7896 3.234C20.2969 2.73988 20.9834 2.44922 21.7297 2.44922C22.4461 2.44922 23.1326 2.71082 23.6698 3.234C24.1772 3.7281 24.4757 4.39661 24.4757 5.12324C24.4757 5.82078 24.2071 6.4893 23.6698 7.01252L13.581 16.7494L15.5511 18.6678L25.5801 8.9017C27.6994 6.80904 27.6994 3.43745 25.5503 1.34474Z" fill="#717171"></path>
      <path d="M1.61182 24.6555C2.68636 25.7018 4.08924 26.225 5.49212 26.225C6.89499 26.225 8.29786 25.7018 9.37243 24.6555L13.5811 20.5572L17.7897 24.6555C18.8643 25.7018 20.2671 26.225 21.67 26.225C23.0729 26.225 24.4757 25.7018 25.5503 24.6555C27.6994 22.5628 27.6994 19.1912 25.5503 17.0985L21.3417 13.0003L19.4015 14.9186L23.6102 19.0168C24.1176 19.5109 24.4161 20.1794 24.4161 20.906C24.4161 21.6036 24.1474 22.2721 23.6102 22.7953C23.1027 23.2895 22.4162 23.5801 21.67 23.5801C20.9536 23.5801 20.2671 23.3185 19.7298 22.7953L13.5811 16.7497L7.43226 22.7662C6.92486 23.2604 6.23834 23.551 5.49212 23.551C4.77575 23.551 4.08924 23.2895 3.55197 22.7662C3.04455 22.2721 2.74605 21.6036 2.74605 20.877C2.74605 20.1794 3.0147 19.5109 3.55197 18.9877L13.5811 9.22178L11.6409 7.36157L1.61182 17.0985C-0.537274 19.1912 -0.537274 22.5919 1.61182 24.6555Z" fill="#717171"></path>
      <path d="M15.5546 7.35291L13.5918 9.26424L17.4331 13.0048L19.3959 11.0934L15.5546 7.35291Z" fill="#717171"></path>
    </g>
  </g>
  <defs>
    <clipPath id="clip0_1049_435">
      <rect width="93" height="26" fill="white"></rect>
    </clipPath>
  </defs>
</svg>
