<?xml version="1.0" encoding="UTF-8"?>
<svg xmlns="http://www.w3.org/2000/svg" width="94" height="25" viewBox="0 0 94 25" fill="none">
  <g clip-path="url(#clip0_953_328)">
    <path d="M38.9663 18.4373H31.2098V14.7069H39.1509C40.1482 14.7992 40.8961 15.6025 40.8961 16.5536C40.9054 17.5878 40.0558 18.4373 38.9663 18.4373V18.4373ZM31.2191 6.23946H39.4464C40.3421 6.37797 41.0531 7.13514 41.0531 8.04004C41.0531 8.94495 40.3421 9.78525 39.4003 9.8868H31.3114L31.2191 6.23946ZM42.7521 12.1491C45.7347 11.2072 46.2518 8.84339 46.2518 6.90429C46.2518 3.92176 44.0726 1.37323 37.5997 1.37323H25.4941V23.5898H37.5535C44.0818 23.5898 46.4918 20.3764 46.4918 17.2092C46.4826 13.3772 42.7522 12.1491 42.7522 12.1491L42.7521 12.1491Z" fill="#717171"></path>
    <path d="M73.5742 1.41943H93.9994V6.23949H79.253V9.83145H92.5405V14.6977H79.253V18.5759H93.9994V23.6822H73.5742V1.41943V1.41943Z" fill="#717171"></path>
    <path d="M64.7836 8.31706C64.6912 9.02807 63.9341 9.83141 62.9368 9.83141H54.9496V6.28562H62.9368C63.8787 6.28562 64.6359 6.95046 64.7836 7.84614V8.31706ZM61.6626 1.41939H49.3262V23.6914H54.9957V14.7069H61.2378C63.0384 14.753 64.405 16.1289 64.405 17.874V23.6913H69.9822V16.5074C69.9822 13.2017 66.6211 12.2045 66.6211 12.2045C66.6211 12.2045 70.0746 11.2072 70.0746 7.29208C70.0284 2.4074 65.7254 1.41937 61.6626 1.41937V1.41939Z" fill="#717171"></path>
    <path d="M21.8096 18.2896C21.7172 18.2896 14.0532 18.4281 11.4123 18.1973C7.15549 17.8187 5.64116 14.79 5.64116 12.3338C5.64116 9.25896 7.82035 6.98743 11.2184 6.56268C12.8251 6.378 21.6711 6.47034 21.7634 6.47034H21.9481V1.41943H11.7355C10.5997 1.4656 8.75294 1.60411 6.86925 2.31512C5.12405 3.11847 3.50814 4.34656 2.32622 5.86091C0.858034 7.80001 0.0546875 10.0715 0.0546875 12.4816C0.0546875 13.2387 0.100858 13.9959 0.239368 14.7069C0.950374 18.068 3.26805 20.8566 6.57378 22.3618C7.70953 22.8327 9.40856 23.4052 12.9082 23.5899L14.8011 23.636H21.985V18.2896H21.8096V18.2896Z" fill="#717171"></path>
  </g>
  <defs>
    <clipPath id="clip0_953_328">
      <rect width="94" height="25" fill="white"></rect>
    </clipPath>
  </defs>
</svg>
