<?xml version="1.0" encoding="UTF-8"?>
<svg xmlns="http://www.w3.org/2000/svg" width="110" height="15" viewBox="0 0 110 15" fill="none">
  <path d="M7.02191 10.9213C7.02191 11.2696 6.82024 11.3796 6.54523 11.3796H0.513351C0.18334 11.3796 0 11.3063 0 10.8663V0.800931C0 0.507588 0.146672 0.360917 0.440015 0.360917H2.03507C2.38342 0.360917 2.51175 0.470917 2.51175 0.837596V9.25289H6.54523C6.8569 9.25289 7.00357 9.4179 7.00357 9.71124L7.02191 10.9213ZM9.90034 10.9396C9.90034 11.233 9.73534 11.3796 9.497 11.3796H7.95694C7.7186 11.3796 7.53526 11.2513 7.53526 10.9579V0.709261C7.53526 0.415918 7.6086 0.269244 7.92027 0.214242L9.47866 0.0125674C9.772 -0.0424345 9.91868 0.0859066 9.91868 0.342582V10.9396H9.90034ZM14.6305 11.5996C11.9537 11.5996 10.6887 9.87625 10.6887 7.51116C10.6887 5.18275 12.1738 3.44102 14.7405 3.44102C17.4173 3.44102 18.6823 5.16441 18.6823 7.52949C18.6823 9.85791 17.1973 11.5996 14.6305 11.5996ZM14.7222 5.31109C13.5488 5.31109 13.1638 6.31945 13.1638 7.49283C13.1638 8.6662 13.4938 9.72957 14.6672 9.72957C15.8405 9.72957 16.2256 8.68453 16.2256 7.52949C16.2256 6.33779 15.8772 5.31109 14.7222 5.31109ZM24.1825 4.11938C24.2742 3.8077 24.4575 3.66103 24.7692 3.66103H26.4009C26.6759 3.66103 26.7126 3.89937 26.6393 4.10104L23.5041 12.2597C22.7708 14.1481 21.8174 14.8264 19.764 14.8264C19.3973 14.8264 19.1223 14.7897 18.8107 14.7347C18.5173 14.6797 18.5173 14.4781 18.5356 14.2214L18.6823 13.213C18.7373 12.9013 18.8657 12.8647 18.994 12.8647C19.159 12.8647 19.379 12.9197 19.7823 12.9197C20.7174 12.9197 21.1391 12.6263 21.3957 11.9113L21.5791 11.4163L18.6456 4.11938C18.554 3.89937 18.664 3.6427 18.939 3.6427H20.8091C21.0841 3.6427 21.2124 3.77103 21.2857 3.95437L22.7708 8.64787H22.8258L24.1825 4.11938ZM31.9561 0.709261C31.9561 0.415918 32.0294 0.269244 32.3411 0.214242L33.8995 0.0125674C34.1928 -0.0424345 34.3395 0.0859066 34.3395 0.342582V10.9396C34.3395 11.2513 34.1562 11.3796 33.9178 11.3796H32.5795C32.3044 11.3796 32.1761 11.233 32.1761 11.068L32.1394 10.7379C31.6994 11.233 30.8927 11.5996 30.0494 11.5996C27.831 11.5996 26.7126 9.82124 26.7126 7.65783C26.7126 5.54943 27.8493 3.44102 30.196 3.44102C30.8927 3.44102 31.5528 3.67936 31.9744 4.08271V0.709261H31.9561ZM31.9561 5.86111C31.6628 5.5861 31.1677 5.34775 30.7094 5.34775C29.5544 5.34775 29.1877 6.5578 29.1877 7.51116C29.1877 8.5012 29.4627 9.65623 30.6727 9.65623C31.1311 9.65623 31.7178 9.36289 31.9744 9.08788C31.9561 9.08788 31.9561 5.86111 31.9561 5.86111ZM38.208 11.5996C37.3646 11.5996 36.3196 11.343 35.5496 11.0129C35.3296 10.9213 35.2929 10.7379 35.3662 10.5363L35.6779 9.50956C35.7329 9.28956 35.8612 9.16122 36.1729 9.28955C36.9613 9.60123 37.658 9.78457 38.2447 9.78457C38.7947 9.78457 39.1064 9.5829 39.1064 9.23456C39.1064 8.94121 38.9413 8.7762 38.3547 8.5562L37.163 8.11618C36.0812 7.71284 35.3662 6.96114 35.3662 5.82444C35.3662 4.22938 36.9796 3.47769 38.3913 3.47769C39.2164 3.47769 40.0047 3.60603 40.8481 3.99104C41.0498 4.08271 41.1048 4.22938 41.0314 4.43105L40.7014 5.51276C40.6464 5.71443 40.4264 5.73277 40.2614 5.67777C39.583 5.43943 39.0697 5.27442 38.428 5.27442C37.8963 5.27442 37.6763 5.53109 37.6763 5.78777C37.6763 5.97111 37.7313 6.19112 38.2813 6.39279L39.638 6.92447C40.7747 7.36449 41.3981 8.04285 41.3981 9.10622C41.3981 10.8663 39.8764 11.5996 38.208 11.5996Z" fill="#717171"></path>
  <path d="M45.6335 7.73117H44.7352V10.9579C44.7352 11.233 44.6252 11.3796 44.2585 11.3796H42.6634C42.3701 11.3796 42.2051 11.3246 42.2051 10.9763V0.855931C42.2051 0.452584 42.3151 0.360917 42.6818 0.360917H45.1568C46.9902 0.360917 48.2736 0.67259 49.0803 1.57095C49.6487 2.21264 49.942 3.07434 49.942 3.91771C49.9603 6.44779 47.9986 7.73117 45.6335 7.73117ZM45.5235 2.32265H44.7352V5.8061H45.3952C46.5319 5.8061 47.3936 5.36609 47.3936 4.04604C47.4119 2.836 46.7152 2.32265 45.5235 2.32265ZM53.1321 10.9213C53.1321 11.233 52.9854 11.3796 52.6738 11.3796H51.2437C50.9137 11.3796 50.7487 11.2696 50.7487 10.9213V0.709261C50.7487 0.415918 50.822 0.269244 51.1337 0.214242L52.6921 0.0125674C52.9854 -0.0424345 53.1321 0.0859066 53.1321 0.342582V4.22938C53.7555 3.69769 54.7638 3.44102 55.5705 3.44102C57.2939 3.44102 58.0823 4.55939 58.0823 6.26445V10.9396C58.0823 11.2513 57.9356 11.398 57.6239 11.398H56.1939C55.8639 11.398 55.6989 11.288 55.6989 10.9396V6.70446C55.6989 6.04444 55.5155 5.5861 54.8005 5.5861C54.2688 5.5861 53.5905 5.82444 53.1505 6.20945L53.1321 10.9213ZM67.1943 11.0129C67.1943 11.2513 67.0293 11.3796 66.8093 11.3796H65.9659C65.0309 11.3796 64.6458 11.1046 64.4442 10.6463H64.4075C63.9858 11.1413 62.9591 11.5813 62.1891 11.5813C59.8974 11.5813 58.834 9.76624 58.834 7.65783C58.834 4.85274 60.5757 3.42269 62.3174 3.42269C63.2158 3.42269 63.9125 3.82603 64.2608 4.32105L64.3158 3.9727C64.3525 3.77103 64.4808 3.66103 64.6825 3.66103H66.1126C66.3326 3.66103 66.4976 3.78936 66.4976 4.04604V9.5279C66.4976 9.69291 66.5526 9.80291 66.7359 9.80291H66.8643C67.0843 9.80291 67.1943 9.87624 67.1943 10.1146V11.0129ZM64.1142 5.93444C63.8208 5.67777 63.3075 5.40276 62.8308 5.40276C62.0424 5.40276 61.3274 6.04445 61.3274 7.51116C61.3274 8.5012 61.5841 9.67457 62.7941 9.67457C63.3625 9.67457 63.9308 9.25289 64.1325 9.01455V5.93444H64.1142ZM70.5311 6.19112V10.9396C70.5311 11.233 70.4027 11.3796 70.091 11.3796H68.606C68.3126 11.3796 68.166 11.233 68.166 10.9396V4.11938C68.166 3.73437 68.3493 3.66103 68.6243 3.66103H69.9077C70.201 3.66103 70.3477 3.73436 70.366 3.9727L70.4027 4.44939C70.9711 3.77103 71.5394 3.44102 72.4011 3.44102C72.8778 3.44102 73.0428 3.53269 73.0061 3.8627L72.7678 5.36609C72.7311 5.54943 72.6578 5.62276 72.5111 5.62276C72.3461 5.62276 72.2728 5.5861 71.9978 5.5861C71.4661 5.5861 70.9161 5.8061 70.5311 6.19112ZM75.7562 10.9213C75.7562 11.2513 75.6096 11.3796 75.2979 11.3796H73.8678C73.5378 11.3796 73.3728 11.2696 73.3728 10.9213V4.06437C73.3728 3.77103 73.5562 3.66103 73.8128 3.66103H75.1145C75.3896 3.66103 75.5362 3.73436 75.5729 3.99104L75.6096 4.28438C76.2512 3.7527 77.0763 3.42269 77.883 3.42269C78.9463 3.42269 79.533 3.95437 79.863 4.48606C80.5781 3.77103 81.6231 3.42269 82.6315 3.42269C83.8782 3.42269 84.6482 4.11938 84.9232 4.7794C85.2166 5.42109 85.2349 6.13611 85.2349 7.25448V10.9213C85.2349 11.2513 85.0882 11.3796 84.7765 11.3796H83.3465C83.0165 11.3796 82.8515 11.2696 82.8515 10.9213V6.6678C82.8515 6.02611 82.7048 5.53109 81.9898 5.53109C81.4398 5.53109 80.7797 5.82444 80.3581 6.19112V10.9213C80.3581 11.2513 80.2114 11.3796 79.8997 11.3796H78.598C78.268 11.3796 78.103 11.2696 78.103 10.9213V6.6678C78.103 6.02611 77.9563 5.53109 77.2413 5.53109C76.7096 5.53109 76.1779 5.8061 75.7379 6.19112V10.9213H75.7562ZM94.6769 11.0129C94.6769 11.2513 94.5119 11.3796 94.2919 11.3796H93.4485C92.5135 11.3796 92.1285 11.1046 91.9268 10.6463H91.8901C91.4684 11.1413 90.4417 11.5813 89.6717 11.5813C87.38 11.5813 86.3166 9.76624 86.3166 7.65783C86.3166 4.85274 88.0583 3.42269 89.8 3.42269C90.6984 3.42269 91.3951 3.82603 91.7435 4.32105L91.7985 3.9727C91.8351 3.77103 91.9635 3.66103 92.1651 3.66103H93.5952C93.8152 3.66103 93.9802 3.78936 93.9802 4.04604V9.5279C93.9802 9.69291 94.0352 9.80291 94.2185 9.80291H94.3469C94.5669 9.80291 94.6769 9.87624 94.6769 10.1146V11.0129ZM91.5968 5.93444C91.3034 5.67777 90.7901 5.40276 90.3134 5.40276C89.525 5.40276 88.81 6.04445 88.81 7.51116C88.81 8.5012 89.0667 9.67457 90.2767 9.67457C90.8451 9.67457 91.4134 9.25289 91.6151 9.01455V5.93444H91.5968ZM101.589 10.6463C101.68 10.9579 101.589 11.0496 101.387 11.1413C100.672 11.453 99.8104 11.5996 98.9854 11.5996C96.6936 11.5996 95.0619 10.2613 95.0619 7.65783C95.0619 5.09108 96.602 3.45936 99.132 3.45936C99.8837 3.45936 100.599 3.56936 101.332 3.88104C101.552 3.9727 101.552 4.11938 101.515 4.33938L101.259 5.47609C101.204 5.73277 101.039 5.71443 100.837 5.6411C100.397 5.45776 99.9387 5.34775 99.4437 5.34775C98.197 5.34775 97.537 6.17278 97.537 7.52949C97.537 9.06955 98.2337 9.72957 99.517 9.72957C100.012 9.72957 100.36 9.65624 100.91 9.43623C101.075 9.38123 101.24 9.34456 101.314 9.5829L101.589 10.6463ZM107.511 4.11938C107.602 3.8077 107.786 3.66103 108.097 3.66103H109.729C110.004 3.66103 110.041 3.89937 109.967 4.10104L106.832 12.2597C106.099 14.1481 105.146 14.8264 103.092 14.8264C102.725 14.8264 102.45 14.7897 102.139 14.7347C101.845 14.6797 101.845 14.4781 101.864 14.2214L102.01 13.213C102.065 12.9013 102.194 12.8647 102.322 12.8647C102.487 12.8647 102.707 12.9197 103.111 12.9197C104.046 12.9197 104.467 12.6263 104.724 11.9113L104.907 11.4163L101.974 4.11938C101.882 3.89937 101.992 3.6427 102.267 3.6427H104.137C104.412 3.6427 104.541 3.77103 104.614 3.95437L106.099 8.64787H106.154L107.511 4.11938Z" fill="#717171"></path>
</svg>
