<?xml version="1.0" encoding="UTF-8"?>
<svg xmlns="http://www.w3.org/2000/svg" width="139" height="26" viewBox="0 0 139 26" fill="none">
  <g clip-path="url(#clip0_8_852)">
    <path d="M109.824 6.03598L100.371 25.7336H96.4544L99.986 18.3756L94.4389 6.03598H98.4583L102.025 14.3014L105.918 6.03598H109.823H109.824ZM73.8528 13.03C73.8528 10.768 72.1629 9.02598 70.0882 9.02598C68.0135 9.02598 66.3236 10.7108 66.3236 13.03C66.3236 15.3258 68.0135 17.0327 70.0882 17.0327C72.1629 17.0327 73.8528 15.2907 73.8528 13.0287V13.03ZM62.8846 25.7336V6.03598H66.2888V7.84948C67.3146 6.56638 68.841 5.77728 70.6596 5.77728C74.401 5.77728 77.3393 8.88428 77.3393 12.9936C77.3393 17.1029 74.3431 20.2346 70.5772 20.2346C68.8295 20.2346 67.3957 19.5404 66.3944 18.3626V25.7206H62.8846V25.7336ZM89.6241 13.03C89.6241 10.6744 87.9342 9.02598 85.8595 9.02598C83.7848 9.02598 82.0937 10.7108 82.0937 13.03C82.0937 15.3258 83.7848 17.0327 85.8595 17.0327C87.9342 17.0327 89.6241 15.3726 89.6241 13.0287V13.03ZM89.6473 20.024V18.2092C88.6215 19.4702 87.0951 20.2463 85.2765 20.2463C81.4759 20.2463 78.5968 17.1744 78.5968 13.03C78.5968 8.92068 81.593 5.78898 85.3576 5.78898C87.1298 5.78898 88.6215 6.57808 89.6473 7.80268V6.03598H93.0515V20.024H89.6473ZM56.7416 7.40228C56.7416 7.40228 57.6039 5.77728 59.7378 5.77728C60.6465 5.77728 61.2308 6.09448 61.2308 6.09448V9.66168C61.2308 9.66168 59.9476 8.86218 58.77 9.02598C57.5936 9.19108 56.8471 10.274 56.8471 11.7339V20.0227H53.3271V6.03598H56.73V7.40098H56.7429L56.7416 7.40228ZM136.26 5.24688L132.228 2.91598L128.135 0.54998C125.432 -1.01652 122.051 0.95038 122.051 4.10548V4.63458C122.051 4.92968 122.203 5.20008 122.459 5.34178L124.36 6.43638C124.48 6.50514 124.616 6.54086 124.754 6.53998C124.892 6.5391 125.027 6.50164 125.146 6.43135C125.265 6.36106 125.364 6.2604 125.432 6.13946C125.501 6.01851 125.537 5.88152 125.536 5.74218V4.48118C125.536 3.85718 126.2 3.46978 126.737 3.77528L130.467 5.94238L134.185 8.09648C134.308 8.16685 134.41 8.26876 134.481 8.39184C134.551 8.51493 134.589 8.65478 134.589 8.79718C134.589 8.93958 134.551 9.07943 134.481 9.20252C134.41 9.3256 134.308 9.42751 134.185 9.49788L130.467 11.652L126.737 13.8178C126.615 13.8882 126.476 13.9249 126.336 13.9242C126.195 13.9236 126.057 13.8856 125.935 13.8141C125.814 13.7426 125.713 13.6402 125.643 13.5169C125.573 13.3937 125.536 13.254 125.536 13.1119V12.4879C125.536 9.33278 122.157 7.35418 119.452 8.93238L115.36 11.2984L111.327 13.6293C108.612 15.2075 108.612 19.1751 111.327 20.7533L115.361 23.0842L119.452 25.4502C122.155 27.0167 125.536 25.0498 125.536 21.8947V21.3656C125.538 21.2215 125.501 21.0796 125.429 20.955C125.357 20.8305 125.253 20.728 125.128 20.6584L123.229 19.5638C123.109 19.4947 122.973 19.4587 122.835 19.4594C122.696 19.4602 122.561 19.4976 122.442 19.5679C122.322 19.6382 122.223 19.739 122.155 19.8601C122.086 19.9812 122.05 20.1185 122.051 20.258V21.519C122.051 22.143 121.387 22.5304 120.85 22.2249L117.12 20.0578L113.402 17.9037C113.28 17.833 113.178 17.731 113.108 17.608C113.037 17.4849 113 17.3452 113 17.203C113 17.0607 113.037 16.921 113.108 16.798C113.178 16.6749 113.28 16.5729 113.402 16.5023L117.122 14.3482L120.85 12.1824C120.972 12.112 121.111 12.0753 121.252 12.0759C121.392 12.0766 121.53 12.1145 121.652 12.186C121.773 12.2575 121.874 12.36 121.944 12.4833C122.014 12.6065 122.051 12.7462 122.051 12.8883V13.5123C122.051 16.6674 125.432 18.646 128.136 17.0678L132.228 14.7018L136.26 12.3696C138.976 10.781 138.976 6.82508 136.26 5.24688ZM14.196 14.8071C13.4508 18.022 10.712 20.2346 7.1688 20.2346C3.07602 20.2346 0 17.1276 0 13.0183C0 8.90898 3.12364 5.77728 7.22671 5.77728C10.6888 5.77728 13.3929 7.98988 14.1741 11.1463H10.5717C9.93078 9.88528 8.66047 9.05068 7.25117 9.05068C5.19834 9.05068 3.4853 10.7576 3.4853 13.0183C3.4853 15.279 5.19834 16.9859 7.24988 16.9859C7.95717 16.9916 8.65069 16.7884 9.24519 16.4013C9.83969 16.0142 10.3093 15.4601 10.5962 14.8071H14.1973H14.196ZM15.8177 20.011V0.27828H19.303V20.0123H15.8177V20.011ZM24.5477 13.9491C24.7922 16.02 26.2607 17.1861 28.114 17.1861C29.5838 17.1861 30.7139 16.4906 31.378 15.3726H34.9456C34.1181 18.3392 31.4835 20.2346 28.0214 20.2346C23.8372 20.2346 20.9118 17.268 20.9118 13.0534C20.9118 8.83878 24.0122 5.78898 28.1025 5.78898C32.2287 5.78898 35.2133 8.86218 35.2133 13.0534C35.2133 13.3589 35.1902 13.6644 35.1323 13.9478H24.5477V13.9491ZM31.4951 11.7586C31.2505 9.94508 29.782 8.85048 28.0677 8.85048C26.3547 8.85048 24.9441 9.90998 24.5824 11.7586H31.4938H31.4951ZM47.6616 20.011V18.1975C46.6358 19.4585 45.1209 20.2346 43.2908 20.2346C39.503 20.2346 36.6239 17.1614 36.6239 13.0183C36.6239 8.90898 39.6073 5.77728 43.3731 5.77728C45.1441 5.77728 46.6358 6.55468 47.6616 7.78968V6.02428H51.0658V19.9993H47.6616V20.0123V20.011ZM47.6268 13.017C47.6268 10.6744 45.9369 9.01428 43.8622 9.01428C41.7875 9.01428 40.0976 10.6861 40.0976 13.0183C40.0976 15.3141 41.7875 17.021 43.8622 17.021C45.9369 17.021 47.6268 15.3726 47.6268 13.017Z" fill="white"></path>
  </g>
  <defs>
    <clipPath id="clip0_8_852">
      <rect width="139" height="26" fill="white"></rect>
    </clipPath>
  </defs>
</svg>
