<?xml version="1.0" encoding="UTF-8"?>
<svg xmlns="http://www.w3.org/2000/svg" width="104" height="21" viewBox="0 0 104 21" fill="none">
  <g clip-path="url(#clip0_8_878)">
    <path d="M100.473 15.9437C100.535 16.6739 101.104 17.6037 102.089 17.6037H102.665C102.772 17.6032 102.876 17.5589 102.952 17.4806C103.028 17.4023 103.071 17.2963 103.071 17.1856V4.16079H103.069C103.063 4.05434 103.018 3.95407 102.943 3.88058C102.868 3.80709 102.768 3.76595 102.665 3.76561H100.88C100.776 3.76595 100.677 3.80709 100.602 3.88058C100.526 3.95407 100.481 4.05434 100.476 4.16079H100.473V5.21938C99.3794 3.83338 97.655 3.25779 95.926 3.25779C94.991 3.25804 94.0652 3.44762 93.2015 3.8157C92.3378 4.18378 91.553 4.72315 90.8921 5.40302C90.2312 6.08288 89.707 6.88992 89.3495 7.77805C88.992 8.66618 88.8082 9.618 88.8085 10.5792C88.808 11.5404 88.9918 12.4924 89.3492 13.3807C89.7066 14.269 90.2308 15.0762 90.8917 15.7562C91.5527 16.4363 92.3374 16.9758 93.2012 17.3441C94.065 17.7123 94.9909 17.9021 95.926 17.9024C97.655 17.9024 99.54 17.2123 100.473 15.9418V15.9437ZM95.9325 15.3395C93.4328 15.3395 91.4067 13.2089 91.4067 10.5801C91.4067 7.95129 93.4328 5.82075 95.9325 5.82075C98.4332 5.82075 100.459 7.95129 100.459 10.5801C100.459 13.2089 98.4332 15.3395 95.9325 15.3395ZM86.5521 16.3914V9.65229C86.5521 5.85225 84.2214 3.28929 80.5071 3.28929C78.7335 3.28929 77.2794 4.34406 76.7659 5.25088C76.6545 4.54165 76.2895 3.79711 75.1548 3.79711H74.5772C74.4695 3.79736 74.3661 3.84149 74.2899 3.91984C74.2137 3.9982 74.1708 4.10439 74.1705 4.2152V17.2409H74.1733C74.1845 17.4605 74.3618 17.6361 74.5772 17.6361H76.3629C76.3898 17.6361 76.4167 17.6323 76.4427 17.6275C76.4548 17.6256 76.465 17.6199 76.4771 17.617L76.517 17.6046C76.5328 17.597 76.5467 17.5884 76.5616 17.5798L76.5839 17.5674C76.6013 17.555 76.6178 17.5413 76.6331 17.5263L76.6424 17.5197C76.717 17.4465 76.7616 17.3468 76.7668 17.2409H76.7687V9.54729C76.7684 8.56772 77.1467 7.62816 77.8202 6.93523C78.4938 6.2423 79.4075 5.85275 80.3604 5.85225C81.3131 5.85275 82.2267 6.24217 82.9002 6.93489C83.5738 7.62762 83.9521 8.56693 83.9521 9.54634L83.953 15.9781V15.9762L83.9549 15.9933V17.2409H83.9567C83.9688 17.4605 84.1452 17.6361 84.3607 17.6361H86.1463C86.1731 17.6359 86.1999 17.633 86.2262 17.6275C86.2364 17.6256 86.2466 17.6208 86.2568 17.618C86.2717 17.6142 86.2865 17.6103 86.3005 17.6046C86.3153 17.5979 86.3283 17.5893 86.3422 17.5817L86.3673 17.5674C86.3836 17.5557 86.3991 17.543 86.4137 17.5292L86.4258 17.5197C86.4424 17.5028 86.4576 17.4847 86.4713 17.4652L86.4741 17.4614C86.5194 17.3972 86.5458 17.321 86.5502 17.2419H86.553V16.3914H86.5521ZM67.9602 15.9437C68.0225 16.6739 68.5917 17.6037 69.576 17.6037H70.1517C70.3745 17.6037 70.5575 17.4156 70.5575 17.1856V4.16079H70.5556C70.5499 4.05442 70.505 3.95428 70.4299 3.88084C70.3548 3.80739 70.2553 3.76618 70.1517 3.76561H68.366C68.2624 3.76618 68.1629 3.80739 68.0878 3.88084C68.0127 3.95428 67.9678 4.05442 67.9621 4.16079H67.9602V5.21938C66.8664 3.83338 65.142 3.25779 63.4121 3.25779C62.4772 3.25817 61.5515 3.44784 60.6879 3.81597C59.8242 4.18411 59.0396 4.7235 58.3788 5.40335C57.7179 6.08321 57.1938 6.8902 56.8364 7.77827C56.4789 8.66633 56.2952 9.61808 56.2955 10.5792C56.2955 14.6236 59.4815 17.9024 63.4121 17.9024C65.142 17.9024 67.0261 17.2123 67.9602 15.9418V15.9437ZM63.4195 15.3395C60.9198 15.3395 58.8927 13.2089 58.8927 10.5801C58.8927 7.95129 60.9198 5.82075 63.4195 5.82075C65.9192 5.82075 67.9454 7.95129 67.9454 10.5801C67.9454 13.2089 65.9192 15.3395 63.4195 15.3395ZM45.7386 14.0776C46.93 14.9271 48.2309 15.3395 49.4807 15.3395C50.6721 15.3395 51.9034 14.7047 51.9034 13.5993C51.9034 12.1236 49.2198 11.8936 47.5345 11.3037C45.8491 10.7147 44.3968 9.4967 44.3968 7.52365C44.3968 4.50443 47.0117 3.25684 49.452 3.25684C50.998 3.25684 52.5933 3.78184 53.6277 4.53402C53.9843 4.81084 53.767 5.13061 53.767 5.13061L52.78 6.58152C52.6685 6.74379 52.4754 6.88506 52.1968 6.70847C51.9182 6.53188 50.9414 5.82075 49.452 5.82075C47.9635 5.82075 47.0655 6.52711 47.0655 7.40529C47.0655 8.45529 48.2318 8.78652 49.5977 9.14543C51.9767 9.80502 54.5721 10.5982 54.5721 13.5993C54.5721 16.2587 52.1541 17.9024 49.4807 17.9024C47.4555 17.9024 45.7312 17.3087 44.2845 16.2167C43.9836 15.9065 44.1935 15.6182 44.1935 15.6182L45.1759 14.1749C45.3765 13.9057 45.6281 13.9993 45.7386 14.0776ZM38.8755 15.9437C38.9387 16.6739 39.507 17.6037 40.4912 17.6037H41.067C41.1747 17.6032 41.2778 17.5589 41.354 17.4806C41.4302 17.4023 41.4732 17.2963 41.4737 17.1856V4.16079H41.4709C41.4654 4.05434 41.4205 3.95407 41.3454 3.88058C41.2703 3.80709 41.1707 3.76595 41.067 3.76561H39.2822C39.1786 3.76618 39.0791 3.80739 39.004 3.88084C38.929 3.95428 38.884 4.05442 38.8783 4.16079H38.8755V5.21938C37.7817 3.83338 36.0573 3.25779 34.3283 3.25779C32.4401 3.25855 30.6294 4.0303 29.2947 5.4033C27.9599 6.77629 27.2103 8.63808 27.2108 10.5792C27.2108 14.6236 30.3977 17.9024 34.3283 17.9024C36.0573 17.9024 37.9423 17.2123 38.8755 15.9418V15.9437ZM34.3348 15.3395C31.8351 15.3395 29.809 13.2089 29.809 10.5801C29.809 7.95129 31.8351 5.82075 34.3357 5.82075C36.8355 5.82075 38.8616 7.95129 38.8616 10.5801C38.8616 13.2089 36.8355 15.3395 34.3357 15.3395H34.3348Z" fill="white"></path>
    <path d="M17.2334 11.0775C15.963 11.0775 14.7446 11.5963 13.8463 12.5197C12.948 13.4431 12.4434 14.6956 12.4434 16.0015C12.4434 17.3075 12.948 18.5599 13.8463 19.4833C14.7446 20.4068 15.963 20.9255 17.2334 20.9255C18.5038 20.9255 19.7222 20.4068 20.6205 19.4833C21.5188 18.5599 22.0234 17.3075 22.0234 16.0015C22.0234 14.6956 21.5188 13.4431 20.6205 12.5197C19.7222 11.5963 18.5038 11.0775 17.2334 11.0775ZM4.78961 11.0785C4.15508 11.0694 3.52513 11.19 2.93634 11.4333C2.34755 11.6767 1.81168 12.0378 1.35984 12.4959C0.908009 12.9539 0.549227 13.4997 0.304341 14.1015C0.0594557 14.7034 -0.0666504 15.3492 -0.0666504 16.0015C-0.0666504 16.6539 0.0594557 17.2997 0.304341 17.9015C0.549227 18.5033 0.908009 19.0491 1.35984 19.5071C1.81168 19.9652 2.34755 20.3264 2.93634 20.5697C3.52513 20.813 4.15508 20.9337 4.78961 20.9246C6.04821 20.9066 7.24932 20.38 8.13316 19.4587C9.01699 18.5374 9.51249 17.2955 9.51249 16.0015C9.51249 14.7076 9.01699 13.4657 8.13316 12.5444C7.24932 11.6231 6.04821 11.0965 4.78961 11.0785ZM15.8006 4.92355C15.8006 6.22935 15.296 7.48167 14.3978 8.40502C13.4996 9.32836 12.2813 9.84709 11.011 9.84709C9.74076 9.84709 8.52252 9.32836 7.6243 8.40502C6.72608 7.48167 6.22147 6.22935 6.22147 4.92355C6.22147 3.61774 6.72608 2.36542 7.6243 1.44207C8.52252 0.518729 9.74076 0 11.011 0C12.2813 0 13.4996 0.518729 14.3978 1.44207C15.296 2.36542 15.8006 3.61774 15.8006 4.92355Z" fill="#F06A6A"></path>
  </g>
  <defs>
    <clipPath id="clip0_8_878">
      <rect width="104" height="21" fill="white"></rect>
    </clipPath>
  </defs>
</svg>
