<?xml version="1.0" encoding="UTF-8"?>
<svg xmlns="http://www.w3.org/2000/svg" width="94" height="25" viewBox="0 0 94 25" fill="none">
  <path fill-rule="evenodd" clip-rule="evenodd" d="M23.6644 14.5144C23.4883 16.4726 21.9254 17.8055 19.9782 17.9334L18.4452 17.9461H16.913V7.25051H16.9186C16.9299 6.13252 17.6022 5.12128 18.6286 4.67804H13.0779V18.4629H23.6817V14.5144H23.6644ZM8.5756 4.67804L0 18.4629H4.063C3.1281 18.0045 2.48092 17.1692 2.48092 16.0463C2.48092 15.4963 2.69653 15.1354 2.99732 14.6183L8.07439 6.44992V15.983L8.07263 15.9837C8.0493 17.0378 7.43994 17.9953 6.49479 18.4629H12.0176V4.67804H8.5756Z" fill="#717171"></path>
  <path fill-rule="evenodd" clip-rule="evenodd" d="M33.0301 16.3297H31.0624L31.9185 14.3242C31.9623 14.216 32.0076 14.0969 32.0465 13.9933C32.085 14.0973 32.1302 14.2167 32.1748 14.3263L33.0301 16.3297ZM31.7891 13.0602L29.457 18.4363H30.159L30.7973 16.938H33.2949L33.9336 18.4367H34.6355L32.3031 13.0606L31.7891 13.0602ZM41.066 15.7779C41.066 17.1045 40.0586 17.799 39.064 17.799H37.442V13.6986H39.0064C40.1997 13.6986 41.066 14.5734 41.066 15.7783M39.0064 13.0606H36.8051V18.4367H39.064C40.5768 18.4367 41.7174 17.2939 41.7174 15.7783C41.7174 14.2291 40.5521 13.0606 39.0064 13.0606ZM48.36 15.7779C48.36 17.1045 47.3526 17.799 46.358 17.799H44.7363V13.6986H46.3007C47.494 13.6986 48.36 14.5734 48.36 15.7783M46.3007 13.0606H44.0987V18.4367H46.358C47.8708 18.4367 49.0114 17.2939 49.0114 15.7783C49.0114 14.2291 47.846 13.0606 46.3004 13.0606M51.393 18.4367H52.0299V13.0606H51.393V18.4367ZM56.5432 15.3195L56.5107 15.3107C55.8664 15.1304 55.1997 14.9441 55.1997 14.4185C55.1997 13.9053 55.656 13.5731 56.3626 13.5731C57.0268 13.5731 57.5174 13.9644 57.6124 14.5698L57.6329 14.6974L58.2586 14.5256L58.2391 14.4196C58.0808 13.5452 57.3321 12.9577 56.3767 12.9577C55.3174 12.9577 54.5483 13.578 54.5483 14.4334C54.5483 15.3913 55.5016 15.6719 56.0933 15.8458C56.1728 15.8698 56.2552 15.8932 56.3389 15.9169C56.9893 16.1021 57.6616 16.2926 57.6616 16.9606C57.6616 17.5322 57.1625 17.9167 56.4199 17.9167C55.5497 17.9167 55.1114 17.354 55.0629 16.7963L55.0509 16.657L54.4288 16.8305L54.4416 16.9316C54.5663 17.9086 55.3369 18.5399 56.4054 18.5399C57.5329 18.5399 58.3201 17.8874 58.3201 16.9532C58.3201 15.8271 57.2512 15.5217 56.5432 15.3195ZM65.1634 15.7486C65.1634 16.9921 64.2914 17.8948 63.09 17.8948C61.8925 17.8948 61.0233 16.9921 61.0233 15.7486C61.0233 14.5051 61.8925 13.6024 63.09 13.6024C64.2914 13.6024 65.1634 14.5051 65.1634 15.7486ZM63.09 12.9577C61.5404 12.9577 60.3719 14.1573 60.3719 15.7486C60.3719 17.3395 61.5404 18.5395 63.09 18.5395C64.6434 18.5395 65.8151 17.3395 65.8151 15.7486C65.8151 14.1573 64.6434 12.9577 63.09 12.9577ZM71.7829 16.2996C71.7829 16.6665 71.791 17.0126 71.7978 17.2572C71.6468 17.0465 71.4952 16.8362 71.3432 16.6266L68.7552 13.0602H68.1967V18.4363H68.8337V15.1901C68.8337 14.8066 68.8277 14.4588 68.8231 14.2139C68.9305 14.3698 69.0804 14.585 69.2734 14.8561L71.8681 18.4367H72.4273V13.0606H71.7829V16.2996ZM79.3261 13.0602H78.6888V18.4363H82.1092V17.799H79.3261V13.0602ZM85.0132 15.8797H87.316V15.2573H85.0132V13.6986H87.8681V13.0606H84.3759V18.4367H87.9112V17.7994H85.0132V15.8797ZM91.1022 17.799V15.8797H93.4046V15.2573H91.1022V13.6986H93.9571V13.0606H90.4649V18.4367H94.0002V17.7994L91.1022 17.799Z" fill="#717171"></path>
</svg>
