<?xml version="1.0" encoding="UTF-8"?>
<svg xmlns="http://www.w3.org/2000/svg" width="104" height="16" viewBox="0 0 104 16" fill="none">
  <g clip-path="url(#clip0_830_609)">
    <path d="M0 13.6859V15.3693L0.042264 15.4025H1.87773L0 13.6859Z" fill="#717171"></path>
    <path d="M0 9.22821V10.9117L4.89658 15.4027H6.73202L0 9.22821Z" fill="#717171"></path>
    <path d="M0 4.77612V6.45955L9.75091 15.4028H11.5863L0 4.77612Z" fill="#717171"></path>
    <path d="M0 2.00708L14.6112 15.4025H16.4226L0 0.340271V2.00708Z" fill="#717171"></path>
    <path d="M16.3565 0.606201L9.8418 6.58127L10.1799 6.8969L16.3565 1.23195V0.606201Z" fill="#717171"></path>
    <path d="M16.3568 4.1118V3.41406L11.3516 8.00474L11.7259 8.35914L16.3568 4.1118Z" fill="#717171"></path>
    <path d="M16.3561 6.99069V6.29297L12.8965 9.46602L13.2708 9.81488L16.3561 6.99069Z" fill="#717171"></path>
    <path d="M16.3553 9.87064V9.17291L14.4414 10.9228L14.8157 11.2772L16.3553 9.87064Z" fill="#717171"></path>
    <path d="M16.3566 12.0526L15.9883 12.3849L16.3566 12.7282V12.0526Z" fill="#717171"></path>
    <path d="M30.0372 8.64708L27.8817 3.41406H25.4727V12.7836H27.7247V8.18191L29.2281 11.9641H30.8462L32.3496 8.18191V12.7836H34.6016V3.41406H32.1926L30.0372 8.64708Z" fill="#717171"></path>
    <path d="M43.9842 3.3084C43.1458 3.29382 42.3164 3.46879 41.5691 3.81786C40.0416 4.52667 39.154 6.12703 39.154 8.09844C39.1298 9.02471 39.3691 9.94083 39.8483 10.7565C40.2515 11.4355 40.8563 11.9958 41.5926 12.3722C42.329 12.7486 43.1667 12.9256 44.0083 12.8829C44.845 12.8999 45.6736 12.7308 46.4234 12.3901C47.9509 11.6536 48.8385 10.0477 48.8385 8.09844C48.8659 7.17314 48.6308 6.25727 48.1563 5.44037C47.7554 4.75672 47.1495 4.19264 46.4101 3.81483C45.6708 3.43703 44.829 3.26128 43.9842 3.3084ZM43.9842 10.9447C43.6451 10.9528 43.308 10.8941 42.9956 10.7728C42.6832 10.6515 42.4026 10.4704 42.1729 10.2415C41.6381 9.63739 41.3747 8.86896 41.4362 8.0929C41.3742 7.32114 41.6306 6.55622 42.1548 5.94983C42.3855 5.72161 42.666 5.54053 42.9781 5.4184C43.2902 5.29628 43.6268 5.23583 43.9661 5.24102C44.306 5.23188 44.6439 5.29052 44.9567 5.4129C45.2694 5.53528 45.5494 5.71848 45.7774 5.94983C46.3216 6.54785 46.5921 7.31591 46.5321 8.0929C46.5967 8.86853 46.3305 9.63684 45.7895 10.2359C45.5634 10.468 45.2846 10.6518 44.9727 10.7743C44.6608 10.8968 44.3234 10.9549 43.9842 10.9447Z" fill="#717171"></path>
    <path d="M55.5217 3.41406H53.2637V12.7836H59.6697V10.8455H55.5217V3.41406Z" fill="#717171"></path>
    <path d="M66.379 3.41406H64.127V12.7836H70.5266V10.8455H66.379V3.41406Z" fill="#717171"></path>
    <path d="M77.2342 3.41406H74.9824V12.7836H77.2342V3.41406Z" fill="#717171"></path>
    <path d="M84.3045 8.77446H87.6983V6.83077H84.3045V5.35222H88.537V3.41406H82.0527V12.7836H88.6759V10.8455H84.3045V8.77446Z" fill="#717171"></path>
    <path d="M91.7383 6.94676H93.4405L95.7896 3.41931H92.9641L91.7383 6.94676Z" fill="#717171"></path>
    <path d="M101.186 7.01887C100.286 6.6257 99.8455 6.24915 99.8455 5.86707C99.8441 5.78202 99.8629 5.69769 99.8992 5.61942C99.9354 5.54114 99.9891 5.47062 100.056 5.41233C100.124 5.35403 100.204 5.30923 100.291 5.28075C100.379 5.25227 100.472 5.24073 100.564 5.24686C101.023 5.24686 101.416 5.52928 101.724 6.08858L101.832 6.28238L103.643 5.21364L103.559 5.05305C103.312 4.51277 102.89 4.05535 102.35 3.74319C101.809 3.43102 101.177 3.27929 100.54 3.30871C100.156 3.29811 99.7737 3.36053 99.4174 3.49205C99.0605 3.62356 98.7377 3.82133 98.4687 4.07289C98.2043 4.31848 97.9963 4.61007 97.8561 4.93054C97.7158 5.251 97.6474 5.59389 97.6541 5.93906C97.6179 7.82182 99.465 8.53062 100.425 8.90724C101.029 9.14533 101.748 9.52188 101.748 9.98151C101.748 10.6515 101.422 10.945 100.691 10.945C99.9602 10.945 99.308 10.3913 98.9638 9.28379L98.8793 9.02348L97.0684 10.0867V10.2251C97.2307 10.9714 97.6675 11.6439 98.3056 12.1301C98.9591 12.6381 99.7925 12.9099 100.649 12.8943C102.683 12.8943 103.999 11.7203 103.999 9.90398C104.042 8.17068 102.248 7.45081 101.186 7.01887Z" fill="#717171"></path>
  </g>
  <defs>
    <clipPath id="clip0_830_609">
      <rect width="104" height="16" fill="white"></rect>
    </clipPath>
  </defs>
</svg>
