<?xml version="1.0" encoding="UTF-8"?>
<svg xmlns="http://www.w3.org/2000/svg" width="83" height="16" viewBox="0 0 83 16" fill="none">
  <g clip-path="url(#clip0_830_548)">
    <path d="M80.1859 12.1476C80.2355 12.704 80.689 13.4124 81.4753 13.4124H81.9348C82.0207 13.412 82.1031 13.3783 82.1639 13.3186C82.2247 13.259 82.259 13.1782 82.2594 13.0938V3.17017H82.2571C82.2528 3.08907 82.217 3.01267 82.157 2.95668C82.0971 2.90069 82.0175 2.86934 81.9348 2.86908H80.5104C80.4277 2.86934 80.3482 2.90069 80.2882 2.95668C80.2283 3.01267 80.1924 3.08907 80.1881 3.17017H80.1859V3.97672C79.3129 2.92072 77.9367 2.48217 76.5568 2.48217C75.8106 2.48236 75.0718 2.6268 74.3824 2.90725C73.6931 3.18769 73.0668 3.59864 72.5394 4.11663C72.0119 4.63462 71.5935 5.24951 71.3082 5.92618C71.0229 6.60285 70.8762 7.32804 70.8765 8.06035C70.8761 8.79276 71.0227 9.51807 71.308 10.1949C71.5933 10.8717 72.0116 11.4867 72.5391 12.0048C73.0665 12.5229 73.6928 12.934 74.3822 13.2146C75.0716 13.4952 75.8105 13.6397 76.5568 13.64C77.9367 13.64 79.4411 13.1142 80.1859 12.1462V12.1476ZM76.562 11.6873C74.567 11.6873 72.95 10.064 72.95 8.06108C72.95 6.05817 74.567 4.4349 76.562 4.4349C78.5577 4.4349 80.1747 6.05817 80.1747 8.06108C80.1747 10.064 78.5577 11.6873 76.562 11.6873ZM69.0757 12.4887V7.35417C69.0757 4.4589 67.2156 2.50617 64.2513 2.50617C62.8359 2.50617 61.6754 3.30981 61.2656 4.00072C61.1766 3.46035 60.8854 2.89308 59.9798 2.89308H59.5189C59.4328 2.89327 59.3504 2.9269 59.2895 2.98659C59.2287 3.04629 59.1945 3.1272 59.1943 3.21163V13.136H59.1965C59.2054 13.3033 59.3469 13.4371 59.5189 13.4371H60.9439C60.9654 13.4371 60.9869 13.4342 61.0077 13.4305C61.0173 13.4291 61.0255 13.4247 61.0351 13.4225L61.0669 13.4131C61.0795 13.4073 61.0907 13.4007 61.1025 13.3942L61.1203 13.3847C61.1342 13.3753 61.1473 13.3649 61.1596 13.3534L61.167 13.3484C61.2266 13.2926 61.2621 13.2166 61.2663 13.136H61.2678V7.27417C61.2676 6.52783 61.5695 5.81198 62.107 5.28403C62.6445 4.75609 63.3737 4.45929 64.1342 4.4589C64.8946 4.45929 65.6237 4.75599 66.1612 5.28378C66.6988 5.81156 67.0007 6.52723 67.0007 7.27345L67.0015 12.1738V12.1724L67.0029 12.1854V13.136H67.0044C67.014 13.3033 67.1549 13.4371 67.3268 13.4371H68.7519C68.7733 13.4369 68.7946 13.4347 68.8156 13.4305C68.8237 13.4291 68.8319 13.4254 68.84 13.4233C68.8519 13.4204 68.8638 13.4174 68.8749 13.4131C68.8867 13.408 68.8971 13.4014 68.9082 13.3956L68.9282 13.3847C68.9412 13.3758 68.9536 13.3661 68.9653 13.3556L68.9749 13.3484C68.9882 13.3356 69.0003 13.3217 69.0112 13.3069L69.0135 13.304C69.0496 13.2551 69.0707 13.197 69.0742 13.1367H69.0765V12.4887H69.0757ZM54.238 12.1476C54.2876 12.704 54.7419 13.4124 55.5274 13.4124H55.9869C56.1648 13.4124 56.3108 13.2691 56.3108 13.0938V3.17017H56.3093C56.3047 3.08913 56.2689 3.01283 56.2089 2.95688C56.149 2.90092 56.0696 2.86952 55.9869 2.86908H54.5618C54.4791 2.86952 54.3997 2.90092 54.3398 2.95688C54.2799 3.01283 54.244 3.08913 54.2395 3.17017H54.238V3.97672C53.365 2.92072 51.9888 2.48217 50.6082 2.48217C49.8621 2.48246 49.1233 2.62697 48.434 2.90746C47.7448 3.18794 47.1186 3.59891 46.5912 4.11689C46.0638 4.63487 45.6456 5.24972 45.3603 5.92635C45.075 6.60297 44.9283 7.3281 44.9286 8.06035C44.9286 11.1418 47.4713 13.64 50.6082 13.64C51.9888 13.64 53.4925 13.1142 54.238 12.1462V12.1476ZM50.6141 11.6873C48.6192 11.6873 47.0014 10.064 47.0014 8.06108C47.0014 6.05817 48.6192 4.4349 50.6141 4.4349C52.6091 4.4349 54.2261 6.05817 54.2261 8.06108C54.2261 10.064 52.6091 11.6873 50.6141 11.6873ZM36.5034 10.7258C37.4542 11.3731 38.4924 11.6873 39.4899 11.6873C40.4407 11.6873 41.4234 11.2036 41.4234 10.3614C41.4234 9.23708 39.2817 9.06181 37.9366 8.61235C36.5916 8.16363 35.4325 7.23563 35.4325 5.73235C35.4325 3.43199 37.5194 2.48145 39.4669 2.48145C40.7008 2.48145 41.974 2.88145 42.7995 3.45454C43.0841 3.66545 42.9107 3.90908 42.9107 3.90908L42.1229 5.01454C42.034 5.13817 41.8799 5.24581 41.6575 5.11126C41.4352 4.97672 40.6556 4.4349 39.4669 4.4349C38.279 4.4349 37.5624 4.97308 37.5624 5.64217C37.5624 6.44217 38.4932 6.69454 39.5833 6.96799C41.4819 7.47054 43.5532 8.0749 43.5532 10.3614C43.5532 12.3876 41.6235 13.64 39.4899 13.64C37.8736 13.64 36.4975 13.1876 35.3429 12.3556C35.1028 12.1193 35.2703 11.8996 35.2703 11.8996L36.0543 10.8C36.2144 10.5949 36.4152 10.6662 36.5034 10.7258ZM31.0261 12.1476C31.0765 12.704 31.5301 13.4124 32.3156 13.4124H32.7751C32.861 13.412 32.9434 13.3783 33.0042 13.3186C33.0649 13.259 33.0993 13.1782 33.0997 13.0938V3.17017H33.0974C33.0931 3.08907 33.0572 3.01267 32.9973 2.95668C32.9373 2.90069 32.8578 2.86934 32.7751 2.86908H31.3507C31.268 2.86952 31.1886 2.90092 31.1287 2.95688C31.0688 3.01283 31.0329 3.08913 31.0284 3.17017H31.0261V3.97672C30.1532 2.92072 28.777 2.48217 27.3971 2.48217C25.8901 2.48275 24.4451 3.07075 23.3799 4.11684C22.3146 5.16294 21.7164 6.58144 21.7168 8.06035C21.7168 11.1418 24.2602 13.64 27.3971 13.64C28.777 13.64 30.2814 13.1142 31.0261 12.1462V12.1476ZM27.4023 11.6873C25.4073 11.6873 23.7903 10.064 23.7903 8.06108C23.7903 6.05817 25.4073 4.4349 27.403 4.4349C29.398 4.4349 31.015 6.05817 31.015 8.06108C31.015 10.064 29.398 11.6873 27.403 11.6873H27.4023Z" fill="#717171"></path>
    <path d="M13.754 8.44C12.7402 8.44 11.7678 8.83526 11.0509 9.53883C10.334 10.2424 9.93122 11.1966 9.93122 12.1916C9.93122 13.1866 10.334 14.1409 11.0509 14.8444C11.7678 15.548 12.7402 15.9433 13.754 15.9433C14.7679 15.9433 15.7403 15.548 16.4572 14.8444C17.1741 14.1409 17.5769 13.1866 17.5769 12.1916C17.5769 11.1966 17.1741 10.2424 16.4572 9.53883C15.7403 8.83526 14.7679 8.44 13.754 8.44ZM3.82293 8.44073C3.31653 8.43381 2.81378 8.52571 2.34388 8.71111C1.87399 8.89651 1.44632 9.17169 1.08572 9.52068C0.725119 9.86967 0.438783 10.2855 0.243345 10.744C0.047908 11.2026 -0.0527344 11.6946 -0.0527344 12.1916C-0.0527344 12.6887 0.047908 13.1807 0.243345 13.6392C0.438783 14.0978 0.725119 14.5136 1.08572 14.8626C1.44632 15.2116 1.87399 15.4868 2.34388 15.6722C2.81378 15.8576 3.31653 15.9495 3.82293 15.9425C4.82739 15.9288 5.78598 15.5276 6.49134 14.8257C7.19671 14.1237 7.59216 13.1775 7.59216 12.1916C7.59216 11.2058 7.19671 10.2596 6.49134 9.55762C5.78598 8.85568 4.82739 8.45445 3.82293 8.44073ZM12.6106 3.75127C12.6106 4.74617 12.2078 5.70032 11.491 6.40382C10.7741 7.10732 9.80189 7.50255 8.78811 7.50255C7.77434 7.50255 6.80208 7.10732 6.08523 6.40382C5.36839 5.70032 4.96567 4.74617 4.96567 3.75127C4.96567 2.75637 5.36839 1.80222 6.08523 1.09872C6.80208 0.395222 7.77434 0 8.78811 0C9.80189 0 10.7741 0.395222 11.491 1.09872C12.2078 1.80222 12.6106 2.75637 12.6106 3.75127Z" fill="#717171"></path>
  </g>
  <defs>
    <clipPath id="clip0_830_548">
      <rect width="83" height="16" fill="white"></rect>
    </clipPath>
  </defs>
</svg>
