<?xml version="1.0" encoding="UTF-8"?>
<svg xmlns="http://www.w3.org/2000/svg" width="74" height="74" viewBox="0 0 74 74" fill="none">
  <g clip-path="url(#clip0_830_627)">
    <path fill-rule="evenodd" clip-rule="evenodd" d="M12.0563 43.8998V44.8831H11.1348V41.1146H14.6326C14.9883 41.1332 15.3227 41.2895 15.565 41.5504C15.8074 41.8113 15.9387 42.1563 15.9311 42.5123C15.9343 42.7764 15.8631 43.036 15.7256 43.2614C15.588 43.4868 15.3897 43.6689 15.1534 43.7868L15.9687 44.8933H14.8039L14.0708 43.9101L12.0563 43.8998ZM59.0566 44.8831C58.9277 44.8797 58.8007 44.8506 58.6831 44.7977C58.5654 44.7448 58.4595 44.669 58.3714 44.5747C58.185 44.3777 58.0819 44.1163 58.0837 43.845V42.1321C58.0824 41.8599 58.1854 41.5976 58.3714 41.3989C58.4597 41.3051 58.5657 41.2299 58.6834 41.1775C58.801 41.1252 58.9279 41.0968 59.0566 41.094H62.8663V42.0704H59.4163C59.3671 42.07 59.3184 42.0801 59.2735 42.1002C59.2285 42.1203 59.1885 42.1499 59.156 42.1869C59.0847 42.2602 59.0453 42.3587 59.0463 42.4609V43.4339C59.0451 43.5611 59.0929 43.6838 59.18 43.7765C59.2213 43.8205 59.2712 43.8557 59.3265 43.8798C59.3819 43.904 59.4416 43.9166 59.502 43.917H61.9275V43.1633H62.8491V44.8762L59.0566 44.8831ZM36.4455 44.8831H32.677C32.5479 44.8804 32.4207 44.8518 32.303 44.7988C32.1852 44.7458 32.0794 44.6696 31.9918 44.5747C31.8054 44.3777 31.7023 44.1163 31.704 43.845V42.1321C31.7014 41.8702 31.7953 41.6165 31.9678 41.4195C32.0557 41.3252 32.1617 41.2497 32.2794 41.1973C32.3971 41.1449 32.5242 41.1167 32.653 41.1146H36.4592V42.0704H33.023C32.9744 42.0704 32.9263 42.0809 32.882 42.1009C32.8377 42.121 32.7982 42.1503 32.7661 42.1869C32.6948 42.2602 32.6553 42.3587 32.6564 42.4609V43.4339C32.6552 43.5611 32.703 43.6838 32.79 43.7765C32.8309 43.8203 32.8802 43.8553 32.9349 43.8794C32.9897 43.9036 33.0488 43.9163 33.1087 43.917H36.4729V44.8865L36.4455 44.8831ZM23.982 42.6254L22.3101 44.8831H21.0974C21.69 44.0814 22.269 43.2181 22.9028 42.4472C23.7319 41.4195 23.9923 41.1077 24.8111 41.1077H26.4761V44.8762H25.5271V42.1046H24.8693C24.6956 42.0883 24.5211 42.1253 24.3691 42.2108C24.2185 42.3272 24.0877 42.4672 23.982 42.6254V42.6254ZM42.7732 44.8831H41.6769V41.1146H42.7732V44.8831ZM51.4168 44.8831L48.9913 42.4472V44.8899H47.9635V41.1214H49.1077L51.8485 43.9067V41.1043H52.8763V44.8728H51.4271L51.4168 44.8831ZM12.0563 42.0704V42.9337H14.6361C14.7408 42.921 14.837 42.8697 14.9061 42.7899C14.9751 42.7101 15.012 42.6075 15.0095 42.502C15.0123 42.3909 14.971 42.2831 14.8946 42.2022C14.8182 42.1214 14.713 42.074 14.6018 42.0704H12.0563Z" fill="#717171"></path>
    <path fill-rule="evenodd" clip-rule="evenodd" d="M18.0312 51.2313V49.419H19.3194V49.7616H18.415V50.1898H19.2063V50.505H18.415V51.2484L18.0312 51.2313ZM20.9364 51.2313L20.6624 50.9607V49.6931L20.9364 49.419H21.9265L22.204 49.6931V50.9607L21.9265 51.2313H20.9364ZM21.1454 50.923H21.7038L21.8032 50.8236V49.8232L21.7004 49.7273H21.1454L21.0461 49.8232V50.8236L21.1454 50.923V50.923ZM23.684 51.2313V49.419H24.8317L25.1058 49.6931V50.3269L24.8763 50.553L25.1675 51.2382H24.7632L24.5028 50.5975H24.0677V51.2382L23.684 51.2313ZM24.0677 50.2789H24.6296L24.7289 50.183V49.8404L24.633 49.7444H24.0677V50.296V50.2789ZM26.6269 51.2313V49.419H27.0654L27.5588 50.6283L28.0555 49.419H28.4735V51.2313H28.0932V50.1042L27.6478 51.1936H27.4423L26.9969 50.1042V51.2313H26.6269ZM30.2481 51.2313L29.9775 50.9607V49.419H30.3612V50.8236L30.4605 50.923H31.0087L31.108 50.827V49.419H31.4917V50.9607L31.2176 51.2313H30.2481ZM33.0128 51.2313V49.419H33.3965V50.9058H34.2599V51.2484L33.0128 51.2313ZM35.5275 51.2313L36.0893 49.419H36.6923L37.2541 51.2313H36.8464L36.7334 50.8305H36.0482L35.9351 51.2313H35.5275ZM36.1338 50.5187H36.658L36.4422 49.7376H36.3668L36.1475 50.5187H36.1338ZM40.3923 51.2313V49.419H41.701V49.7616H40.7691V50.1521H41.6085V50.4673H40.7691V50.923H41.6941V51.2656L40.3923 51.2313ZM45.2982 51.2313V49.7444H44.7912V49.4019H46.1889V49.7444H45.6819V51.2313H45.2982ZM47.5764 51.2313V49.419H48.8851V49.7616H47.9636V50.1521H48.8029V50.4673H47.9636V50.923H48.8886V51.2656L47.5764 51.2313ZM50.1973 51.2313L50.7591 49.419H51.3621L51.9239 51.2313H51.5162L51.3895 50.8305H50.7043L50.5913 51.2313H50.1973ZM50.8037 50.5187H51.3141L51.0983 49.7376H51.0229L50.8037 50.5187V50.5187ZM53.2943 51.2313V49.419H53.7157L54.209 50.6283L54.7058 49.419H55.1272V51.2313H54.7538V50.1042L54.3084 51.1936H54.1302L53.6849 50.1042V51.2313H53.2943Z" fill="#717171"></path>
    <path fill-rule="evenodd" clip-rule="evenodd" d="M61.2727 49.8986H73.1435V42.9885H74V50.7551H61.2727V49.8986ZM12.7273 50.7551H0V42.9885H0.856482V49.8986H12.7273V50.7551Z" fill="#717171"></path>
    <path fill-rule="evenodd" clip-rule="evenodd" d="M60.2971 48.8879C60.5817 48.8879 60.8599 48.9723 61.0965 49.1304C61.3331 49.2885 61.5176 49.5133 61.6265 49.7762C61.7354 50.0391 61.7639 50.3284 61.7083 50.6075C61.6528 50.8867 61.5158 51.143 61.3146 51.3443C61.1133 51.5455 60.8569 51.6825 60.5778 51.7381C60.2987 51.7936 60.0094 51.7651 59.7465 51.6562C59.4835 51.5473 59.2588 51.3629 59.1007 51.1262C58.9426 50.8896 58.8582 50.6114 58.8582 50.3268C58.8582 49.9452 59.0098 49.5792 59.2797 49.3094C59.5495 49.0395 59.9155 48.8879 60.2971 48.8879ZM60.2971 49.5731C60.1516 49.5745 60.0098 49.6187 59.8893 49.7003C59.7688 49.7818 59.6751 49.897 59.6197 50.0316C59.5644 50.1661 59.5499 50.314 59.5782 50.4567C59.6064 50.5994 59.6761 50.7306 59.7784 50.834C59.8808 50.9373 60.0114 51.0082 60.1539 51.0377C60.2963 51.0672 60.4443 51.0541 60.5794 51C60.7144 50.9459 60.8305 50.8532 60.9131 50.7334C60.9957 50.6137 61.0413 50.4723 61.044 50.3268C61.044 50.2291 61.0246 50.1323 60.987 50.042C60.9494 49.9518 60.8942 49.8699 60.8248 49.8011C60.7554 49.7323 60.673 49.678 60.5824 49.6412C60.4918 49.6044 60.3949 49.5859 60.2971 49.5868V49.5731ZM13.7045 48.8879C13.4199 48.8879 13.1417 48.9723 12.9051 49.1304C12.6685 49.2885 12.4841 49.5133 12.3752 49.7762C12.2662 50.0391 12.2378 50.3284 12.2933 50.6075C12.3488 50.8867 12.4858 51.143 12.6871 51.3443C12.8883 51.5455 13.1447 51.6825 13.4238 51.7381C13.7029 51.7936 13.9922 51.7651 14.2552 51.6562C14.5181 51.5473 14.7428 51.3629 14.9009 51.1262C15.059 50.8896 15.1434 50.6114 15.1434 50.3268C15.1434 49.9452 14.9918 49.5792 14.722 49.3094C14.4521 49.0395 14.0861 48.8879 13.7045 48.8879V48.8879ZM13.7045 49.5731C13.85 49.5745 13.9918 49.6187 14.1123 49.7003C14.2328 49.7818 14.3265 49.897 14.3819 50.0316C14.4372 50.1661 14.4517 50.314 14.4235 50.4567C14.3952 50.5994 14.3256 50.7306 14.2232 50.834C14.1208 50.9373 13.9902 51.0082 13.8478 51.0377C13.7053 51.0672 13.5573 51.0541 13.4223 51C13.2872 50.9459 13.1711 50.8532 13.0885 50.7334C13.0059 50.6137 12.9604 50.4723 12.9577 50.3268C12.9572 50.2289 12.9762 50.1319 13.0137 50.0415C13.0512 49.9511 13.1063 49.869 13.1758 49.8001C13.2453 49.7312 13.3279 49.6769 13.4187 49.6402C13.5095 49.6036 13.6066 49.5855 13.7045 49.5868V49.5731Z" fill="#717171"></path>
    <path fill-rule="evenodd" clip-rule="evenodd" d="M60.2971 48.8879C60.5817 48.8879 60.8599 48.9723 61.0965 49.1304C61.3331 49.2885 61.5176 49.5133 61.6265 49.7762C61.7354 50.0391 61.7639 50.3284 61.7083 50.6075C61.6528 50.8867 61.5158 51.143 61.3146 51.3443C61.1133 51.5455 60.8569 51.6825 60.5778 51.7381C60.2987 51.7936 60.0094 51.7651 59.7465 51.6562C59.4835 51.5473 59.2588 51.3629 59.1007 51.1262C58.9426 50.8896 58.8582 50.6114 58.8582 50.3268C58.8582 49.9452 59.0098 49.5792 59.2797 49.3094C59.5495 49.0395 59.9155 48.8879 60.2971 48.8879ZM13.7045 48.8879C13.4199 48.8879 13.1417 48.9723 12.9051 49.1304C12.6685 49.2885 12.4841 49.5133 12.3752 49.7762C12.2662 50.0391 12.2378 50.3284 12.2933 50.6075C12.3488 50.8867 12.4858 51.143 12.6871 51.3443C12.8883 51.5455 13.1447 51.6825 13.4238 51.7381C13.7029 51.7936 13.9922 51.7651 14.2552 51.6562C14.5181 51.5473 14.7428 51.3629 14.9009 51.1262C15.059 50.8896 15.1434 50.6114 15.1434 50.3268C15.1434 49.9452 14.9918 49.5792 14.722 49.3094C14.4521 49.0395 14.0861 48.8879 13.7045 48.8879V48.8879ZM13.7045 49.5731C13.85 49.5745 13.9918 49.6187 14.1123 49.7003C14.2328 49.7818 14.3265 49.897 14.3819 50.0316C14.4372 50.1661 14.4517 50.314 14.4235 50.4567C14.3952 50.5994 14.3256 50.7306 14.2232 50.834C14.1208 50.9373 13.9902 51.0082 13.8478 51.0377C13.7053 51.0672 13.5573 51.0541 13.4223 51C13.2872 50.9459 13.1711 50.8532 13.0885 50.7334C13.0059 50.6137 12.9604 50.4723 12.9577 50.3268C12.9572 50.2289 12.9762 50.1319 13.0137 50.0415C13.0512 49.9511 13.1063 49.869 13.1758 49.8001C13.2453 49.7312 13.3279 49.6769 13.4187 49.6402C13.5095 49.6036 13.6066 49.5855 13.7045 49.5868V49.5731ZM60.2971 49.5731C60.1516 49.5745 60.0098 49.6187 59.8893 49.7003C59.7688 49.7818 59.6751 49.897 59.6197 50.0316C59.5644 50.1661 59.5499 50.314 59.5782 50.4567C59.6064 50.5994 59.6761 50.7306 59.7784 50.834C59.8808 50.9373 60.0114 51.0082 60.1539 51.0377C60.2963 51.0672 60.4443 51.0541 60.5794 51C60.7144 50.9459 60.8305 50.8532 60.9131 50.7334C60.9957 50.6137 61.0413 50.4723 61.044 50.3268C61.044 50.2291 61.0246 50.1323 60.987 50.042C60.9494 49.9518 60.8942 49.8699 60.8248 49.8011C60.7554 49.7323 60.673 49.678 60.5824 49.6412C60.4918 49.6044 60.3949 49.5859 60.2971 49.5868V49.5731Z" fill="#717171"></path>
    <path fill-rule="evenodd" clip-rule="evenodd" d="M23.3301 34.0639C21.8021 35.7769 18.2905 35.1842 15.6286 34.4065C14.0732 33.9612 13.9567 34.7149 14.3199 35.4994C14.683 36.2839 15.8992 37.5241 18.1261 37.7126C19.333 37.8283 20.5429 37.5247 21.552 36.8527C21.6205 36.8013 21.5794 36.719 21.5041 36.7602C19.9281 37.5687 17.0949 37.2466 16.4645 36.1572C16.3789 36.0099 16.4371 35.9139 16.8688 36.0133C19.9898 36.7327 22.2441 35.9722 23.402 34.0674V34.0228C23.3848 34.0252 23.3689 34.0337 23.3575 34.0468L23.3301 34.0639ZM13.2373 27.0305C13.1653 27.0819 13.2099 27.1641 13.2853 27.1264C14.8578 26.3111 17.6739 26.6297 18.3042 27.7157C18.3865 27.863 18.3282 27.9589 17.9 27.8596C14.7755 27.1401 12.5213 27.9007 11.3633 29.8055C11.3359 29.8535 11.3839 29.874 11.425 29.8261C12.9529 28.1131 16.4611 28.7058 19.123 29.4664C20.6818 29.9117 20.7949 29.158 20.4317 28.3735C20.0686 27.5889 18.8421 26.3453 16.629 26.1638C16.4748 26.1638 16.3206 26.1432 16.1699 26.1432C15.1249 26.1339 14.1019 26.4434 13.2373 27.0305ZM17.3758 25.5094C19.0132 25.5065 20.5858 26.1489 21.7529 27.2974C22.92 28.4459 23.5876 30.008 23.611 31.6452C23.611 32.9026 22.5627 33.8344 20.4968 33.8344C17.9616 33.8344 15.3579 32.6867 13.7238 32.6867C13.5933 32.6832 13.4635 32.7068 13.3426 32.756C13.2218 32.8053 13.1124 32.8791 13.0216 32.9729C12.9308 33.0666 12.8604 33.1782 12.815 33.3005C12.7695 33.4229 12.75 33.5534 12.7577 33.6837C12.7577 35.633 14.8132 37.9592 17.3758 38.2607C17.4752 38.2607 17.4752 38.384 17.3758 38.384C15.7387 38.386 14.1666 37.7433 12.9997 36.595C11.8328 35.4467 11.1649 33.8852 11.1406 32.2482C11.1406 30.9909 12.1924 30.059 14.2548 30.059C16.7763 30.059 19.3423 31.2067 21.0278 31.2067C21.1583 31.2103 21.2881 31.1867 21.409 31.1374C21.5299 31.0882 21.6392 31.0143 21.73 30.9206C21.8208 30.8269 21.8912 30.7153 21.9366 30.5929C21.9821 30.4705 22.0016 30.3401 21.994 30.2098C21.994 28.2604 19.9692 25.9651 17.3758 25.6327C17.2696 25.619 17.273 25.5094 17.3758 25.5094V25.5094ZM62.8584 32.2516C62.8574 32.0475 62.8413 31.8436 62.8104 31.6418C62.778 31.4394 62.7096 31.2445 62.6083 31.0663C62.5048 30.889 62.3573 30.7415 62.1801 30.638C61.9548 30.5186 61.7016 30.4618 61.4469 30.4736C61.0714 30.4664 60.6991 30.5437 60.3575 30.6997C60.0566 30.8402 59.8031 31.0652 59.6278 31.3472V30.5626H58.343V35.2527H59.7682V32.5634C59.8082 32.4408 59.8671 32.3252 59.9429 32.2208C60.0158 32.1234 60.1011 32.0359 60.1965 31.9604C60.2862 31.889 60.3854 31.8302 60.4911 31.7857C60.5877 31.7448 60.6912 31.7228 60.796 31.7206C60.8838 31.7179 60.9709 31.7357 61.0506 31.7726C61.1303 31.8095 61.2003 31.8644 61.2551 31.933C61.3925 32.1336 61.4544 32.3763 61.4298 32.6182V35.2527H62.8584V32.2516V32.2516ZM54.1634 32.4161C54.2128 32.2739 54.287 32.1417 54.3827 32.0255C54.4782 31.9192 54.5949 31.8341 54.7253 31.7754C54.8557 31.7175 54.9971 31.6883 55.1398 31.6898C55.2814 31.688 55.4216 31.7179 55.5502 31.7771C55.6788 31.8364 55.7926 31.9236 55.8832 32.0324C56.0879 32.2815 56.1929 32.5976 56.1778 32.9197C56.1799 33.0888 56.152 33.257 56.0956 33.4164C56.0483 33.5585 55.9739 33.69 55.8764 33.8036C55.7881 33.9103 55.6768 33.9958 55.5509 34.0537C55.4228 34.1153 55.2819 34.1458 55.1398 34.1427C54.9976 34.1453 54.8566 34.1158 54.7274 34.0565C54.5981 33.9972 54.4838 33.9096 54.3929 33.8001C54.1863 33.5508 54.0811 33.2328 54.0983 32.9094C54.0955 32.7416 54.1221 32.5746 54.1771 32.4161H54.1634ZM56.195 35.1568C56.4917 35.0366 56.7601 34.8557 56.9829 34.6258C57.1976 34.4034 57.3634 34.1385 57.4694 33.8481C57.6957 33.2534 57.6957 32.5963 57.4694 32.0015C57.3596 31.7123 57.193 31.4479 56.9795 31.2239C56.7552 30.9948 56.4873 30.8131 56.1916 30.6894C55.8552 30.5496 55.4937 30.4808 55.1295 30.4873C54.7643 30.4815 54.4018 30.5503 54.0641 30.6894C53.7678 30.8121 53.4997 30.994 53.2761 31.2239C53.0615 31.447 52.8948 31.7116 52.7862 32.0015C52.5671 32.5976 52.5671 33.2521 52.7862 33.8481C52.8948 34.138 53.0615 34.4027 53.2761 34.6258C53.4989 34.8557 53.7673 35.0366 54.0641 35.1568C54.7517 35.4171 55.5108 35.4171 56.1984 35.1568H56.195ZM51.9126 28.7435H50.484V30.0385H51.9126V28.7435ZM51.9126 30.5729H50.484V35.2527H51.9126V30.5626V30.5729ZM49.2815 34.9376C49.449 34.8071 49.5833 34.6388 49.6732 34.4465C49.7631 34.2541 49.8062 34.0432 49.7988 33.831C49.8027 33.6568 49.7688 33.4838 49.6994 33.3239C49.6291 33.173 49.5219 33.0422 49.3877 32.9437C49.2163 32.8189 49.0283 32.7185 48.8292 32.6456C48.5997 32.5565 48.3188 32.4675 47.9865 32.375C47.7629 32.3303 47.5455 32.259 47.339 32.1626C47.287 32.1324 47.2439 32.0892 47.214 32.0372C47.184 31.9852 47.1683 31.9262 47.1683 31.8662C47.1683 31.8062 47.184 31.7472 47.214 31.6952C47.2439 31.6432 47.287 31.6 47.339 31.5699C47.4589 31.5022 47.5953 31.469 47.7329 31.4739C47.9414 31.4761 48.1474 31.5192 48.3393 31.6007C48.5912 31.7071 48.8302 31.8415 49.0519 32.0015L49.6069 31.1451C49.3506 30.9124 49.0483 30.7362 48.7196 30.6277C48.3999 30.5301 48.0672 30.4816 47.7329 30.4839C47.4792 30.4808 47.2268 30.5201 46.9861 30.6003C46.7709 30.6714 46.5701 30.7804 46.3934 30.9224C46.2226 31.061 46.0857 31.2367 45.9931 31.4361C45.9005 31.6356 45.8546 31.8536 45.859 32.0735C45.854 32.2323 45.8844 32.3903 45.948 32.536C46.0149 32.6738 46.1164 32.7918 46.2427 32.8786C46.406 32.9951 46.5847 33.0885 46.7737 33.1561C46.9895 33.2383 47.2567 33.3239 47.5719 33.413C47.8084 33.4661 48.0382 33.5454 48.2571 33.6494C48.3137 33.6771 48.3616 33.72 48.3955 33.7732C48.4293 33.8263 48.4478 33.8879 48.449 33.9509C48.451 34.0077 48.4378 34.0641 48.4106 34.1141C48.3835 34.1641 48.3435 34.2059 48.2948 34.2352C48.1644 34.3085 48.0159 34.343 47.8666 34.3346C47.5984 34.3304 47.3334 34.2758 47.0854 34.1736C46.7923 34.0523 46.5131 33.8995 46.2529 33.7179L45.7425 34.5915C46.0259 34.8467 46.3614 35.0372 46.7257 35.15C47.1054 35.278 47.5035 35.3428 47.9042 35.3418C48.4046 35.3689 48.8991 35.2238 49.3054 34.9307L49.2815 34.9376ZM45.0504 28.7435H43.6218V30.0385H45.0504V28.7435ZM45.0504 30.5729H43.6218V35.2527H45.0504V30.5626V30.5729ZM41.4258 35.2527L43.0771 30.5661H41.7444L40.7166 34.1119L39.6889 30.5661H38.2157L39.8704 35.2527H41.4258ZM37.8183 32.2551C37.8173 32.0509 37.8012 31.8471 37.7703 31.6452C37.7368 31.4431 37.6684 31.2484 37.5682 31.0697C37.4647 30.8925 37.3172 30.745 37.14 30.6414C36.9147 30.522 36.6615 30.4653 36.4068 30.477C36.0313 30.4695 35.6589 30.5468 35.3174 30.7031C35.022 30.8449 34.7735 31.0684 34.6014 31.3472V30.5626H33.2995V35.2527H34.7281V32.5634C34.7696 32.4414 34.8284 32.326 34.9028 32.2208C34.976 32.1225 35.0625 32.0349 35.1598 31.9604C35.2479 31.8884 35.346 31.8295 35.451 31.7857C35.5475 31.7445 35.651 31.7224 35.7559 31.7206C35.8437 31.7177 35.931 31.7353 36.0107 31.7722C36.0904 31.8091 36.1604 31.8642 36.215 31.933C36.3524 32.1336 36.4143 32.3763 36.3897 32.6182V35.2527H37.8183V32.2516V32.2551ZM29.5344 33.968V32.6148H32.0319V31.4294H29.5344V30.1961H32.443V28.9114H28.0716V35.2527H32.5253V33.9646L29.5344 33.968Z" fill="#717171"></path>
    <path fill-rule="evenodd" clip-rule="evenodd" d="M73.1435 30.0008V23.0907H0.856482V30.0008H0V22.2343H74V30.0008H73.1435Z" fill="#717171"></path>
  </g>
  <defs>
    <clipPath id="clip0_830_627">
      <rect width="74" height="74" fill="white"></rect>
    </clipPath>
  </defs>
</svg>
