<?xml version="1.0" encoding="UTF-8"?>
<svg xmlns="http://www.w3.org/2000/svg" width="75" height="30" viewBox="0 0 75 30" fill="none">
  <g clip-path="url(#clip0_830_640)">
    <path d="M0 27.9111H14.5825V29.9926H0V27.9111Z" fill="#717171"></path>
    <path d="M0 23.9185H14.5825V26.0073H0V23.9185Z" fill="#717171"></path>
    <path d="M4.16016 19.9333H10.4151V22.0222H4.16016V19.9333Z" fill="#717171"></path>
    <path d="M4.16016 15.9482H10.4151V18.0371H4.16016V15.9482Z" fill="#717171"></path>
    <path d="M4.16016 11.963H10.4151V14.0519H4.16016V11.963Z" fill="#717171"></path>
    <path d="M4.16016 7.9704H10.4151V10.0593H4.16016V7.9704Z" fill="#717171"></path>
    <path d="M14.5825 3.98517H0V6.07407H14.5825V3.98517Z" fill="#717171"></path>
    <path d="M14.5825 0H0V2.0889H14.5825V0Z" fill="#717171"></path>
    <path d="M16.6621 26.0074H39.0893C39.4681 25.3629 39.7504 24.6592 39.9213 23.9185H16.6621V26.0074Z" fill="#717171"></path>
    <path d="M37.344 15.9482H20.8301V18.0371H39.0898C38.6143 17.237 38.0274 16.5334 37.344 15.9482Z" fill="#717171"></path>
    <path d="M20.8301 11.963V14.0519H37.344C38.0424 13.4667 38.6292 12.7629 39.0898 11.963H20.8301Z" fill="#717171"></path>
    <path d="M39.0894 3.98517H16.6621V6.07407H39.9213C39.7282 5.33332 39.4459 4.62967 39.0894 3.98517Z" fill="#717171"></path>
    <path d="M32.1955 0H16.6621V2.0889H37.5516C36.155 0.799977 34.2607 0 32.1955 0Z" fill="#717171"></path>
    <path d="M27.0776 7.9704H20.8301V10.0593H27.0776V7.9704Z" fill="#717171"></path>
    <path d="M33.332 10.0593H39.8693C40.055 9.39266 40.1516 8.68893 40.1516 7.9704H33.332V10.0593Z" fill="#717171"></path>
    <path d="M20.8301 19.9333H27.0776V22.0222H20.8301V19.9333Z" fill="#717171"></path>
    <path d="M33.332 19.9333V22.0222H40.1516C40.1516 21.3037 40.055 20.6 39.8693 19.9333H33.332Z" fill="#717171"></path>
    <path d="M16.6621 29.9778L32.1955 30C34.2756 30 36.155 29.2001 37.559 27.9111H16.6621V29.9778Z" fill="#717171"></path>
    <path d="M41.668 27.9111H52.0829V29.9926H41.668V27.9111Z" fill="#717171"></path>
    <path d="M41.668 23.9185H52.0829V26.0073H41.668V23.9185Z" fill="#717171"></path>
    <path d="M45.8281 19.9333H52.083V22.0222H45.8281V19.9333Z" fill="#717171"></path>
    <path d="M45.8281 15.9482H52.083V18.0371H45.8281V15.9482Z" fill="#717171"></path>
    <path d="M54.9802 3.98517H41.668V6.07407H55.7007L54.9802 3.98517Z" fill="#717171"></path>
    <path d="M53.5984 0H41.668V2.0889H54.319L53.5984 0Z" fill="#717171"></path>
    <path d="M64.5781 27.9111H75.0006V29.9926H64.5781V27.9111Z" fill="#717171"></path>
    <path d="M64.5781 23.9185H75.0006V26.0073H64.5781V23.9185Z" fill="#717171"></path>
    <path d="M64.5781 19.9333H70.833V22.0222H64.5781V19.9333Z" fill="#717171"></path>
    <path d="M64.5781 15.9482H70.833V18.0371H64.5781V15.9482Z" fill="#717171"></path>
    <path d="M64.5781 14.0519H70.833V11.963H64.5781H58.9175L58.3306 13.6519L57.7438 11.963H52.083H45.8281V14.0519H52.083V12.1333L52.7443 14.0519H63.917L64.5781 12.1333V14.0519Z" fill="#717171"></path>
    <path d="M70.8325 7.9704H60.2987L59.5781 10.0593H70.8325V7.9704Z" fill="#717171"></path>
    <path d="M63.0702 0L62.3496 2.0889H75.0007V0H63.0702Z" fill="#717171"></path>
    <path d="M58.33 29.9778L59.0505 27.9111H57.6094L58.33 29.9778Z" fill="#717171"></path>
    <path d="M56.9483 26.0073H59.7118L60.4547 23.9185H56.2129L56.9483 26.0073Z" fill="#717171"></path>
    <path d="M55.544 22.0222H61.1156L61.851 19.9333H54.8086L55.544 22.0222Z" fill="#717171"></path>
    <path d="M54.1483 18.0371H62.5204L63.2336 15.9482H53.4277L54.1483 18.0371Z" fill="#717171"></path>
    <path d="M45.8281 10.0593H57.0826L56.362 7.9704H45.8281V10.0593Z" fill="#717171"></path>
    <path d="M60.9668 6.07407H74.9996V3.98517H61.68L60.9668 6.07407Z" fill="#717171"></path>
  </g>
  <defs>
    <clipPath id="clip0_830_640">
      <rect width="75" height="30" fill="white"></rect>
    </clipPath>
  </defs>
</svg>
