<svg xmlns="http://www.w3.org/2000/svg" width="209" height="40" viewBox="0 0 209 40" fill="none" style="width: 110px;"> <path d="M47.2068 0.292969L29.9013 26.2558L21.6319 0.292969H6.736L0 39.293H11.7195L15.4435 17.6201L22.3438 39.293H33.0228L47.4258 17.6201L43.6471 39.293H55.3666L62.1026 0.292969H47.2068Z" fill="#FFF"/> <path d="M96.3198 39.2372H109.135L97.0865 0.292969H84.2717L58.6968 39.2372H71.5664L74.4141 34.9473H95.0054L96.3198 39.2372ZM91.9386 25.1973H80.712L88.379 13.553L91.9386 25.1973Z" fill="#FFF"/> <path d="M140.289 17.2301L160.825 0.292969H145.875L128.514 14.6115L130.979 0.292969H119.259L112.523 39.293H124.243L125.995 28.9858L130.705 25.1415L140.179 39.293H155.13L140.289 17.2301Z" fill="#FFF"/> <path d="M172.094 29.543L172.916 24.6401H202.647L204.29 14.8901H174.614L175.435 10.043H207.302L209 0.292969H165.413L158.677 39.293H202.209L203.907 29.543H172.094Z" fill="#FFF"/> </svg>