<svg width="119" height="59" viewBox="0 0 119 59" fill="none" xmlns="http://www.w3.org/2000/svg">
<path fill-rule="evenodd" clip-rule="evenodd" d="M15.6614 14.8414V18.9844L25.5038 18.98C25.2018 21.265 24.4359 22.938 23.2719 24.1092C21.8364 25.5533 19.5958 27.1427 15.6614 27.1427C9.59588 27.1427 4.85196 22.2248 4.85196 16.1226C4.85196 10.0203 9.59588 5.10247 15.6614 5.10247C18.9349 5.10247 21.3244 6.39688 23.088 8.06112L25.9939 5.13769C23.5344 2.77341 20.261 0.959473 15.6658 0.959473C7.35959 0.959473 0.375 7.76614 0.375 16.1226C0.375 24.479 7.35959 31.2857 15.6658 31.2857C20.1472 31.2857 23.5301 29.8063 26.1777 27.0326C28.8998 24.2941 29.7444 20.4505 29.7444 17.3421C29.7444 16.4176 29.6744 15.5634 29.5387 14.8414H15.6614ZM98.6844 30.6903V2.0724H94.5254V30.6903H98.6844ZM50.8722 21.5205C50.8722 27.1428 46.5002 31.2858 41.1349 31.2858C35.7695 31.2858 31.3976 27.1428 31.3976 21.5205C31.3976 15.8586 35.7695 11.7552 41.1349 11.7552C46.5002 11.7552 50.8722 15.8586 50.8722 21.5205ZM46.6096 21.5205C46.6096 18.0071 44.0758 15.6032 41.1349 15.6032C38.194 15.6032 35.6601 18.0071 35.6601 21.5205C35.6601 24.9987 38.194 27.4378 41.1349 27.4378C44.0758 27.4378 46.6096 24.9943 46.6096 21.5205ZM18.6627 42.7969C18.8579 42.3971 19.4276 42.3971 19.6229 42.7969L21.8532 47.3647C21.9306 47.5231 22.0812 47.6332 22.2557 47.6588L27.2523 48.3927C27.6887 48.4568 27.8638 48.9923 27.5496 49.3019L23.9268 52.8712C23.8025 52.9937 23.7458 53.1691 23.775 53.3412L24.6293 58.3753C24.7034 58.8125 24.2434 59.1446 23.8518 58.9365L19.3935 56.5674C19.2367 56.4841 19.0488 56.4841 18.8921 56.5674L14.4337 58.9365C14.0421 59.1446 13.5821 58.8125 13.6563 58.3753L14.5105 53.3412C14.5397 53.1691 14.483 52.9937 14.3587 52.8712L10.7359 49.3019C10.4217 48.9923 10.5968 48.4568 11.0333 48.3927L16.0298 47.6588C16.2043 47.6332 16.3549 47.5231 16.4323 47.3647L18.6627 42.7969ZM38.8819 42.7969C39.0771 42.3971 39.6469 42.3971 39.8421 42.7969L42.0725 47.3647C42.1499 47.5231 42.3005 47.6332 42.4749 47.6588L47.4715 48.3927C47.908 48.4568 48.0831 48.9923 47.7689 49.3019L44.1461 52.8712C44.0218 52.9937 43.9651 53.1691 43.9943 53.3412L44.8485 58.3753C44.9227 58.8125 44.4627 59.1446 44.0711 58.9365L39.6127 56.5674C39.456 56.4841 39.2681 56.4841 39.1113 56.5674L34.653 58.9365C34.2614 59.1446 33.8013 58.8125 33.8755 58.3753L34.7298 53.3412C34.759 53.1691 34.7023 52.9937 34.578 52.8712L30.9552 49.3019C30.641 48.9923 30.8161 48.4568 31.2525 48.3927L36.2491 47.6588C36.4236 47.6332 36.5742 47.5231 36.6516 47.3647L38.8819 42.7969ZM59.9602 42.8096C59.7658 42.4071 59.1925 42.4071 58.998 42.8096L56.7985 47.3633C56.7215 47.5226 56.5708 47.6334 56.3958 47.6594L51.4588 48.3924C51.0241 48.4569 50.8489 48.9894 51.1602 49.2994L54.7472 52.8719C54.8699 52.994 54.9257 53.1681 54.8971 53.3389L54.0523 58.3713C53.9788 58.8093 54.4408 59.1406 54.832 58.9304L59.2263 56.57C59.3842 56.4851 59.5741 56.4851 59.7319 56.57L64.1262 58.9304C64.5175 59.1406 64.9795 58.8093 64.9059 58.3713L64.0612 53.3389C64.0325 53.1681 64.0884 52.994 64.2111 52.8719L67.798 49.2994C68.1094 48.9894 67.9341 48.4569 67.4995 48.3924L62.5624 47.6594C62.3875 47.6334 62.2367 47.5226 62.1598 47.3633L59.9602 42.8096ZM79.1143 42.7969C79.3095 42.3971 79.8792 42.3971 80.0744 42.7969L82.3048 47.3647C82.3822 47.5231 82.5328 47.6332 82.7073 47.6588L87.7038 48.3927C88.1403 48.4568 88.3154 48.9923 88.0012 49.3019L84.3784 52.8712C84.2541 52.9937 84.1974 53.1691 84.2266 53.3412L85.0808 58.3753C85.155 58.8125 84.695 59.1446 84.3034 58.9365L79.8451 56.5674C79.6883 56.4841 79.5004 56.4841 79.3436 56.5674L74.8853 58.9365C74.4937 59.1446 74.0337 58.8125 74.1079 58.3753L74.9621 53.3412C74.9913 53.1691 74.9346 52.9937 74.8103 52.8712L71.1875 49.3019C70.8733 48.9923 71.0484 48.4568 71.4848 48.3927L76.4814 47.6588C76.6559 47.6332 76.8065 47.5231 76.8839 47.3647L79.1143 42.7969ZM100.295 42.7969C100.1 42.3971 99.5302 42.3971 99.335 42.7969L97.1047 47.3647C97.0273 47.5231 96.8767 47.6332 96.7022 47.6588L91.7056 48.3927C91.2692 48.4568 91.0941 48.9923 91.4083 49.3019L95.0311 52.8712C95.1554 52.9937 95.2121 53.1691 95.1829 53.3412L94.3286 58.3753C94.2544 58.8125 94.7145 59.1446 95.1061 58.9365L99.5644 56.5674C99.7212 56.4841 99.9091 56.4841 100.066 56.5674L104.524 58.9365C104.916 59.1446 105.376 58.8125 105.302 58.3753L104.447 53.3412C104.418 53.1691 104.475 52.9937 104.599 52.8712L108.222 49.3019C108.536 48.9923 108.361 48.4568 107.925 48.3927L102.928 47.6588C102.754 47.6332 102.603 47.5231 102.526 47.3647L100.295 42.7969ZM62.1411 31.2858C67.5064 31.2858 71.8784 27.1428 71.8784 21.5205C71.8784 15.8586 67.5064 11.7552 62.1411 11.7552C56.7757 11.7552 52.4038 15.863 52.4038 21.5205C52.4038 27.1428 56.7757 31.2858 62.1411 31.2858ZM62.1411 15.6032C65.082 15.6032 67.6158 18.0071 67.6158 21.5205C67.6158 24.9943 65.082 27.4378 62.1411 27.4378C59.2002 27.4378 56.6663 24.9987 56.6663 21.5205C56.6663 18.0071 59.2002 15.6032 62.1411 15.6032ZM92.0105 12.3496V29.877C92.0105 37.0887 87.783 40.0341 82.7852 40.0341C78.0807 40.0341 75.2492 36.8685 74.1814 34.2797L77.8925 32.7255C78.5533 34.3149 80.1726 36.1905 82.7808 36.1905C85.9799 36.1905 87.9624 34.2049 87.9624 30.4669V29.0624H87.8136C86.8596 30.2468 85.0215 31.2814 82.7021 31.2814C77.8487 31.2814 73.4024 27.0284 73.4024 21.5557C73.4024 16.0435 77.8487 11.7552 82.7021 11.7552C85.0171 11.7552 86.8552 12.7899 87.8136 13.939H87.9624V12.3496H92.0105ZM88.2644 21.5557C88.2644 18.1172 85.9843 15.6032 83.0828 15.6032C80.1419 15.6032 77.6781 18.1172 77.6781 21.5557C77.6781 24.9591 80.1419 27.4378 83.0828 27.4378C85.9843 27.4378 88.2644 24.9591 88.2644 21.5557ZM114.883 24.7389L118.192 26.9579C117.124 28.5473 114.551 31.2858 110.104 31.2858C104.59 31.2858 100.472 26.9976 100.472 21.5205C100.472 15.7133 104.625 11.7552 109.627 11.7552C114.664 11.7552 117.128 15.7881 117.934 17.9675L118.376 19.077L105.4 24.4836C106.393 26.4428 107.938 27.4422 110.104 27.4422C112.275 27.4422 113.78 26.368 114.883 24.7389ZM104.7 21.2255L113.373 17.6021C112.896 16.3825 111.461 15.5328 109.772 15.5328C107.605 15.5328 104.59 17.4568 104.7 21.2255Z" fill="#F4F4F4"/>
</svg>
